<?xml version="1.0" encoding="UTF-8"?>
<svg width="60px" height="121px" viewBox="0 0 60 121" version="1.1" xmlns="http://www.w3.org/2000/svg" xmlns:xlink="http://www.w3.org/1999/xlink">
    <!-- Generator: Sketch 63.1 (92452) - https://sketch.com -->
    <title>Group</title>
    <desc>Created with Sketch.</desc>
    <g id="Page-1" stroke="none" stroke-width="1" fill="none" fill-rule="evenodd">
        <g id="My-devices" transform="translate(-244.000000, -314.000000)">
            <g id="Group" transform="translate(244.000000, 314.000000)">
                <path d="M51.7391304,-1.42108547e-13 L8.26086957,-1.42108547e-13 C3.69851728,-1.42108547e-13 7.10542736e-15,3.69851728 7.10542736e-15,8.26086957 L7.10542736e-15,112.608696 C7.10542736e-15,117.171048 3.69851728,120.869565 8.26086957,120.869565 L51.7391304,120.869565 C56.3014827,120.869565 60,117.171048 60,112.608696 L60,8.26086957 C60,3.69851728 56.3014827,-1.42108547e-13 51.7391304,-1.42108547e-13 Z M8.26086957,0.869565217 L51.7391304,0.869565217 C55.8212351,0.869565217 59.1304348,4.17876489 59.1304348,8.26086957 L59.1304348,112.608696 C59.1304348,116.6908 55.8212351,120 51.7391304,120 L8.26086957,120 C4.17876489,120 0.869565217,116.6908 0.869565217,112.608696 L0.869565217,8.26086957 C0.869565217,4.17876489 4.17876489,0.869565217 8.26086957,0.869565217 Z" id="Rectangle" fill="#ADBCC6" fill-rule="nonzero"></path>
                <rect id="Rectangle" fill="#DCE4E9" x="3.04347826" y="14.3478261" width="53.9130435" height="91.3043478"></rect>
                <rect id="Rectangle" fill="#ADBCC6" x="23.9130435" y="6.52173913" width="13.0434783" height="2.60869565" rx="1.30434783"></rect>
                <path d="M30,107.826087 C27.3586382,107.826087 25.2173913,109.967334 25.2173913,112.608696 C25.2173913,115.250057 27.3586382,117.391304 30,117.391304 C32.6413618,117.391304 34.7826087,115.250057 34.7826087,112.608696 C34.7826087,109.967334 32.6413618,107.826087 30,107.826087 Z M30,108.695652 C32.1611142,108.695652 33.9130435,110.447581 33.9130435,112.608696 C33.9130435,114.76981 32.1611142,116.521739 30,116.521739 C27.8388858,116.521739 26.0869565,114.76981 26.0869565,112.608696 C26.0869565,110.447581 27.8388858,108.695652 30,108.695652 Z" id="Oval" fill="#ADBCC6" fill-rule="nonzero"></path>
            </g>
        </g>
    </g>
</svg>