<?xml version="1.0" encoding="UTF-8"?>
<svg width="50px" height="103px" viewBox="0 0 50 103" version="1.1" xmlns="http://www.w3.org/2000/svg" xmlns:xlink="http://www.w3.org/1999/xlink">
    <!-- Generator: Sketch 63.1 (92452) - https://sketch.com -->
    <title>Group 3</title>
    <desc>Created with Sketch.</desc>
    <g id="Page-1" stroke="none" stroke-width="1" fill="none" fill-rule="evenodd">
        <g id="My-devices" transform="translate(-1142.000000, -324.000000)">
            <g id="Group-3" transform="translate(1143.000000, 325.000000)">
                <g id="Group-2">
                    <path d="M7.33379215,0 L40.6496903,0 C44.8947006,0 48,3.08864328 48,6.969661 L48,93.6457236 C48,97.5429122 44.8947006,100.615385 40.6496903,100.615385 L7.33379215,100.615385 C3.10529938,100.615385 0,97.5429122 0,93.6457236 L0,6.969661 C0,3.08864328 3.10529938,0 7.33379215,0 Z" id="Path" stroke="#ADBCC6"></path>
                    <path d="M45,39.2659545 L45,13.4261743 C45,13.0664195 44.7082267,12.7692308 44.3550274,12.7692308 L3.66032907,12.7692308 C3.29177331,12.7692308 3,13.0664195 3,13.4261743 L3,86.1122872 C3,86.472042 3.29177331,86.7692308 3.66032907,86.7692308 L44.3550274,86.7692308 C44.7082267,86.7692308 45,86.472042 45,86.1122872 L45,39.2659545 Z" id="Path" fill="#DCE4E9"></path>
                    <path d="M18.1032905,7.72469636 C18.4065717,7.72469636 18.6524297,7.97846209 18.6524297,8.29149798 C18.6524297,8.60453387 18.4065717,8.8582996 18.1032905,8.8582996 C17.8000092,8.8582996 17.5541512,8.60453387 17.5541512,8.29149798 C17.5541512,7.97846209 17.8000092,7.72469636 18.1032905,7.72469636 Z M27.7210721,7.78947368 C27.9877969,7.78947368 28.2074526,8.01619433 28.2074526,8.29149798 C28.2074526,8.56680162 27.9877969,8.79352227 27.7210721,8.79352227 L21.0686424,8.79352227 C20.8019176,8.79352227 20.5822619,8.56680162 20.5822619,8.29149798 C20.5822619,8.01619433 20.8019176,7.78947368 21.0686424,7.78947368 L27.7210721,7.78947368 Z M24.3948573,3.69230769 C24.8801072,3.69230769 25.2734801,4.09833286 25.2734801,4.59919028 C25.2734801,5.10004771 24.8801072,5.50607287 24.3948573,5.50607287 C23.9096073,5.50607287 23.5162345,5.10004771 23.5162345,4.59919028 C23.5162345,4.09833286 23.9096073,3.69230769 24.3948573,3.69230769 Z" id="Combined-Shape" fill="#ADBCC6"></path>
                    <path d="M18.1032905,7.70850202 C18.2601874,7.70850202 18.4013946,7.77327935 18.5112225,7.88663968 C18.6053606,7.98380567 18.6838091,8.12955466 18.6838091,8.29149798 C18.6838091,8.4534413 18.6053606,8.59919028 18.5112225,8.71255061 C18.4013946,8.8097166 18.2601874,8.87449393 18.1032905,8.87449393 C17.9463935,8.87449393 17.8051863,8.8097166 17.7110482,8.71255061 C17.6012203,8.59919028 17.5384615,8.4534413 17.5384615,8.29149798 C17.5384615,8.12955466 17.6012203,7.98380567 17.7110482,7.88663968 C17.8051863,7.77327935 17.9463935,7.70850202 18.1032905,7.70850202 Z M18.4798431,7.91902834 C18.3857049,7.80566802 18.2601874,7.75708502 18.1032905,7.75708502 C17.9620832,7.75708502 17.8365657,7.80566802 17.7424275,7.91902834 C17.6482894,8.01619433 17.5855306,8.14574899 17.5855306,8.29149798 C17.5855306,8.43724696 17.6482894,8.58299595 17.7424275,8.68016194 C17.8365657,8.77732794 17.9620832,8.82591093 18.1032905,8.82591093 C18.2601874,8.82591093 18.3857049,8.77732794 18.4798431,8.68016194 C18.5739813,8.58299595 18.63674,8.43724696 18.63674,8.29149798 C18.63674,8.14574899 18.5739813,8.01619433 18.4798431,7.91902834 Z" id="Shape" fill="#ADBCC6" fill-rule="nonzero"></path>
                    <path d="M24.4615385,89.5384615 C26.7562035,89.5384615 28.6153846,91.3976427 28.6153846,93.6923077 C28.6153846,95.9869727 26.7562035,97.8461538 24.4615385,97.8461538 C22.1668734,97.8461538 20.3076923,95.9869727 20.3076923,93.6923077 C20.3076923,91.3976427 22.1668734,89.5384615 24.4615385,89.5384615 Z" id="Path" stroke="#ADBCC6"></path>
                </g>
            </g>
        </g>
    </g>
</svg>