<?xml version="1.0" encoding="UTF-8"?>
<svg width="69px" height="139px" viewBox="0 0 69 139" version="1.1" xmlns="http://www.w3.org/2000/svg" xmlns:xlink="http://www.w3.org/1999/xlink">
    <!-- Generator: Sketch 63.1 (92452) - https://sketch.com -->
    <title>iphone-plus</title>
    <desc>Created with Sketch.</desc>
    <g id="Page-1" stroke="none" stroke-width="1" fill="none" fill-rule="evenodd">
        <g id="My-devices-Copy-3" transform="translate(-284.000000, -673.000000)">
            <g id="iphone-plus" transform="translate(284.000000, 673.000000)">
                <path d="M59.8168605,-1.13686838e-13 L8.26086957,-1.13686838e-13 C3.69851728,-1.13686838e-13 -7.10542736e-15,3.69851728 -7.10542736e-15,8.26086957 L-7.10542736e-15,130.218097 C-7.10542736e-15,134.780449 3.69851728,138.478966 8.26086957,138.478966 L59.8168605,138.478966 C64.3792128,138.478966 68.0777301,134.780449 68.0777301,130.218097 L68.0777301,8.26086957 C68.0777301,3.69851728 64.3792128,-1.13686838e-13 59.8168605,-1.13686838e-13 Z M8.29097037,0.771771499 L59.8168605,0.771771499 C63.8989652,0.771771499 67.2081649,4.08097117 67.2081649,8.16307585 L67.2081649,130.218097 C67.2081649,134.300201 63.8989652,137.609401 59.8168605,137.609401 L8.29097037,137.609401 C4.2088657,137.609401 0.899666022,134.300201 0.899666022,130.218097 L0.899666022,8.16307585 C0.899666022,4.08097117 4.2088657,0.771771499 8.29097037,0.771771499 Z" id="Rectangle" fill="#ADBCC6" fill-rule="nonzero"></path>
                <rect id="Rectangle" fill="#DCE4E9" x="3" y="16" width="62" height="108"></rect>
                <rect id="Rectangle" fill="#ADBCC6" x="27" y="8" width="13.0434783" height="2.60869565" rx="1.30434783"></rect>
                <path d="M33.7826087,126 C31.1412468,126 29,128.141247 29,130.782609 C29,133.423971 31.1412468,135.565217 33.7826087,135.565217 C36.4239705,135.565217 38.5652174,133.423971 38.5652174,130.782609 C38.5652174,128.141247 36.4239705,126 33.7826087,126 Z M33.7826087,126.869565 C35.9437229,126.869565 37.6956522,128.621494 37.6956522,130.782609 C37.6956522,132.943723 35.9437229,134.695652 33.7826087,134.695652 C31.6214945,134.695652 29.8695652,132.943723 29.8695652,130.782609 C29.8695652,128.621494 31.6214945,126.869565 33.7826087,126.869565 Z" id="Oval" fill="#ADBCC6" fill-rule="nonzero"></path>
            </g>
        </g>
    </g>
</svg>