<?xml version="1.0" encoding="UTF-8"?>
<svg width="47px" height="97px" viewBox="0 0 47 97" version="1.1" xmlns="http://www.w3.org/2000/svg" xmlns:xlink="http://www.w3.org/1999/xlink">
    <!-- Generator: sketchtool 63.1 (101010) - https://sketch.com -->
    <title>350E9909-CE97-48DB-93F1-4282AD94E98F</title>
    <desc>Created with sketchtool.</desc>
    <g id="Page-1" stroke="none" stroke-width="1" fill="none" fill-rule="evenodd">
        <g id="Recordings-list-empty" transform="translate(-1261.000000, -221.000000)" fill="#BEBEC4" fill-rule="nonzero">
            <g id="arrow" transform="translate(1245.000000, 220.000000)">
                <g id="Group" transform="translate(38.000000, 49.500000) rotate(-11.000000) translate(-38.000000, -49.500000) translate(8.000000, 5.000000)">
                    <path d="M54.1530026,0.668490401 C54.3115496,0.838992103 54.4280032,1.02364417 54.5335386,1.23846275 C54.6674482,1.51103752 54.7904628,1.852995 54.9219794,2.29371251 L55.0675709,2.8084857 C55.2182008,3.36727851 55.3868317,4.06853859 55.5994356,5.00594133 L56.341838,8.34724032 L56.7404875,10.1041205 C56.8032425,10.3750702 56.8646655,10.6371606 56.9255233,10.8935008 L57.1071674,11.6483792 C57.9282741,15.0138744 58.6959287,17.4794391 59.4780963,19.0737627 C59.8429738,19.8175073 59.5358414,20.716223 58.7920969,21.0811005 C58.0483524,21.445978 57.1496366,21.1388456 56.7847591,20.3951011 C55.9237069,18.6399837 55.1403689,16.1721622 54.3165485,12.862271 L54.1926571,12.3594556 C54.0689704,11.852497 53.9464068,11.336033 53.8186975,10.7846919 L53.3404772,8.64897714 C53.3275488,8.74884648 53.3143103,8.85002868 53.3007582,8.9525103 C52.9631583,11.5054452 52.5010724,14.3473944 51.895304,17.4066986 C50.1640294,26.1501308 47.6270709,34.89571 44.1257851,43.0724855 C41.7802494,48.5501641 39.0718481,53.5881479 35.9722526,58.0922043 C30.0309368,66.7255958 24.3630895,72.8056042 19.1475747,76.7685274 C17.2941189,78.1768454 15.6215062,79.2194326 14.1530577,79.9506448 C13.9376533,80.0579051 13.7360662,80.1540334 13.5486056,80.2397417 C13.7100926,80.8028106 13.7955838,81.3981325 13.7955838,82.013422 C13.7955838,85.6032728 10.8854346,88.513422 7.29558376,88.513422 C3.70573288,88.513422 0.795583755,85.6032728 0.795583755,82.013422 C0.795583755,78.4235711 3.70573288,75.513422 7.29558376,75.513422 C9.18745359,75.513422 10.8905469,76.3216705 12.0783986,77.6117027 C12.2846361,77.5214562 12.5313458,77.4068197 12.8158255,77.2651635 C14.1146951,76.6183929 15.6275412,75.6753927 17.3325769,74.3798493 C22.2841808,70.6174545 27.7342911,64.7710167 33.5009101,56.3914791 C36.4815878,52.0602235 39.0968814,47.1954323 41.3679781,41.8915957 C44.7788682,33.9259269 47.2590623,25.3760301 48.9524403,16.8239863 C49.4914039,14.1020659 49.9138417,11.5578579 50.2337422,9.2458097 L50.3266502,8.55921447 C50.3641456,8.27567356 50.3991364,8.00264208 50.4317038,7.74043346 L49.533411,9.10088364 C49.2365448,9.5457929 48.9575097,9.96052069 48.6817608,10.3663456 L48.475338,10.6693774 C48.000914,11.3640751 47.5491121,12.0126804 47.1119724,12.6250131 L46.5876621,13.3518707 C44.3508145,16.4189485 42.5666619,18.4110538 41.0622299,19.3020028 C40.3494234,19.7241384 39.4293711,19.4885031 39.0072355,18.7756966 C38.6099315,18.10482 38.7952895,17.2503622 39.4127425,16.800222 L39.5335418,16.7207023 C40.6607665,16.0531415 42.4374562,14.0096633 44.6703179,10.8819346 L45.3195171,9.96121381 L45.997929,8.97750133 C46.4032197,8.38403544 46.8088522,7.78097781 47.2631793,7.09755461 L50.3244906,2.4697997 C51.6938096,0.431889463 51.893895,0.275520677 52.6977836,0.148197229 C53.3158648,0.0503027888 53.8036242,0.29276815 54.1530026,0.668490401 Z M7.29558376,78.513422 C5.36258713,78.513422 3.79558376,80.0804253 3.79558376,82.013422 C3.79558376,83.9464186 5.36258713,85.513422 7.29558376,85.513422 C9.22858038,85.513422 10.7955838,83.9464186 10.7955838,82.013422 C10.7955838,80.0804253 9.22858038,78.513422 7.29558376,78.513422 Z" id="Combined-Shape"></path>
                </g>
            </g>
        </g>
    </g>
</svg>