<?xml version="1.0" encoding="UTF-8"?>
<svg width="117px" height="66px" viewBox="0 0 117 66" version="1.1" xmlns="http://www.w3.org/2000/svg" xmlns:xlink="http://www.w3.org/1999/xlink">
    <!-- Generator: sketchtool 63.1 (101010) - https://sketch.com -->
    <title>54CC8F6B-9551-45EF-828B-6EF9D76544A7</title>
    <desc>Created with sketchtool.</desc>
    <g id="Page-1" stroke="none" stroke-width="1" fill="none" fill-rule="evenodd">
        <g id="Guides-recordings" transform="translate(-58.000000, -952.000000)">
            <g id="placeholder" transform="translate(58.000000, 952.000000)">
                <rect id="Rectangle-Copy-19" fill="#F7FAFC" x="0" y="0" width="117" height="66"></rect>
                <path d="M76,12 L42,12 C38.6862915,12 36,14.6862915 36,18 L36,37 C36,40.3137085 38.6862915,43 42,43 L76,43 C79.3137085,43 82,40.3137085 82,37 L82,18 C82,14.6862915 79.3137085,12 76,12 Z M42,14 L76,14 C78.209139,14 80,15.790861 80,18 L80,37 C80,39.209139 78.209139,41 76,41 L42,41 C39.790861,41 38,39.209139 38,37 L38,18 C38,15.790861 39.790861,14 42,14 Z" id="Rectangle" fill="#D5D9FB" fill-rule="nonzero"></path>
                <path d="M58.2724422,22.4768928 L53.0134792,31.4922579 C52.8350538,31.7981301 52.741037,32.1458907 52.741037,32.5 C52.741037,33.6045695 53.6364675,34.5 54.741037,34.5 L65.258963,34.5 C65.6130723,34.5 65.9608329,34.4059832 66.2667051,34.2275578 C67.2208089,33.6709972 67.5430814,32.4463618 66.9865208,31.4922579 L61.7275578,22.4768928 C61.5537202,22.1788855 61.3057493,21.9309146 61.0077421,21.7570771 C60.0536382,21.2005165 58.8290028,21.522789 58.2724422,22.4768928 Z M54.741037,32.5 L60,23.4846349 L65.258963,32.5 L54.741037,32.5 Z" id="Triangle" fill="#D5D9FB" fill-rule="nonzero" transform="translate(60.000163, 27.992155) rotate(-270.000000) translate(-60.000163, -27.992155) "></path>
                <path d="M107.724897,55.3935577 L29.9798437,55.3935577 C29.3326562,55.3935577 28.8079687,55.9209359 28.8079687,56.5714423 C28.8079687,57.2219487 29.3326562,57.7493269 29.9798437,57.7493269 L107.724897,57.7493269 C108.372085,57.7493269 108.896772,57.2219487 108.896772,56.5714423 C108.896772,55.9209359 108.372241,55.3935577 107.724897,55.3935577 Z" id="Path-Copy-8" fill="#D5D9FB" fill-rule="nonzero"></path>
                <path d="M22.4646875,52.8753974 C20.846875,52.8753974 19.4707813,53.9314103 18.9803125,55.3932436 L7.43453125,55.3932436 C6.78734375,55.3932436 6.26265625,55.9206218 6.26265625,56.5711282 C6.26265625,57.2216346 6.78734375,57.7490128 7.43453125,57.7490128 L18.9804688,57.7490128 C19.4709375,59.2108462 20.8470313,60.266859 22.4648438,60.266859 C24.4923438,60.266859 26.1417188,58.6088686 26.1417188,56.5711282 C26.1417188,54.5333878 24.4921875,52.8753974 22.4646875,52.8753974 Z M22.4646875,57.9114038 C21.7295313,57.9114038 21.1314063,57.3102115 21.1314063,56.5714423 C21.1314063,55.8326731 21.7295313,55.2314808 22.4646875,55.2314808 C23.1998438,55.2314808 23.7978125,55.8326731 23.7978125,56.5714423 C23.7978125,57.3102115 23.1998438,57.9114038 22.4646875,57.9114038 Z" id="Shape-Copy-2" fill="#D5D9FB" fill-rule="nonzero"></path>
            </g>
        </g>
    </g>
</svg>