<?xml version="1.0" encoding="UTF-8"?>
<svg width="100px" height="74px" viewBox="0 0 100 74" version="1.1" xmlns="http://www.w3.org/2000/svg" xmlns:xlink="http://www.w3.org/1999/xlink">
    <!-- Generator: sketchtool 63.1 (101010) - https://sketch.com -->
    <title>31759CFB-7E37-4F8C-A46C-AF9D86DF2DB9</title>
    <desc>Created with sketchtool.</desc>
    <g id="Page-1" stroke="none" stroke-width="1" fill="none" fill-rule="evenodd">
        <g id="Recordings-list-empty" transform="translate(-100.000000, -231.000000)" fill-rule="nonzero">
            <g id="laptop-(1)-2" transform="translate(100.000000, 231.000000)">
                <g id="laptop-(1)">
                    <path d="M96.8376068,56.9252646 C96.0927684,56.9252646 95.5341396,56.9252646 95.1617204,56.9252646 C94.8313855,56.9252646 93.4811825,56.9252646 91.1111111,56.9252646 L91.1111111,7.9420618 C91.1058835,3.55795926 87.5693149,0.00525148187 83.2051282,0 L16.7948718,0 C12.4306852,0.00525148187 8.89411651,3.55795926 8.88888889,7.9420618 L8.88888889,56.9252646 C8.34623382,56.9252646 7.93924253,56.9252646 7.66791499,56.9252646 C7.23648849,56.9252646 5.73464788,56.9252646 3.16239316,56.9252646 C1.41585165,56.9252646 0,58.3475774 0,60.1020893 L0,64.8673263 C0.0069709265,71.0052149 4.10366968,73.4034064 10.2136752,73.410409 L89.7863248,73.410409 C95.8963304,73.4034064 99.9930291,71.0052149 100,64.8673263 L100,60.1020893 C100,58.3475774 98.5841484,56.9252646 96.8376068,56.9252646 Z M12.0512821,7.9420618 C12.0512821,5.31029403 14.1750595,3.17682472 16.7948718,3.17682472 L83.2051282,3.17682472 C85.8249404,3.17682472 87.9487179,5.31029403 87.9487179,7.9420618 L87.9487179,56.9252646 L12.0512821,56.9252646 L12.0512821,7.9420618 Z" id="Shape" fill="#272837"></path>
                    <path d="M96.8376068,64.8673263 C96.8323792,69.251429 93.2958106,70.2283329 88.9316239,70.2335843 L11.0683761,70.2335843 C6.70418946,70.2283329 3.16762079,69.251429 3.16239316,64.8673263 L3.16239316,60.1020893 L32.8303539,60.1020893 L32.8303539,61.6905016 C32.8303539,65.1995253 35.4385409,67.1503612 38.9316239,67.1503612 L61.0683761,67.1503612 C64.5614591,67.1503612 67.215059,65.1995253 67.215059,61.6905016 L67.215059,60.1020893 L96.8376068,60.1020893 L96.8376068,64.8673263 Z" id="Shape-path" fill="#DED7F4"></path>
                    <path d="M35.7692308,60.1020893 L64.2307692,60.1020893 L64.2307692,61.6905016 C64.2307692,63.4450135 62.8149176,64.5990088 61.0683761,64.5990088 L38.9316239,64.5990088 C37.1850824,64.5990088 35.7692308,63.4450135 35.7692308,61.6905016 L35.7692308,60.1020893 Z" id="Shape-path" fill="#DED7F4"></path>
                    <path d="M26.2820513,63.278914 L23.1196581,63.278914 C22.2463874,63.278914 21.5384615,63.9900705 21.5384615,64.8673263 C21.5384615,65.7445822 22.2463874,66.4557387 23.1196581,66.4557387 L26.2820513,66.4557387 C27.155322,66.4557387 27.8632479,65.7445822 27.8632479,64.8673263 C27.8632479,63.9900705 27.155322,63.278914 26.2820513,63.278914 Z" id="Shape" fill="#272837"></path>
                    <ellipse id="Oval" fill="#272837" cx="10.4700855" cy="64.8673263" rx="1.58119658" ry="1.58841236"></ellipse>
                    <ellipse id="Oval" fill="#272837" cx="16.7948718" cy="64.8673263" rx="1.58119658" ry="1.58841236"></ellipse>
                    <path d="M76.7712393,14.5322559 C75.7253856,13.9793035 74.45988,14.0583374 73.4902564,14.7371611 L62.6495726,22.2932387 L62.6495726,17.3437458 C62.6495726,14.7119781 60.5257951,12.5785087 57.9059829,12.5785087 L26.2820513,12.5785087 C23.6622391,12.5785087 21.5384615,14.7119781 21.5384615,17.3437458 L21.5384615,42.7583435 C21.5384615,45.3901112 23.6622391,47.5235806 26.2820513,47.5235806 L57.9059829,47.5235806 C60.5257951,47.5235806 62.6495726,45.3901112 62.6495726,42.7583435 L62.6495726,37.8088506 L73.4902564,45.3649282 C74.4551348,46.0408615 75.7137497,46.1229383 76.7575224,45.5779931 C77.8012951,45.0330479 78.4577154,43.9511468 78.4615387,42.7694624 L78.4615387,17.3326269 C78.4615387,16.1555715 77.810402,15.0760589 76.7712393,14.5322559 L76.7712393,14.5322559 Z" id="Shape" fill="#272837"></path>
                    <polygon id="Shape-path" fill="#CAF5DE" points="75.2991453 42.7583435 62.6495726 33.9442433 62.6495726 26.1610228 75.2991453 17.3342153"></polygon>
                    <path d="M57.9059829,44.3467559 L26.2820513,44.3467559 C25.4087806,44.3467559 24.7008547,43.6355994 24.7008547,42.7583435 L24.7008547,41.1699311 L29.4444444,41.1699311 C30.3177151,41.1699311 31.025641,40.4587746 31.025641,39.5815188 C31.025641,38.7042629 30.3177151,37.9931064 29.4444444,37.9931064 L24.7008547,37.9931064 L24.7008547,22.1089828 L29.4444444,22.1089828 C30.3177151,22.1089828 31.025641,21.3978263 31.025641,20.5205705 C31.025641,19.6433146 30.3177151,18.9321581 29.4444444,18.9321581 L24.7008547,18.9321581 L24.7008547,17.3437458 C24.7008547,16.4664899 25.4087806,15.7553334 26.2820513,15.7553334 L57.9059829,15.7553334 C58.7792536,15.7553334 59.4871795,16.4664899 59.4871795,17.3437458 L59.4871795,18.9321581 L50,18.9321581 C49.1267293,18.9321581 48.4188034,19.6433146 48.4188034,20.5205705 C48.4188034,21.3978263 49.1267293,22.1089828 50,22.1089828 L59.4871795,22.1089828 L59.4871795,37.9931064 L50,37.9931064 C49.1267293,37.9931064 48.4188034,38.7042629 48.4188034,39.5815188 C48.4188034,40.4587746 49.1267293,41.1699311 50,41.1699311 L59.4871795,41.1699311 L59.4871795,42.7583435 C59.4871795,43.6355994 58.7792536,44.3467559 57.9059829,44.3467559 Z" id="Shape-path" fill="#CAF5DE"></path>
                    <path d="M51.5811966,30.0510446 C51.5793769,28.8218632 50.9231268,27.6875742 49.8608547,27.0775367 L39.6305128,21.0304508 C38.4945385,20.3605128 37.0886465,20.3520306 35.9447436,21.0082131 C34.8610745,21.6122307 34.1886064,22.7590015 34.1880342,24.0039588 L34.1880342,36.0981305 C34.1886064,37.3430877 34.8610745,38.4898586 35.9447436,39.0938762 C37.0887325,39.749729 38.4944485,39.7412476 39.6305128,39.0716384 L49.8608547,33.0245526 C50.9231268,32.414515 51.5793769,31.2802261 51.5811966,30.0510446 L51.5811966,30.0510446 Z M48.2606838,30.2861297 L38.0319231,36.3332155 C37.8730131,36.4257607 37.6769441,36.4257607 37.5180342,36.3332155 C37.4255275,36.289274 37.3647122,36.1976348 37.3599145,36.0949537 L37.3599145,24.0039588 C37.3647122,23.9012776 37.4255275,23.8096385 37.5180342,23.7656969 C37.5965316,23.7221234 37.6845125,23.6986639 37.774188,23.6973952 C37.8639271,23.6975955 37.9519234,23.7223029 38.0287607,23.7688738 L48.2606838,29.8159596 C48.3629625,29.8499605 48.4320243,29.9459963 48.4320243,30.0542215 C48.4320243,30.1624467 48.3629625,30.2584824 48.2606838,30.2924833 L48.2606838,30.2861297 Z" id="Shape" fill="#272837"></path>
                </g>
            </g>
        </g>
    </g>
</svg>