<?xml version="1.0" encoding="UTF-8"?>
<svg width="86px" height="86px" viewBox="0 0 86 86" version="1.1" xmlns="http://www.w3.org/2000/svg" xmlns:xlink="http://www.w3.org/1999/xlink">
    <!-- Generator: sketchtool 63.1 (101010) - https://sketch.com -->
    <title>53CB2F45-6A3A-4C61-8F65-6BD6D170B2F6</title>
    <desc>Created with sketchtool.</desc>
    <g id="Page-1" stroke="none" stroke-width="1" fill="none" fill-rule="evenodd">
        <g id="Recording-screen---no-clips" transform="translate(-1104.000000, -556.000000)" fill="#D9DAEA" fill-rule="nonzero">
            <path d="M1147,556 C1170.74824,556 1190,575.251756 1190,599 C1190,622.748244 1170.74824,642 1147,642 C1123.25176,642 1104,622.748244 1104,599 C1104,575.251756 1123.25176,556 1147,556 Z M1147,558.915254 C1124.86181,558.915254 1106.91525,576.861806 1106.91525,599 C1106.91525,621.138194 1124.86181,639.084746 1147,639.084746 C1169.13819,639.084746 1187.08475,621.138194 1187.08475,599 C1187.08475,576.861806 1169.13819,558.915254 1147,558.915254 Z M1145.50018,582.449407 C1146.45423,581.197364 1148.12187,580.71497 1149.61036,581.165624 C1151.23943,581.658839 1152.37008,583.189444 1152.15666,584.926316 L1152.15666,584.926316 L1151.0239,592.323422 L1157.31156,592.323489 C1158.4902,592.323519 1159.62414,592.859897 1160.32699,593.811478 L1160.32699,593.811478 L1160.42914,593.957314 C1161.20875,595.131978 1161.18777,596.635477 1160.3789,597.789222 L1160.3789,597.789222 L1148.77018,615.449257 L1148.72127,615.515144 C1147.78762,616.77293 1146.13763,617.275489 1144.64927,616.853425 C1143.02809,616.393697 1141.87175,614.909125 1142.02612,613.183906 L1142.02612,613.183906 L1142.0354,613.095852 L1142.93411,605.678019 L1136.68811,605.678288 C1135.50234,605.678165 1134.36219,605.135187 1133.66058,604.173408 L1133.66058,604.173408 L1133.55867,604.026015 C1132.78194,602.8394 1132.81873,601.326592 1133.64657,600.176772 L1133.64657,600.176772 L1145.44608,582.520404 Z M1148.73806,583.916609 C1148.41337,583.818307 1148.0521,583.922812 1147.86421,584.169386 L1147.86421,584.169386 L1136.05716,601.833901 L1136.01075,601.909271 C1135.91722,602.089705 1135.92698,602.299112 1136.04159,602.47419 C1136.17256,602.67428 1136.41999,602.798252 1136.68842,602.79828 L1136.68842,602.79828 L1146.25224,602.79828 L1144.96229,613.434773 L1144.96093,613.513594 C1144.97528,613.773711 1145.17541,614.003789 1145.47073,614.087536 C1145.79559,614.179658 1146.15217,614.07105 1146.33543,613.824164 L1146.33543,613.824164 L1157.94738,596.161548 L1157.99252,596.086162 C1158.0832,595.905877 1158.07141,595.697861 1157.95627,595.524377 C1157.82468,595.326071 1157.57839,595.203504 1157.31148,595.203498 L1157.31148,595.203498 L1147.60259,595.203498 L1149.23031,584.582985 L1149.23427,584.503736 C1149.22826,584.241785 1149.03323,584.005975 1148.73806,583.916609 Z" id="no-clips"></path>
        </g>
    </g>
</svg>