<?xml version="1.0" encoding="UTF-8"?>
<svg width="204px" height="115px" viewBox="0 0 204 115" version="1.1" xmlns="http://www.w3.org/2000/svg" xmlns:xlink="http://www.w3.org/1999/xlink">
    <!-- Generator: Sketch 63.1 (92452) - https://sketch.com -->
    <title>no-preview</title>
    <desc>Created with Sketch.</desc>
    <g id="Page-1" stroke="none" stroke-width="1" fill="none" fill-rule="evenodd">
        <g id="ipad-recordings" transform="translate(-55.000000, -420.000000)">
            <g id="no-preview" transform="translate(55.000000, 420.000000)">
                <rect id="Rectangle-Copy-16" fill="#F7FAFC" x="0" y="0" width="204" height="115"></rect>
                <path d="M52.0219535,99 L52.0219535,91.488 L54.9139535,91.488 L54.9139535,90.456 L47.8819535,90.456 L47.8819535,91.488 L50.7739535,91.488 L50.7739535,99 L52.0219535,99 Z M57.1459586,99 L57.1459586,95.556 C57.1459586,95.02 57.2999586,94.592 57.6079586,94.272 C57.9159586,93.952 58.3299586,93.792 58.8499586,93.792 C59.2819586,93.792 59.6019586,93.912 59.8099586,94.152 C60.0179586,94.392 60.1219586,94.772 60.1219586,95.292 L60.1219586,95.292 L60.1219586,99 L61.3339586,99 L61.3339586,95.244 C61.3339586,93.62 60.6099586,92.808 59.1619586,92.808 C58.6579586,92.808 58.2119586,92.93 57.8239586,93.174 C57.5814586,93.3265 57.3803649,93.5235313 57.2206774,93.7650938 L57.145,93.89 L57.1459586,90.168 L55.9339586,90.168 L55.9339586,99 L57.1459586,99 Z M65.8075643,99.084 C66.2395643,99.084 66.6635643,99.014 67.0795643,98.874 C67.4955643,98.734 67.8395643,98.544 68.1115643,98.304 L68.1115643,98.304 L67.7395643,97.44 C67.4515643,97.672 67.1475643,97.844 66.8275643,97.956 C66.5075643,98.068 66.1755643,98.124 65.8315643,98.124 C65.1995643,98.124 64.7195643,97.938 64.3915643,97.566 C64.0635643,97.194 63.8995643,96.628 63.8995643,95.868 L63.902,96 L68.2195643,96 L68.2195643,95.796 C68.2195643,95.172 68.1135643,94.638 67.9015643,94.194 C67.6895643,93.75 67.3875643,93.408 66.9955643,93.168 C66.6035643,92.928 66.1355643,92.808 65.5915643,92.808 C65.0235643,92.808 64.5235643,92.94 64.0915643,93.204 C63.6595643,93.468 63.3215643,93.836 63.0775643,94.308 C62.8335643,94.78 62.7115643,95.328 62.7115643,95.952 C62.7115643,96.6 62.8355643,97.16 63.0835643,97.632 C63.3315643,98.104 63.6875643,98.464 64.1515643,98.712 C64.6155643,98.96 65.1675643,99.084 65.8075643,99.084 Z M67.145,95.28 L63.944,95.28 L63.950231,95.238 C64.0065273,94.9157778 64.1097372,94.6398519 64.2598606,94.4102222 L64.3555643,94.278 C64.6595643,93.898 65.0795643,93.708 65.6155643,93.708 C66.1275643,93.708 66.5155643,93.88 66.7795643,94.224 C66.9555643,94.4533333 67.0711199,94.7502222 67.126231,95.1146667 L67.145,95.28 Z M70.6531656,92.952 L69.5011656,92.952 C69.5411656,93.232 69.5671656,93.516 69.5791656,93.804 C69.5911656,94.092 69.5971656,94.376 69.5971656,94.656 L69.5971656,94.656 L69.5971656,99 L70.8091656,99 L70.8091656,95.628 C70.8091656,95.324 70.8671656,95.038 70.9831656,94.77 C71.0991656,94.502 71.2771656,94.286 71.5171656,94.122 C71.7571656,93.958 72.0731656,93.876 72.4651656,93.876 C72.7211656,93.876 72.9571656,93.916 73.1731656,93.996 L73.1731656,93.996 L73.1971656,92.892 C73.1171656,92.868 73.0291656,92.848 72.9331656,92.832 C72.8371656,92.816 72.7331656,92.808 72.6211656,92.808 C72.1571656,92.808 71.7391656,92.944 71.3671656,93.216 C71.0881656,93.42 70.8845406,93.696 70.7562906,94.044 L70.6531656,92.952 Z M76.8643756,99.084 C77.2963756,99.084 77.7203756,99.014 78.1363756,98.874 C78.5523756,98.734 78.8963756,98.544 79.1683756,98.304 L79.1683756,98.304 L78.7963756,97.44 C78.5083756,97.672 78.2043756,97.844 77.8843756,97.956 C77.5643756,98.068 77.2323756,98.124 76.8883756,98.124 C76.2563756,98.124 75.7763756,97.938 75.4483756,97.566 C75.1203756,97.194 74.9563756,96.628 74.9563756,95.868 L74.959,96 L79.2763756,96 L79.2763756,95.796 C79.2763756,95.172 79.1703756,94.638 78.9583756,94.194 C78.7463756,93.75 78.4443756,93.408 78.0523756,93.168 C77.6603756,92.928 77.1923756,92.808 76.6483756,92.808 C76.0803756,92.808 75.5803756,92.94 75.1483756,93.204 C74.7163756,93.468 74.3783756,93.836 74.1343756,94.308 C73.8903756,94.78 73.7683756,95.328 73.7683756,95.952 C73.7683756,96.6 73.8923756,97.16 74.1403756,97.632 C74.3883756,98.104 74.7443756,98.464 75.2083756,98.712 C75.6723756,98.96 76.2243756,99.084 76.8643756,99.084 Z M78.202,95.28 L75.001,95.28 L75.0070423,95.238 C75.0633386,94.9157778 75.1665484,94.6398519 75.3166719,94.4102222 L75.4123756,94.278 C75.7163756,93.898 76.1363756,93.708 76.6723756,93.708 C77.1843756,93.708 77.5723756,93.88 77.8363756,94.224 C78.0123756,94.4533333 78.1279312,94.7502222 78.1830423,95.1146667 L78.202,95.28 Z M85.1755812,91.584 L85.1755812,90.312 L83.7715812,90.312 L83.7715812,91.584 L85.1755812,91.584 Z M85.0675812,99 L85.0675812,92.952 L83.8555812,92.952 L83.8555812,99 L85.0675812,99 Z M88.9579886,99.084 C89.7099886,99.084 90.3039886,98.926 90.7399886,98.61 C91.1759886,98.294 91.3939886,97.868 91.3939886,97.332 C91.3939886,96.892 91.2579886,96.532 90.9859886,96.252 C90.7139886,95.972 90.2859886,95.768 89.7019886,95.64 L89.7019886,95.64 L88.6819886,95.388 C88.3699886,95.316 88.1479886,95.218 88.0159886,95.094 C87.8839886,94.97 87.8179886,94.8 87.8179886,94.584 C87.8179886,94.32 87.9259886,94.114 88.1419886,93.966 C88.3579886,93.818 88.6619886,93.744 89.0539886,93.744 C89.3739886,93.744 89.6879886,93.802 89.9959886,93.918 C90.3039886,94.034 90.6059886,94.208 90.9019886,94.44 L90.9019886,94.44 L91.2739886,93.588 C90.9939886,93.332 90.6619886,93.138 90.2779886,93.006 C89.8939886,92.874 89.4859886,92.808 89.0539886,92.808 C88.5739886,92.808 88.1539886,92.886 87.7939886,93.042 C87.4339886,93.198 87.1539886,93.412 86.9539886,93.684 C86.7539886,93.956 86.6539886,94.272 86.6539886,94.632 C86.6539886,95.056 86.7919886,95.41 87.0679886,95.694 C87.3439886,95.978 87.7459886,96.176 88.2739886,96.288 L88.2739886,96.288 L89.2939886,96.528 C89.6459886,96.616 89.8959886,96.722 90.0439886,96.846 C90.1919886,96.97 90.2659886,97.14 90.2659886,97.356 C90.2659886,97.612 90.1579886,97.81 89.9419886,97.95 C89.7259886,98.09 89.4099886,98.16 88.9939886,98.16 C88.5779886,98.16 88.1919886,98.102 87.8359886,97.986 C87.4799886,97.87 87.1419886,97.688 86.8219886,97.44 L86.8219886,97.44 L86.4499886,98.316 C87.0659886,98.828 87.9019886,99.084 88.9579886,99.084 Z M97.2259945,99 L97.2259945,95.556 C97.2259945,95.02 97.3799945,94.592 97.6879945,94.272 C97.9959945,93.952 98.4099945,93.792 98.9299945,93.792 C99.3619945,93.792 99.6819945,93.912 99.8899945,94.152 C100.097995,94.392 100.201995,94.772 100.201995,95.292 L100.201995,95.292 L100.201995,99 L101.413995,99 L101.413995,95.244 C101.413995,93.62 100.689995,92.808 99.2419945,92.808 C98.7379945,92.808 98.2919945,92.93 97.9039945,93.174 C97.6129945,93.357 97.3816195,93.604125 97.2098695,93.915375 L97.162,94.009 L97.0699945,92.952 L95.9179945,92.952 C95.9579945,93.232 95.9839945,93.516 95.9959945,93.804 C96.0079945,94.092 96.0139945,94.376 96.0139945,94.656 L96.0139945,94.656 L96.0139945,99 L97.2259945,99 Z M105.7436,99.084 C106.3356,99.084 106.8536,98.956 107.2976,98.7 C107.7416,98.444 108.0856,98.082 108.3296,97.614 C108.5736,97.146 108.6956,96.588 108.6956,95.94 C108.6956,95.308 108.5736,94.756 108.3296,94.284 C108.0856,93.812 107.7416,93.448 107.2976,93.192 C106.8536,92.936 106.3356,92.808 105.7436,92.808 C105.1436,92.808 104.6216,92.936 104.1776,93.192 C103.7336,93.448 103.3916,93.812 103.1516,94.284 C102.9116,94.756 102.7916,95.308 102.7916,95.94 C102.7916,96.588 102.9116,97.146 103.1516,97.614 C103.3916,98.082 103.7336,98.444 104.1776,98.7 C104.6216,98.956 105.1436,99.084 105.7436,99.084 Z M105.7436,98.124 C105.1836,98.124 104.7536,97.94 104.4536,97.572 C104.1536,97.204 104.0036,96.66 104.0036,95.94 C104.0036,95.244 104.1576,94.71 104.4656,94.338 C104.7736,93.966 105.1996,93.78 105.7436,93.78 C106.2876,93.78 106.7096,93.966 107.0096,94.338 C107.3096,94.71 107.4596,95.244 107.4596,95.94 C107.4596,96.66 107.3096,97.204 107.0096,97.572 C106.7096,97.94 106.2876,98.124 105.7436,98.124 Z M114.515611,101.592 L114.515,97.937 L114.58808,98.0775938 C114.70183,98.2763438 114.84608,98.4475938 115.02083,98.5913438 L115.157611,98.694 C115.537611,98.954 115.991611,99.084 116.519611,99.084 C117.055611,99.084 117.523611,98.958 117.923611,98.706 C118.323611,98.454 118.637611,98.094 118.865611,97.626 C119.093611,97.158 119.207611,96.608 119.207611,95.976 C119.207611,95.344 119.093611,94.79 118.865611,94.314 C118.637611,93.838 118.321611,93.468 117.917611,93.204 C117.513611,92.94 117.047611,92.808 116.519611,92.808 C115.991611,92.808 115.537611,92.938 115.157611,93.198 C114.872611,93.393 114.656236,93.649875 114.508486,93.968625 L114.459,94.087 L114.359611,92.952 L113.207611,92.952 C113.247611,93.232 113.273611,93.516 113.285611,93.804 C113.297611,94.092 113.303611,94.376 113.303611,94.656 L113.303611,94.656 L113.303611,101.592 L114.515611,101.592 Z M116.243611,98.124 C115.683611,98.124 115.255611,97.936 114.959611,97.56 C114.663611,97.184 114.515611,96.648 114.515611,95.952 C114.515611,95.256 114.663611,94.72 114.959611,94.344 C115.255611,93.968 115.683611,93.78 116.243611,93.78 C116.787611,93.78 117.211611,93.974 117.515611,94.362 C117.819611,94.75 117.971611,95.288 117.971611,95.976 C117.971611,96.664 117.819611,97.194 117.515611,97.566 C117.211611,97.938 116.787611,98.124 116.243611,98.124 Z M121.667618,92.952 L120.515618,92.952 C120.555618,93.232 120.581618,93.516 120.593618,93.804 C120.605618,94.092 120.611618,94.376 120.611618,94.656 L120.611618,94.656 L120.611618,99 L121.823618,99 L121.823618,95.628 C121.823618,95.324 121.881618,95.038 121.997618,94.77 C122.113618,94.502 122.291618,94.286 122.531618,94.122 C122.771618,93.958 123.087618,93.876 123.479618,93.876 C123.735618,93.876 123.971618,93.916 124.187618,93.996 L124.187618,93.996 L124.211618,92.892 C124.131618,92.868 124.043618,92.848 123.947618,92.832 C123.851618,92.816 123.747618,92.808 123.635618,92.808 C123.171618,92.808 122.753618,92.944 122.381618,93.216 C122.102618,93.42 121.898993,93.696 121.770743,94.044 L121.667618,92.952 Z M127.878828,99.084 C128.310828,99.084 128.734828,99.014 129.150828,98.874 C129.566828,98.734 129.910828,98.544 130.182828,98.304 L130.182828,98.304 L129.810828,97.44 C129.522828,97.672 129.218828,97.844 128.898828,97.956 C128.578828,98.068 128.246828,98.124 127.902828,98.124 C127.270828,98.124 126.790828,97.938 126.462828,97.566 C126.134828,97.194 125.970828,96.628 125.970828,95.868 L125.973,96 L130.290828,96 L130.290828,95.796 C130.290828,95.172 130.184828,94.638 129.972828,94.194 C129.760828,93.75 129.458828,93.408 129.066828,93.168 C128.674828,92.928 128.206828,92.808 127.662828,92.808 C127.094828,92.808 126.594828,92.94 126.162828,93.204 C125.730828,93.468 125.392828,93.836 125.148828,94.308 C124.904828,94.78 124.782828,95.328 124.782828,95.952 C124.782828,96.6 124.906828,97.16 125.154828,97.632 C125.402828,98.104 125.758828,98.464 126.222828,98.712 C126.686828,98.96 127.238828,99.084 127.878828,99.084 Z M129.217,95.28 L126.015,95.28 L126.021494,95.238 C126.077791,94.9157778 126.181001,94.6398519 126.331124,94.4102222 L126.426828,94.278 C126.730828,93.898 127.150828,93.708 127.686828,93.708 C128.198828,93.708 128.586828,93.88 128.850828,94.224 C129.026828,94.4533333 129.142383,94.7502222 129.197494,95.1146667 L129.217,95.28 Z M134.548429,99 L137.176429,92.964 L135.964429,92.964 L134.033,97.636 L132.124429,92.964 L130.864429,92.964 L133.456429,99 L134.548429,99 Z M139.427633,91.584 L139.427633,90.312 L138.023633,90.312 L138.023633,91.584 L139.427633,91.584 Z M139.319633,99 L139.319633,92.952 L138.107633,92.952 L138.107633,99 L139.319633,99 Z M143.846041,99.084 C144.278041,99.084 144.702041,99.014 145.118041,98.874 C145.534041,98.734 145.878041,98.544 146.150041,98.304 L146.150041,98.304 L145.778041,97.44 C145.490041,97.672 145.186041,97.844 144.866041,97.956 C144.546041,98.068 144.214041,98.124 143.870041,98.124 C143.238041,98.124 142.758041,97.938 142.430041,97.566 C142.102041,97.194 141.938041,96.628 141.938041,95.868 L141.94,96 L146.258041,96 L146.258041,95.796 C146.258041,95.172 146.152041,94.638 145.940041,94.194 C145.728041,93.75 145.426041,93.408 145.034041,93.168 C144.642041,92.928 144.174041,92.808 143.630041,92.808 C143.062041,92.808 142.562041,92.94 142.130041,93.204 C141.698041,93.468 141.360041,93.836 141.116041,94.308 C140.872041,94.78 140.750041,95.328 140.750041,95.952 C140.750041,96.6 140.874041,97.16 141.122041,97.632 C141.370041,98.104 141.726041,98.464 142.190041,98.712 C142.654041,98.96 143.206041,99.084 143.846041,99.084 Z M145.184,95.28 L141.982,95.28 L141.988707,95.238 C142.045004,94.9157778 142.148213,94.6398519 142.298337,94.4102222 L142.394041,94.278 C142.698041,93.898 143.118041,93.708 143.654041,93.708 C144.166041,93.708 144.554041,93.88 144.818041,94.224 C144.994041,94.4533333 145.109596,94.7502222 145.164707,95.1146667 L145.184,95.28 Z M150.395642,99 L151.999,94.642 L153.623642,99 L154.727642,99 L157.031642,92.952 L155.843642,92.952 L154.181,97.575 L152.519642,92.952 L151.559642,92.952 L149.886,97.573 L148.247642,92.952 L146.987642,92.952 L149.291642,99 L150.395642,99 Z" id="Thereisnopreview" fill="#9CA0C3" fill-rule="nonzero"></path>
                <path d="M67.7114207,62.7590361 C69.6775263,62.7590361 71.2771084,64.3805656 71.2771084,66.373494 C71.2771084,68.3664223 69.6776778,69.9879518 67.7115722,69.9879518 C66.1427483,69.9879518 64.8083238,68.9551618 64.3327069,67.5254757 L64.3327069,67.5254757 L53.1363897,67.5254757 C52.5087995,67.5254757 52,67.0096951 52,66.373494 C52,65.7372929 52.5087995,65.2215123 53.1363897,65.2215123 L53.1363897,65.2215123 L64.3325553,65.2215123 C64.8081723,63.7918262 66.1425968,62.7590361 67.7114207,62.7590361 Z M67.7114207,65.0633068 C66.9985255,65.0633068 66.4185122,65.6512782 66.4185122,66.3738012 C66.4185122,67.0963241 66.9985255,67.6842956 67.7114207,67.6842956 C68.4243158,67.6842956 69.0041776,67.0963241 69.0041776,66.3738012 C69.0041776,65.6512782 68.4243158,65.0633068 67.7114207,65.0633068 Z M150.854105,65.1686747 C151.487097,65.1686747 152,65.7081124 152,66.373494 C152,67.0388755 151.486945,67.5783133 150.854105,67.5783133 L150.854105,67.5783133 L74.8326418,67.5783133 C74.1998023,67.5783133 73.686747,67.0388755 73.686747,66.373494 C73.686747,65.7081124 74.1998023,65.1686747 74.8326418,65.1686747 L74.8326418,65.1686747 Z M119.679413,23 C122.890708,23 125.493976,25.6100772 125.493976,28.8297707 L125.493976,28.8297707 L125.493976,47.2907112 C125.493976,50.5104047 122.890708,53.1204819 119.679413,53.1204819 L119.679413,53.1204819 L86.7302252,53.1204819 C83.518931,53.1204819 80.9156627,50.5104047 80.9156627,47.2907112 L80.9156627,47.2907112 L80.9156627,28.8297707 C80.9156627,25.6100772 83.518931,23 86.7302252,23 L86.7302252,23 Z M119.679413,24.9432569 L86.7302252,24.9432569 C84.5893624,24.9432569 82.8538502,26.6833084 82.8538502,28.8297707 L82.8538502,28.8297707 L82.8538502,47.2907112 C82.8538502,49.4371735 84.5893624,51.177225 86.7302252,51.177225 L86.7302252,51.177225 L119.679413,51.177225 C121.820276,51.177225 123.555788,49.4371735 123.555788,47.2907112 L123.555788,47.2907112 L123.555788,28.8297707 C123.555788,26.6833084 121.820276,24.9432569 119.679413,24.9432569 L119.679413,24.9432569 Z M99.7270328,32.0361446 C100.071209,32.0361446 100.409215,32.125869 100.706508,32.2961484 L100.706508,32.2961484 L109.468993,37.3150138 C110.396335,37.8461646 110.709567,39.0148894 110.168618,39.9254337 C109.999657,40.2098355 109.758641,40.4464853 109.468993,40.6123863 L109.468993,40.6123863 L100.706508,45.6312517 C99.7791665,46.1624025 98.5888819,45.8548434 98.0479328,44.9442991 C97.8745122,44.6523915 97.7831325,44.3205079 97.7831325,43.9825654 L97.7831325,43.9825654 L97.7831325,33.9448347 C97.7831325,32.8906943 98.6534463,32.0361446 99.7270328,32.0361446 Z M99.7270328,33.9448347 L99.7270328,43.9825654 L108.489518,38.9637001 L99.7270328,33.9448347 Z" id="only-clips-copy" fill="#D5D9FB" fill-rule="nonzero"></path>
            </g>
        </g>
    </g>
</svg>