<?xml version="1.0" encoding="UTF-8"?>
<svg width="200px" height="134px" viewBox="0 0 200 134" version="1.1" xmlns="http://www.w3.org/2000/svg" xmlns:xlink="http://www.w3.org/1999/xlink">
    <!-- Generator: sketchtool 63.1 (101010) - https://sketch.com -->
    <title>5EE6AA18-8ED6-4170-96AD-FF3F7D7D97A0</title>
    <desc>Created with sketchtool.</desc>
    <g id="Page-1" stroke="none" stroke-width="1" fill="none" fill-rule="evenodd">
        <g id="widget-zentry-no-events" transform="translate(-50.000000, -257.000000)" fill-rule="nonzero">
            <g id="calendar-illustration" transform="translate(50.000000, 257.000000)">
                <path d="M12.1677419,109.819355 C12.1677419,109.819355 -12.2064516,83.6516129 8.03870968,55.3290323 C26.0129032,30.1935484 46.9548387,31.9096774 62.3225806,42.116129 C68.8645161,46.4516129 87.7419355,42.6451613 103.793548,17.0709677 C125.729032,-17.7677419 201.625806,3.34193548 187.780645,57.0709677 C181.083871,83.0322581 208.167742,83.9870968 194.374194,109.974194 C167.225806,147.883871 35.2129032,133.870968 12.1677419,109.819355 Z" id="Path" fill="#ECF6FC"></path>
                <path d="M52.3096774,65.1483871 C52.3096774,65.1483871 37.5096774,44.0903226 31.7290323,46.8129032 C25.9483871,49.5354839 52.3096774,65.1483871 52.3096774,65.1483871 Z" id="Path" fill="#C1D2EC"></path>
                <path d="M51.3677419,59.4967742 C51.3677419,59.4967742 49.1096774,43.6516129 45.5483871,44.2709677 C41.9870968,44.8903226 51.3677419,59.4967742 51.3677419,59.4967742 Z" id="Path" fill="#C1D2EC"></path>
                <path d="M38.8645161,108.864516 C38.8645161,108.864516 40.283871,101.819355 34.7612903,100.929032 C32.6982901,100.862048 30.6506455,101.305261 28.8,102.219355 C28.8,102.219355 35.0709677,105.806452 34.3225806,106.954839 C33.5741935,108.103226 27.6387097,102.425806 27.6387097,102.425806 C27.6387097,102.425806 20.916129,105.367742 19.4193548,107.496774 C19.4193548,107.496774 27.3548387,108.903226 26.3612903,109.819355 C25.3677419,110.735484 17.0322581,109.677419 17.0322581,109.677419 C17.0322581,109.677419 11.6129032,113.948387 14,117.419355 C16.3870968,120.890323 19.0064516,120.83871 19.8451613,120.245161 C20.683871,119.651613 24.8258065,114.696774 25.3548387,115.367742 C25.883871,116.03871 24.0645161,120.219355 21.9096774,121.56129 C21.9096774,121.56129 28.6709677,123.845161 30.6967742,120.954839 C32.7225806,118.064516 31.7935484,115.793548 33.083871,114.077419 C34.3741935,112.36129 35.8580645,111.496774 35.5870968,112.696774 C35.316129,113.896774 32.6322581,116.43871 32.6193548,118.748387 C32.6064516,121.058065 32.3741935,122.735484 35.0064516,120.696774 C37.6387097,118.658065 41.1483871,113.935484 40,111.419355 L38.8645161,108.864516 Z" id="Path" fill="#98B2DD"></path>
                <path d="M16.9677419,115.870968 C16.9677419,115.870968 32.7354839,106.245161 38.9032258,108.864516 C40.5621931,110.215511 42.523335,111.145172 44.6193548,111.574194 L45.5741935,112.387097 C45.5741935,112.387097 41.0967742,110.967742 40,111.393548 C40,111.393548 38.3741935,104.812903 16.9677419,115.870968 Z" id="Path" fill="#4756A5"></path>
                <path d="M44.5806452,111.574194 C47.750268,112.115656 50.5535037,113.947103 52.3225806,116.632258 L51.7290323,117.045161 C51.7290323,117.045161 47.9870968,112.929032 44.9548387,112.206452 C41.9225806,111.483871 44.5806452,111.574194 44.5806452,111.574194 Z" id="Path" fill="#4756A5"></path>
                <path d="M43.6903226,88.2967742 C43.6903226,88.2967742 55.1354839,81.8451613 49.7935484,73.1870968 C49.7935484,73.1870968 45.5225806,67.8451613 40.9419355,66.4774194 C40.9419355,66.4774194 43.3806452,79.3806452 40.9419355,79.7548387 C38.5032258,80.1290323 39.2645161,65.0967742 39.2645161,65.0967742 C39.2645161,65.0967742 27.2,59.3032258 22.4903226,59.7548387 C22.4903226,59.7548387 29.9612903,72.4258065 27.5225806,72.116129 C25.083871,71.8064516 16.683871,58.9935484 16.683871,58.9935484 C16.683871,58.9935484 4.30967742,56.7741935 2.33548387,64.0387097 C0.361290323,71.3032258 3.5483871,75.0193548 5.38064516,75.483871 C7.21290323,75.9483871 18.9677419,75.7806452 18.6580645,77.316129 C18.3483871,78.8516129 10.4129032,81.2774194 5.98709677,79.8967742 C5.98709677,79.8967742 10.8774194,91.9483871 17.2903226,91.3419355 C23.7032258,90.7354839 25.6774194,86.7741935 29.6774194,86.4516129 C33.6774194,86.1290323 36.5419355,87.2129032 34.5548387,88.283871 C32.5677419,89.3548387 25.8580645,88.6322581 22.6580645,91.3548387 C19.4580645,94.0774194 16.8516129,95.7677419 22.8,96.9806452 C28.7483871,98.1935484 39.4064516,97.4580645 41.5483871,92.9032258 L43.6903226,88.2967742 Z" id="Path" fill="#C1D2EC"></path>
                <path d="M7.97419355,66.3225806 C7.97419355,66.3225806 40.0258065,76.6451613 43.6903226,88.2580645 C43.7975244,92.1604108 44.8419642,95.9796969 46.7354839,99.3935484 L46.7354839,101.690323 C46.7354839,101.690323 43.3806452,93.9483871 41.5741935,92.8387097 C41.5483871,92.9032258 48.7225806,82.8 7.97419355,66.3225806 Z" id="Path" fill="#4756A5"></path>
                <path d="M46.7354839,99.4322581 C49.7233231,104.464045 50.4940582,110.508476 48.8645161,116.129032 L47.5741935,115.780645 C47.5741935,115.780645 48.8645161,105.729032 46.283871,100.658065 C43.7032258,95.5870968 46.7354839,99.4322581 46.7354839,99.4322581 Z" id="Path" fill="#4756A5"></path>
                <path d="M55.316129,34.6709677 L38.1935484,123.2 C38.0278463,124.054989 38.252955,124.939291 38.8072913,125.610987 C39.3616276,126.282683 40.1871662,126.670968 41.0580645,126.670968 L50.0903226,126.670968 L55.316129,34.6709677 Z" id="Path" fill="#F05A3A"></path>
                <path d="M169.148387,60.0129032 C169.148387,60.0129032 161.406452,55.0967742 165.509677,49.2645161 C165.509677,49.2645161 168.683871,45.7290323 171.96129,44.9548387 C171.96129,44.9548387 169.754839,53.8709677 171.432258,54.1806452 C173.109677,54.4903226 173.187097,44.0645161 173.187097,44.0645161 C173.187097,44.0645161 181.806452,40.516129 185.070968,41.0193548 C185.070968,41.0193548 179.367742,49.5225806 181.083871,49.4193548 C182.8,49.316129 189.135484,40.7225806 189.135484,40.7225806 C189.135484,40.7225806 197.819355,39.6258065 198.903226,44.8 C199.987097,49.9741935 197.612903,52.3870968 196.322581,52.6322581 C195.032258,52.8774194 186.864516,52.2967742 187.006452,53.3806452 C187.148387,54.4645161 192.580645,56.4645161 195.716129,55.6903226 C195.716129,55.6903226 191.845161,63.8709677 187.406452,63.1870968 C182.967742,62.5032258 181.754839,59.6774194 179.006452,59.316129 C176.258065,58.9548387 174.206452,59.5741935 175.535484,60.4 C176.864516,61.2258065 181.574194,60.9806452 183.690323,62.9806452 C185.806452,64.9806452 187.56129,66.2709677 183.367742,66.8516129 C179.174194,67.4322581 171.754839,66.5032258 170.464516,63.2387097 L169.148387,60.0129032 Z" id="Path" fill="#98B2DD"></path>
                <path d="M194.83871,46.1548387 C194.83871,46.1548387 172.141935,52.1032258 169.135484,60.0129032 C168.898494,62.7248488 168.013444,65.3401705 166.554839,67.6387097 L166.451613,69.2258065 C166.451613,69.2258065 169.096774,63.9483871 170.412903,63.2903226 C170.451613,63.2903226 165.858065,56 194.83871,46.1548387 Z" id="Path" fill="#98B2DD"></path>
                <path d="M166.580645,67.6387097 C164.309177,71.0057002 163.533746,75.163132 164.43871,79.1225806 L165.329032,78.9419355 C165.329032,78.9419355 164.877419,71.8967742 166.877419,68.4774194 C168.877419,65.0580645 166.580645,67.6387097 166.580645,67.6387097 Z" id="Path" fill="#98B2DD"></path>
                <path d="M148.387097,38.7096774 C148.387097,38.7096774 136.541935,36.1290323 138.941935,26.9935484 C138.941935,26.9935484 141.277419,21.1225806 144.967742,18.683871 C144.967742,18.683871 146.258065,30.8129032 148.516129,30.4258065 C150.774194,30.0387097 146.077419,17.0193548 146.077419,17.0193548 C146.077419,17.0193548 155.109677,8.67096774 159.483871,7.80645161 C159.483871,7.80645161 156.270968,21.0064516 158.348387,20.0774194 C160.425806,19.1483871 164.425806,5.5483871 164.425806,5.5483871 C164.425806,5.5483871 174.748387,0.219354839 178.464516,6.15483871 C182.180645,12.0903226 180.322581,16.1935484 178.825806,17.0967742 C177.329032,18 166.903226,20.9677419 167.587097,22.2580645 C168.270968,23.5483871 175.935484,23.5483871 179.470968,21.1612903 C179.470968,21.1612903 178.387097,33.1225806 172.567742,34.2967742 C166.748387,35.4709677 163.909677,32.5032258 160.322581,33.2903226 C156.735484,34.0774194 154.464516,35.8709677 156.451613,36.2193548 C158.43871,36.5677419 164.193548,34.1935484 167.793548,35.7548387 C171.393548,37.316129 174.103226,38.0903226 169.16129,40.7612903 C164.219355,43.4322581 154.580645,45.6258065 151.470968,42.1548387 L148.387097,38.7096774 Z" id="Path" fill="#FFFFFF"></path>
                <path d="M174.090323,9.69032258 C174.090323,9.69032258 148.541935,27.4580645 148.387097,38.7096774 C149.33471,42.1926371 149.432063,45.8522301 148.670968,49.3806452 L149.277419,51.4064516 C149.277419,51.4064516 150.167742,43.6645161 151.496774,42.1935484 C151.522581,42.1677419 142.477419,35.1870968 174.090323,9.69032258 Z" id="Path" fill="#FFFFFF"></path>
                <path d="M148.696774,49.3548387 C147.409723,54.5851552 148.3438,60.1148926 151.277419,64.6322581 L152.309677,63.9870968 C152.309677,63.9870968 148.516129,55.483871 149.445161,50.3225806 C150.374194,45.1612903 148.696774,49.3548387 148.696774,49.3548387 Z" id="Path" fill="#FFFFFF"></path>
                <path d="M55.483871,34.3096774 L44.1677419,121.290323 C43.9895559,122.663463 44.4114002,124.046826 45.3254726,125.086892 C46.239545,126.126958 47.5572818,126.722581 48.9419355,126.722581 L65.6,126.722581 L56.2064516,34 L55.483871,34.3096774 Z" id="Path" fill="#4163AE"></path>
                <path d="M55.483871,34.3096774 L50.4387097,120.683871 C50.3461709,122.240004 50.9004985,123.765255 51.9705767,124.898854 C53.0406548,126.032452 54.5314429,126.673717 56.0903226,126.670977 L80.9290323,126.670977 L55.483871,34.3096774 Z" id="Path" fill="#7089C5"></path>
                <path d="M55.3290323,35.0193548 L57.8064516,120.683871 C57.7139128,122.240004 58.2682404,123.765255 59.3383186,124.898854 C60.4083968,126.032452 61.8991848,126.673717 63.4580645,126.670977 L88.283871,126.670977 L55.3290323,35.0193548 Z" id="Path" fill="#4756A5"></path>
                <path d="M174.193548,126.671358 L76.3096774,126.671358 C73.883281,126.678651 71.7932564,124.962232 71.3290323,122.580645 L56.4387097,41.0451613 C56.1124644,39.2865909 56.5860366,37.4740627 57.73081,36.0998358 C58.8755833,34.7256089 60.5727167,33.9323448 62.3612903,33.9354746 L159.135484,33.9354746 C161.580165,33.9388018 163.674471,35.6858651 164.116129,38.0903226 L179.225806,120.670968 C179.508518,122.161893 179.106901,123.700977 178.131742,124.863667 C177.156582,126.026357 175.710924,126.689793 174.193548,126.671358 L174.193548,126.671358 Z" id="Path" fill="#FFFFFF"></path>
                <path d="M58.3741935,51.6129032 L166.645161,51.6129032 L163.870968,36.2451613 C163.628192,34.9099795 162.466748,33.9384918 161.109677,33.9354802 L56.2322581,33.9354802 C55.959466,33.9347141 55.7005211,34.0555522 55.5258832,34.2651177 C55.3512453,34.4746832 55.2790831,34.7511736 55.3290323,35.0193548 L58.3741935,51.6129032 Z" id="Path" fill="#F05A3A"></path>
                <path d="M60.9032258,29.3032258 C58.309269,29.3032258 56.2064516,31.4060432 56.2064516,34 L57.1096774,34 C57.1096774,32.6446957 57.8327236,31.3923428 59.0064516,30.7146906 C60.1801795,30.0370384 61.6262721,30.0370384 62.8,30.7146906 C63.973728,31.3923428 64.6967743,32.6446957 64.6967742,34 C64.6997525,34.408004 64.6343302,34.8136222 64.5032258,35.2 C64.1201482,36.3134154 63.2511213,37.1919398 62.1419355,37.5870968 C61.8129846,37.7014552 61.4701055,37.770899 61.1225806,37.7935484 L61.1225806,38.7096774 C63.6246891,38.5334849 65.5467901,36.4223255 65.4881525,33.9147066 C65.4295149,31.4070878 63.410835,29.3880787 60.9032258,29.3290323 L60.9032258,29.3032258 Z" id="Path" fill="#4163AE"></path>
                <path d="M62.3612903,38.2064516 C62.3738292,38.296339 62.3738292,38.3875319 62.3612903,38.4774194 C62.2228475,38.9655186 61.746524,39.2775073 61.243764,39.2093914 C60.7410041,39.1412756 60.3648671,38.7137923 60.3612903,38.2064516 C60.3612903,37.6434775 60.817671,37.1870915 61.3806452,37.1870915 C61.6956432,37.1860732 61.9924652,37.3344842 62.1806452,37.5870968 C62.3108961,37.7663363 62.3747588,37.985294 62.3612903,38.2064516 L62.3612903,38.2064516 Z" id="Path" fill="#4163AE"></path>
                <path d="M77.7290323,29.3032258 C75.1401159,29.3103382 73.0451613,31.4110739 73.0451613,34 L73.9354839,34 C73.9354839,31.9048811 75.6339133,30.2064516 77.7290323,30.2064516 C79.8241512,30.2064516 81.5225806,31.9048811 81.5225806,34 C81.5255589,34.408004 81.4601366,34.8136222 81.3290323,35.2 C80.9487014,36.3106313 80.0849105,37.1886605 78.9806452,37.5870968 C78.6472761,37.701531 78.3001255,37.7709611 77.9483871,37.7935484 L77.9483871,38.7096774 C80.4504956,38.5334849 82.3725965,36.4223255 82.3139589,33.9147066 C82.2553214,31.4070878 80.2366415,29.3880787 77.7290323,29.3290323 L77.7290323,29.3032258 Z" id="Path" fill="#4163AE"></path>
                <path d="M79.1870968,38.2064516 C79.1996357,38.296339 79.1996357,38.3875319 79.1870968,38.4774194 C79.1157738,39.0092786 78.6443217,39.3947677 78.108893,39.3590269 C77.5734644,39.323286 77.1574309,38.8785557 77.1574309,38.3419355 C77.1574309,37.8053153 77.5734644,37.3605849 78.108893,37.3248441 C78.6443217,37.2891033 79.1157738,37.6745923 79.1870968,38.2064516 L79.1870968,38.2064516 Z" id="Path" fill="#4163AE"></path>
                <path d="M94.5677419,29.3032258 C91.9737852,29.3032258 89.8709677,31.4060432 89.8709677,34 L90.7741935,34 C90.7741937,31.9048812 92.4726231,30.2064518 94.5677419,30.2064518 C96.6628608,30.2064518 98.3612902,31.9048812 98.3612903,34 C98.3578799,34.4074904 98.2926201,34.8121012 98.1677419,35.2 C97.7846643,36.3134154 96.9156375,37.1919398 95.8064516,37.5870968 C95.4733719,37.7025979 95.1260752,37.7720572 94.7741935,37.7935484 L94.7741935,38.7096774 C95.1817119,38.6956645 95.5854227,38.6262089 95.9741935,38.5032258 C98.1806547,37.8041738 99.548921,35.601888 99.198186,33.314066 C98.847451,31.0262441 96.8822849,29.3349909 94.5677419,29.3290323 L94.5677419,29.3032258 Z" id="Path" fill="#4163AE"></path>
                <path d="M96.0129032,38.2064516 C96.0254421,38.296339 96.0254421,38.3875319 96.0129032,38.4774194 C95.9415803,39.0092786 95.4701281,39.3947677 94.9346995,39.3590269 C94.3992708,39.323286 93.9832373,38.8785557 93.9832373,38.3419355 C93.9832373,37.8053153 94.3992708,37.3605849 94.9346995,37.3248441 C95.4701281,37.2891033 95.9415803,37.6745923 96.0129032,38.2064516 L96.0129032,38.2064516 Z" id="Path" fill="#4163AE"></path>
                <path d="M111.393548,29.3032258 C108.799592,29.3032258 106.696774,31.4060432 106.696774,34 L107.6,34 C107.6,32.6446956 108.323046,31.3923427 109.496774,30.7146905 C110.670502,30.0370383 112.116595,30.0370383 113.290323,30.7146905 C114.464051,31.3923427 115.187097,32.6446956 115.187097,34 C115.190075,34.408004 115.124653,34.8136222 114.993548,35.2 C114.610471,36.3134154 113.741444,37.1919398 112.632258,37.5870968 C112.303307,37.7014552 111.960428,37.770899 111.612903,37.7935484 L111.612903,38.7096774 C114.115012,38.5334849 116.037113,36.4223255 115.978475,33.9147066 C115.919837,31.4070878 113.901158,29.3880787 111.393548,29.3290323 L111.393548,29.3032258 Z" id="Path" fill="#4163AE"></path>
                <path d="M112.83871,38.2064516 C112.845083,38.2966618 112.845083,38.3872092 112.83871,38.4774194 C112.713225,38.9162463 112.31445,39.2205745 111.858065,39.2258065 C111.29509,39.2258065 110.83871,38.7694257 110.83871,38.2064516 C110.83871,37.6434775 111.29509,37.1870915 111.858065,37.1870915 C112.173063,37.1860732 112.469885,37.3344842 112.658065,37.5870968 C112.783747,37.7685455 112.847139,37.985887 112.83871,38.2064516 L112.83871,38.2064516 Z" id="Path" fill="#4163AE"></path>
                <path d="M128.219355,29.3032258 C125.62834,29.3103148 123.52967,31.4089853 123.522581,34 L124.425806,34 C124.425806,31.9048811 126.124236,30.2064516 128.219355,30.2064516 C130.314474,30.2064516 132.012903,31.9048811 132.012903,34 C132.015881,34.408004 131.950459,34.8136222 131.819355,35.2 C131.436277,36.3134154 130.56725,37.1919398 129.458065,37.5870968 C129.129457,37.7027059 128.786405,37.7721849 128.43871,37.7935484 L128.43871,38.7096774 C130.940818,38.5334849 132.862919,36.4223255 132.804282,33.9147066 C132.745644,31.4070878 130.726964,29.3880787 128.219355,29.3290323 L128.219355,29.3032258 Z" id="Path" fill="#4163AE"></path>
                <path d="M129.677419,38.2064516 C129.689958,38.296339 129.689958,38.3875319 129.677419,38.4774194 C129.538977,38.9655186 129.062653,39.2775073 128.559893,39.2093914 C128.057133,39.1412756 127.680996,38.7137923 127.677419,38.2064516 C127.677419,37.6434775 128.1338,37.1870915 128.696774,37.1870915 C129.011772,37.1860732 129.308594,37.3344842 129.496774,37.5870968 C129.627025,37.7663363 129.690888,37.985294 129.677419,38.2064516 L129.677419,38.2064516 Z" id="Path" fill="#4163AE"></path>
                <path d="M145.058065,29.3032258 C142.464108,29.3032258 140.36129,31.4060432 140.36129,34 L141.264516,34 C141.264516,31.9048811 142.962946,30.2064516 145.058065,30.2064516 C147.153183,30.2064516 148.851613,31.9048811 148.851613,34 C148.850197,34.4087142 148.780417,34.8143121 148.645161,35.2 C148.280154,36.3200234 147.410681,37.203829 146.296774,37.5870968 C145.963694,37.7025979 145.616398,37.7720572 145.264516,37.7935484 L145.264516,38.7096774 C145.672035,38.6956645 146.075745,38.6262089 146.464516,38.5032258 C147.997911,38.0175126 149.176105,36.7808954 149.587097,35.2258065 C149.690952,34.8342964 149.743009,34.4308558 149.742007,34.0258065 C149.748797,32.7779122 149.258761,31.5785884 148.379992,30.6925568 C147.501223,29.8065251 146.305973,29.3066353 145.058065,29.3032258 L145.058065,29.3032258 Z" id="Path" fill="#4163AE"></path>
                <path d="M146.503226,38.2064516 C146.515765,38.296339 146.515765,38.3875319 146.503226,38.4774194 C146.431903,39.0092786 145.960451,39.3947677 145.425022,39.3590269 C144.889593,39.323286 144.47356,38.8785557 144.47356,38.3419355 C144.47356,37.8053153 144.889593,37.3605849 145.425022,37.3248441 C145.960451,37.2891033 146.431903,37.6745923 146.503226,38.2064516 L146.503226,38.2064516 Z" id="Path" fill="#4163AE"></path>
                <path d="M161.883871,29.3032258 C159.289914,29.3032258 157.187097,31.4060432 157.187097,34 L158.090323,34 C158.090323,31.9048811 159.788752,30.2064516 161.883871,30.2064516 C163.97899,30.2064516 165.677419,31.9048811 165.677419,34 C165.680398,34.408004 165.614975,34.8136222 165.483871,35.2 C165.100793,36.3134154 164.231767,37.1919398 163.122581,37.5870968 C162.79363,37.7014552 162.450751,37.770899 162.103226,37.7935484 L162.103226,38.7096774 C164.154334,38.6276976 165.909993,37.2126886 166.425806,35.2258065 C166.523367,34.8330866 166.575323,34.4304279 166.580663,34.0258065 C166.584072,32.7767209 166.091159,31.5774339 165.210342,30.6917772 C164.329525,29.8061205 163.132957,29.3066433 161.883871,29.3032258 Z" id="Path" fill="#4163AE"></path>
                <path d="M163.329032,38.2064516 C163.335405,38.2966618 163.335405,38.3872092 163.329032,38.4774194 C163.203548,38.9162463 162.804773,39.2205745 162.348387,39.2258065 C161.785413,39.2258065 161.329032,38.7694257 161.329032,38.2064516 C161.329032,37.6434775 161.785413,37.1870915 162.348387,37.1870915 C162.663385,37.1860732 162.960207,37.3344842 163.148387,37.5870968 C163.27407,37.7685455 163.337461,37.985887 163.329032,38.2064516 L163.329032,38.2064516 Z" id="Path" fill="#4163AE"></path>
                <path d="M120.980645,80.5290323 L115.509677,80.5290323 C114.845239,80.5028999 114.28265,80.0305376 114.141935,79.3806452 L113.083871,73.8967742 C113.015353,73.615293 113.082064,73.3179606 113.26427,73.0927334 C113.446477,72.8675062 113.723319,72.7401678 114.012903,72.7483871 L119.483871,72.7483871 C120.149777,72.7776456 120.714461,73.2473356 120.864516,73.8967742 L121.909677,79.3806452 C121.983953,79.6627327 121.919453,79.9633307 121.735988,80.1901141 C121.552523,80.4168976 121.272025,80.5427555 120.980645,80.5290323 Z" id="Path" fill="#7089C5"></path>
                <path d="M134.8,80.5290323 L129.329032,80.5290323 C128.663126,80.4997737 128.098443,80.0300838 127.948387,79.3806452 L126.890323,73.8967742 C126.821804,73.615293 126.888516,73.3179606 127.070722,73.0927334 C127.252928,72.8675062 127.529771,72.7401678 127.819355,72.7483871 L133.303226,72.7483871 C133.965942,72.7789518 134.526185,73.2493448 134.670968,73.8967742 L135.729032,79.3806452 C135.79755,79.6621264 135.730839,79.9594588 135.548633,80.184686 C135.366427,80.4099131 135.089584,80.5372516 134.8,80.5290323 L134.8,80.5290323 Z" id="Path" fill="#7089C5"></path>
                <path d="M148.606452,80.5290323 L143.135484,80.5290323 C142.471046,80.5028999 141.908457,80.0305376 141.767742,79.3806452 L140.709677,73.8967742 C140.635402,73.6146867 140.699902,73.3140887 140.883367,73.0873052 C141.066832,72.8605218 141.34733,72.7346638 141.63871,72.7483871 L147.096774,72.7483871 C147.761212,72.7745194 148.323801,73.2468818 148.464516,73.8967742 L149.522581,79.3806452 C149.596082,79.6604618 149.533092,79.9585556 149.352672,80.1847159 C149.172252,80.4108762 148.895605,80.5385249 148.606452,80.5290323 Z" id="Path" fill="#4163AE"></path>
                <path d="M79.5483871,80.5290323 L74.0774194,80.5290323 C73.4129813,80.5028999 72.8503924,80.0305376 72.7096774,79.3806452 L71.6516129,73.8967742 C71.5773372,73.6146867 71.6418372,73.3140887 71.8253025,73.0873052 C72.0087677,72.8605218 72.2892658,72.7346638 72.5806452,72.7483871 L78.0516129,72.7483871 C78.716051,72.7745194 79.2786398,73.2468818 79.4193548,73.8967742 L80.4774194,79.3806452 C80.551695,79.6627327 80.4871951,79.9633307 80.3037298,80.1901141 C80.1202645,80.4168976 79.8397664,80.5427555 79.5483871,80.5290323 Z" id="Path" fill="#7089C5"></path>
                <path d="M73.5483871,64.0903226 L71.2,64.0903226 C70.9139774,64.0800624 70.6705181,63.8789439 70.6064516,63.6 L70.1548387,61.2516129 C70.1220588,61.1291877 70.1492367,60.9984711 70.2280985,60.8992578 C70.3069604,60.8000445 70.4281743,60.7440746 70.5548387,60.7483871 L72.9032258,60.7483871 C73.1913548,60.7645044 73.4337372,60.9700025 73.4967742,61.2516129 L73.9483871,63.6 C73.9763856,63.7206021 73.9469586,63.8473719 73.8686954,63.9433075 C73.7904321,64.0392431 73.672155,64.0935299 73.5483871,64.0903226 L73.5483871,64.0903226 Z" id="Path" fill="#F37269"></path>
                <path d="M93.3677419,80.5290323 L87.883871,80.5290323 C87.2211549,80.4984676 86.6609115,80.0280745 86.516129,79.3806452 L85.4580645,73.8967742 C85.3895464,73.615293 85.4562577,73.3179606 85.6384639,73.0927334 C85.8206702,72.8675062 86.0975129,72.7401678 86.3870968,72.7483871 L91.8580645,72.7483871 C92.5239707,72.7776456 93.0886542,73.2473356 93.2387097,73.8967742 L94.2967742,79.3806452 C94.3652923,79.6621264 94.2985811,79.9594588 94.1163748,80.184686 C93.9341685,80.4099131 93.6573259,80.5372516 93.3677419,80.5290323 L93.3677419,80.5290323 Z" id="Path" fill="#7089C5"></path>
                <path d="M107.174194,80.5290323 L101.703226,80.5290323 C101.03732,80.4997737 100.472636,80.0300838 100.322581,79.3806452 L99.2774194,73.8967742 C99.2031437,73.6146867 99.2676436,73.3140887 99.4511089,73.0873052 C99.6345742,72.8605218 99.9150723,72.7346638 100.206452,72.7483871 L105.677419,72.7483871 C106.341857,72.7745194 106.904446,73.2468818 107.045161,73.8967742 L108.103226,79.3806452 C108.171744,79.6621264 108.105033,79.9594588 107.922826,80.184686 C107.74062,80.4099131 107.463777,80.5372516 107.174194,80.5290323 L107.174194,80.5290323 Z" id="Path" fill="#7089C5"></path>
                <path d="M162.425806,80.5290323 L156.941935,80.5290323 C156.277497,80.5028999 155.714909,80.0305376 155.574194,79.3806452 L154.516129,73.8967742 C154.447611,73.615293 154.514322,73.3179606 154.696528,73.0927334 C154.878735,72.8675062 155.155577,72.7401678 155.445161,72.7483871 L160.916129,72.7483871 C161.582035,72.7776456 162.146719,73.2473356 162.296774,73.8967742 L163.354839,79.3806452 C163.423357,79.6621264 163.356646,79.9594588 163.174439,80.184686 C162.992233,80.4099131 162.71539,80.5372516 162.425806,80.5290323 L162.425806,80.5290323 Z" id="Path" fill="#4163AE"></path>
                <path d="M118.709677,68.6322581 L113.212903,68.6322581 C112.550187,68.6016934 111.989944,68.1313003 111.845161,67.483871 L110.787097,62.0129032 C110.718579,61.731422 110.78529,61.4340896 110.967496,61.2088624 C111.149702,60.9836353 111.426545,60.8562968 111.716129,60.8645161 L117.187097,60.8645161 C117.853003,60.8937747 118.417686,61.3634646 118.567742,62.0129032 L119.625806,67.483871 C119.693688,67.7631093 119.628524,68.0580436 119.449313,68.2826884 C119.270102,68.5073333 118.997018,68.6363992 118.709677,68.6322581 L118.709677,68.6322581 Z" id="Path" fill="#7089C5"></path>
                <path d="M132.503226,68.6322581 L127.032258,68.6322581 C126.36782,68.6061257 125.805231,68.1337634 125.664516,67.483871 L124.606452,62.0129032 C124.532176,61.7308157 124.596676,61.4302177 124.780141,61.2034343 C124.963606,60.9766508 125.244105,60.8507928 125.535484,60.8645161 L131.006452,60.8645161 C131.67089,60.8906485 132.233479,61.3630108 132.374194,62.0129032 L133.432258,67.483871 C133.500776,67.7653522 133.434065,68.0626846 133.251859,68.2879118 C133.069652,68.5131389 132.79281,68.6404774 132.503226,68.6322581 Z" id="Path" fill="#7089C5"></path>
                <path d="M146.309677,68.6322581 L140.83871,68.6322581 C140.174272,68.6061257 139.611683,68.1337634 139.470968,67.483871 L138.412903,62.0129032 C138.344385,61.731422 138.411096,61.4340896 138.593303,61.2088624 C138.775509,60.9836353 139.052352,60.8562968 139.341935,60.8645161 L144.812903,60.8645161 C145.478809,60.8937747 146.043493,61.3634646 146.193548,62.0129032 L147.23871,67.483871 C147.312985,67.7659585 147.248485,68.0665565 147.06502,68.2933399 C146.881555,68.5201234 146.601057,68.6459814 146.309677,68.6322581 L146.309677,68.6322581 Z" id="Path" fill="#4163AE"></path>
                <path d="M160.129032,68.6322581 L154.658065,68.6322581 C153.992158,68.6029995 153.427475,68.1333096 153.277419,67.483871 L152.258065,62.0129032 C152.189546,61.731422 152.256258,61.4340896 152.438464,61.2088624 C152.62067,60.9836353 152.897513,60.8562968 153.187097,60.8645161 L158.670968,60.8645161 C159.335406,60.8906485 159.897995,61.3630108 160.03871,62.0129032 L161.096774,67.483871 C161.167629,67.7722521 161.096355,68.0771289 160.904995,68.3042093 C160.713635,68.5312898 160.42525,68.6532083 160.129032,68.6322581 L160.129032,68.6322581 Z" id="Path" fill="#4163AE"></path>
                <path d="M123.419355,93.1225806 L117.948387,93.1225806 C117.282481,93.0933221 116.717797,92.6236322 116.567742,91.9741935 L115.509677,86.4516129 C115.441159,86.1701317 115.507871,85.8727993 115.690077,85.6475721 C115.872283,85.4223449 116.149126,85.2950065 116.43871,85.3032258 L121.922581,85.3032258 C122.585297,85.3337905 123.14554,85.8041836 123.290323,86.4516129 L124.348387,91.9225806 C124.436686,92.2111196 124.379351,92.5245688 124.194629,92.7631675 C124.009907,93.0017662 123.720813,93.135789 123.419355,93.1225806 Z" id="Path" fill="#7089C5"></path>
                <path d="M137.225806,93.1225806 L131.754839,93.1225806 C131.090401,93.0964483 130.527812,92.6240859 130.387097,91.9741935 L129.329032,86.4516129 C129.254757,86.1695254 129.319257,85.8689274 129.502722,85.6421439 C129.686187,85.4153605 129.966685,85.2895025 130.258065,85.3032258 L135.729032,85.3032258 C136.39347,85.3293581 136.956059,85.8017205 137.096774,86.4516129 L138.154839,91.9225806 C138.249692,92.2115179 138.194985,92.528692 138.008818,92.7691578 C137.822651,93.0096235 137.529292,93.1420351 137.225806,93.1225806 L137.225806,93.1225806 Z" id="Path" fill="#7089C5"></path>
                <path d="M151.045161,93.1225806 L145.56129,93.1225806 C144.896852,93.0964483 144.334263,92.6240859 144.193548,91.9741935 L143.135484,86.4516129 C143.066966,86.1701317 143.133677,85.8727993 143.315883,85.6475721 C143.49809,85.4223449 143.774932,85.2950065 144.064516,85.3032258 L149.535484,85.3032258 C150.22082,85.3093248 150.812817,85.7839895 150.967742,86.4516129 L152.012903,91.9225806 C152.111335,92.218476 152.052494,92.5441204 151.856737,92.786859 C151.66098,93.0295976 151.355193,93.1560915 151.045161,93.1225806 L151.045161,93.1225806 Z" id="Path" fill="#4163AE"></path>
                <path d="M81.9870968,93.1225806 L76.5032258,93.1225806 C75.8387877,93.0964483 75.2761989,92.6240859 75.1354839,91.9741935 L74.0774194,86.4516129 C74.0089012,86.1701317 74.0756125,85.8727993 74.2578187,85.6475721 C74.440025,85.4223449 74.7168677,85.2950065 75.0064516,85.3032258 L80.4774194,85.3032258 C81.1433256,85.3324843 81.708009,85.8021743 81.8580645,86.4516129 L82.916129,91.9225806 C83.0044279,92.2111196 82.9470925,92.5245688 82.7623709,92.7631675 C82.5776493,93.0017662 82.2885548,93.135789 81.9870968,93.1225806 Z" id="Path" fill="#7089C5"></path>
                <path d="M95.7935484,93.1225806 L90.3225806,93.1225806 C89.6566744,93.0933221 89.091991,92.6236322 88.9419355,91.9741935 L87.8967742,86.4516129 C87.8224985,86.1695254 87.8869985,85.8689274 88.0704638,85.6421439 C88.253929,85.4153605 88.5344271,85.2895025 88.8258065,85.3032258 L94.2967742,85.3032258 C94.9612123,85.3293581 95.5238011,85.8017205 95.6645161,86.4516129 L96.7741935,91.9741935 C96.8459784,92.2649336 96.7732112,92.5724492 96.57874,92.8001853 C96.3842687,93.0279214 96.0919429,93.1479488 95.7935484,93.1225806 Z" id="Path" fill="#7089C5"></path>
                <path d="M109.6,93.1225806 L104.129032,93.1225806 C103.464594,93.0964483 102.902005,92.6240859 102.76129,91.9741935 L101.703226,86.4516129 C101.634708,86.1701317 101.701419,85.8727993 101.883625,85.6475721 C102.065831,85.4223449 102.342674,85.2950065 102.632258,85.3032258 L108.103226,85.3032258 C108.769132,85.3324843 109.333815,85.8021743 109.483871,86.4516129 L110.529032,91.9225806 C110.623886,92.2115179 110.569179,92.528692 110.383012,92.7691578 C110.196845,93.0096235 109.903486,93.1420351 109.6,93.1225806 L109.6,93.1225806 Z" id="Path" fill="#7089C5"></path>
                <path d="M164.851613,93.1225806 L159.380645,93.1225806 C158.714739,93.0933221 158.150055,92.6236322 158,91.9741935 L156.954839,86.4516129 C156.881337,86.1717963 156.944327,85.8737024 157.124747,85.6475421 C157.305167,85.4213818 157.581814,85.2937332 157.870968,85.3032258 L163.354839,85.3032258 C164.019277,85.3293581 164.581866,85.8017205 164.722581,86.4516129 L165.780645,91.9225806 C165.868944,92.2111196 165.811609,92.5245688 165.626887,92.7631675 C165.442165,93.0017662 165.153071,93.135789 164.851613,93.1225806 Z" id="Path" fill="#4163AE"></path>
                <path d="M125.845161,105.729032 L120.374194,105.729032 C119.709755,105.7029 119.147167,105.230538 119.006452,104.580645 L117.948387,99.0967742 C117.874111,98.8146867 117.938611,98.5140887 118.122077,98.2873052 C118.305542,98.0605218 118.58604,97.9346638 118.877419,97.9483871 L124.348387,97.9483871 C125.012825,97.9745194 125.575414,98.4468818 125.716129,99.0967742 L126.774194,104.580645 C126.848469,104.862733 126.783969,105.163331 126.600504,105.390114 C126.417039,105.616898 126.136541,105.742756 125.845161,105.729032 Z" id="Path" fill="#7089C5"></path>
                <path d="M139.651613,105.729032 L134.193548,105.729032 C133.52911,105.7029 132.966521,105.230538 132.825806,104.580645 L131.767742,99.0967742 C131.699224,98.815293 131.765935,98.5179606 131.948141,98.2927334 C132.130348,98.0675062 132.40719,97.9401678 132.696774,97.9483871 L138.167742,97.9483871 C138.833648,97.9776456 139.398332,98.4473356 139.548387,99.0967742 L140.593548,104.580645 C140.668674,104.865032 140.602679,105.168196 140.416138,105.395622 C140.229598,105.623048 139.945202,105.747073 139.651613,105.729032 L139.651613,105.729032 Z" id="Path" fill="#7089C5"></path>
                <path d="M153.470968,105.729032 L148,105.729032 C147.334094,105.699774 146.76941,105.230084 146.619355,104.580645 L145.574194,99.0967742 C145.500692,98.8169576 145.563682,98.5188637 145.744102,98.2927034 C145.924522,98.0665431 146.201169,97.9388944 146.490323,97.9483871 L151.974194,97.9483871 C152.638632,97.9745194 153.20122,98.4468818 153.341935,99.0967742 L154.4,104.580645 C154.468518,104.862126 154.401807,105.159459 154.219601,105.384686 C154.037394,105.609913 153.760552,105.737252 153.470968,105.729032 L153.470968,105.729032 Z" id="Path" fill="#4163AE"></path>
                <path d="M84.4129032,105.729032 L78.9419355,105.729032 C78.2760293,105.699774 77.7113458,105.230084 77.5612903,104.580645 L76.516129,99.0967742 C76.4418533,98.8146867 76.5063533,98.5140887 76.6898186,98.2873052 C76.8732839,98.0605218 77.153782,97.9346638 77.4451613,97.9483871 L82.916129,97.9483871 C83.5805671,97.9745194 84.143156,98.4468818 84.283871,99.0967742 L85.3419355,104.580645 C85.4104536,104.862126 85.3437423,105.159459 85.1615361,105.384686 C84.9793298,105.609913 84.7024871,105.737252 84.4129032,105.729032 L84.4129032,105.729032 Z" id="Path" fill="#7089C5"></path>
                <path d="M98.2193548,105.729032 L92.7483871,105.729032 C92.083949,105.7029 91.5213602,105.230538 91.3806452,104.580645 L90.3225806,99.0967742 C90.2540625,98.815293 90.3207738,98.5179606 90.50298,98.2927334 C90.6851863,98.0675062 90.962029,97.9401678 91.2516129,97.9483871 L96.7741935,97.9483871 C97.409163,98.0078021 97.93184,98.4729847 98.0645161,99.0967742 L99.1225806,104.580645 C99.1953814,104.858219 99.1339148,105.153868 98.9565116,105.379424 C98.7791083,105.604979 98.5062671,105.734379 98.2193548,105.729032 Z" id="Path" fill="#F37269"></path>
                <path d="M112.03871,105.729032 L106.567742,105.729032 C105.900145,105.704169 105.333138,105.232547 105.187097,104.580645 L104.129032,99.0967742 C104.060514,98.815293 104.127225,98.5179606 104.309432,98.2927334 C104.491638,98.0675062 104.768481,97.9401678 105.058065,97.9483871 L110.529032,97.9483871 C111.196629,97.9732502 111.763636,98.4448726 111.909677,99.0967742 L112.967742,104.580645 C113.03626,104.862126 112.969549,105.159459 112.787343,105.384686 C112.605136,105.609913 112.328294,105.737252 112.03871,105.729032 L112.03871,105.729032 Z" id="Path" fill="#7089C5"></path>
                <path d="M167.277419,105.729032 L161.806452,105.729032 C161.142014,105.7029 160.579425,105.230538 160.43871,104.580645 L159.380645,99.0967742 C159.306369,98.8146867 159.370869,98.5140887 159.554335,98.2873052 C159.7378,98.0605218 160.018298,97.9346638 160.309677,97.9483871 L165.780645,97.9483871 C166.445083,97.9745194 167.007672,98.4468818 167.148387,99.0967742 L168.206452,104.580645 C168.280727,104.862733 168.216227,105.163331 168.032762,105.390114 C167.849297,105.616898 167.568799,105.742756 167.277419,105.729032 Z" id="Path" fill="#4163AE"></path>
                <path d="M128.141935,117.612903 L122.670968,117.612903 C122.005062,117.583645 121.440378,117.113955 121.290323,116.464516 L120.232258,110.967742 C120.16453,110.685029 120.23114,110.386883 120.412747,110.159875 C120.594353,109.932867 120.870606,109.802435 121.16129,109.806452 L126.645161,109.806452 C127.309979,109.842857 127.869157,110.31763 128.012903,110.967742 L129.070968,116.43871 C129.149165,116.723796 129.087019,117.02908 128.903595,117.260909 C128.72017,117.492737 128.437364,117.623433 128.141935,117.612903 L128.141935,117.612903 Z" id="Path" fill="#7089C5"></path>
                <path d="M141.935484,117.612903 L136.464516,117.612903 C135.800078,117.586771 135.237489,117.114409 135.096774,116.464516 L134.051613,110.967742 C133.978306,110.68444 134.042764,110.383157 134.22557,110.15465 C134.408376,109.926142 134.688161,109.797121 134.980645,109.806452 L140.451613,109.806452 C141.118163,109.83849 141.679636,110.315213 141.819355,110.967742 L142.877419,116.43871 C142.962725,116.726602 142.901537,117.038023 142.713649,117.27224 C142.525761,117.506456 142.235026,117.633734 141.935484,117.612903 Z" id="Path" fill="#7089C5"></path>
                <path d="M155.767742,117.612903 L150.283871,117.612903 C149.621155,117.582339 149.060912,117.111945 148.916129,116.464516 L147.858065,110.967742 C147.790337,110.685029 147.856947,110.386883 148.038553,110.159875 C148.22016,109.932867 148.496412,109.802435 148.787097,109.806452 L154.258065,109.806452 C154.926073,109.841543 155.489698,110.31562 155.63871,110.967742 L156.696774,116.43871 C156.774972,116.723796 156.712826,117.02908 156.529401,117.260909 C156.345976,117.492737 156.063171,117.623433 155.767742,117.612903 L155.767742,117.612903 Z" id="Path" fill="#4163AE"></path>
                <path d="M86.7096774,117.612903 L81.2903226,117.612903 C80.6276066,117.582339 80.0673631,117.111945 79.9225806,116.464516 L78.8,110.967742 C78.7322721,110.685029 78.7988821,110.386883 78.9804886,110.159875 C79.162095,109.932867 79.4383478,109.802435 79.7290323,109.806452 L85.1612903,109.806452 C85.8292991,109.841543 86.392924,110.31562 86.5419355,110.967742 L87.6,116.43871 C87.6761831,116.717148 87.6186055,117.01518 87.4441909,117.245205 C87.2697763,117.47523 86.9983446,117.611109 86.7096774,117.612903 L86.7096774,117.612903 Z" id="Path" fill="#7089C5"></path>
                <path d="M100.516129,117.612903 L95.0451613,117.612903 C94.3807232,117.586771 93.8181344,117.114409 93.6774194,116.464516 L92.6193548,110.967742 C92.5460479,110.68444 92.6105059,110.383157 92.793312,110.15465 C92.9761182,109.926142 93.2559033,109.797121 93.5483871,109.806452 L99.0193548,109.806452 C99.6859047,109.83849 100.247378,110.315213 100.387097,110.967742 L101.445161,116.43871 C101.523359,116.723796 101.461213,117.02908 101.277788,117.260909 C101.094363,117.492737 100.811558,117.623433 100.516129,117.612903 L100.516129,117.612903 Z" id="Path" fill="#7089C5"></path>
                <path d="M114.322581,117.612903 L108.851613,117.612903 C108.187175,117.586771 107.624586,117.114409 107.483871,116.464516 L106.425806,110.967742 C106.358079,110.685029 106.424689,110.386883 106.606295,110.159875 C106.787901,109.932867 107.064154,109.802435 107.354839,109.806452 L112.825806,109.806452 C113.493815,109.841543 114.05744,110.31562 114.206452,110.967742 L115.251613,116.43871 C115.335948,116.724306 115.27621,117.033073 115.091438,117.266604 C114.906666,117.500135 114.619917,117.629289 114.322581,117.612903 L114.322581,117.612903 Z" id="Path" fill="#7089C5"></path>
                <path d="M90.1419355,61.9354839 L75.6387097,61.9354839 C75.4277604,61.9287821 75.2583147,61.7593364 75.2516129,61.5483871 L75.2516129,61.5483871 C75.2516129,61.3345995 75.424922,61.1612903 75.6387097,61.1612903 L90.1419355,61.1612903 C90.245674,61.157647 90.3462646,61.1972591 90.4196641,61.2706585 C90.4930635,61.3440579 90.5326756,61.4446486 90.5290323,61.5483871 L90.5290323,61.5483871 C90.5290323,61.7621747 90.3557231,61.9354839 90.1419355,61.9354839 Z" id="Path" fill="#7089C5"></path>
                <path d="M90.5806452,63.6903226 L76.1290323,63.6903226 C75.9180829,63.6836208 75.7486373,63.5141751 75.7419355,63.3032258 L75.7419355,63.3032258 C75.7419355,63.0894382 75.9152446,62.916129 76.1290323,62.916129 L90.5806452,62.916129 C90.6843837,62.9124857 90.7849743,62.9520978 90.8583737,63.0254972 C90.9317732,63.0988966 90.9713853,63.1994873 90.9677419,63.3032258 L90.9677419,63.3032258 C90.9677419,63.5170135 90.7944328,63.6903226 90.5806452,63.6903226 L90.5806452,63.6903226 Z" id="Path" fill="#7089C5"></path>
                <path d="M74.5935484,48.8516129 L69.6774194,48.8516129 C69.2712228,48.8516129 68.9419355,48.5223256 68.9419355,48.116129 L68.9419355,48.116129 C68.9419355,47.9210666 69.0194237,47.7339934 69.1573537,47.5960634 C69.2952837,47.4581334 69.4823569,47.3806452 69.6774194,47.3806452 L74.6580645,47.3806452 C75.064261,47.3806452 75.3935539,47.7099325 75.3935539,48.116129 L75.3935539,48.116129 C75.3943456,48.3229019 75.3080656,48.5204593 75.1558449,48.660404 C75.0036243,48.8003488 74.7995256,48.8697525 74.5935484,48.8516129 L74.5935484,48.8516129 Z" id="Path" fill="#FFFFFF"></path>
                <path d="M88.2451613,48.8516129 L83.2645161,48.8516129 C82.8583196,48.8516129 82.5290323,48.5223256 82.5290323,48.116129 L82.5290323,48.116129 C82.5290323,47.9210666 82.6065205,47.7339934 82.7444505,47.5960634 C82.8823805,47.4581334 83.0694537,47.3806452 83.2645161,47.3806452 L88.2451613,47.3806452 C88.6513578,47.3806452 88.9806452,47.7099325 88.9806452,48.116129 L88.9806452,48.116129 C88.9806452,48.5223256 88.6513578,48.8516129 88.2451613,48.8516129 L88.2451613,48.8516129 Z" id="Path" fill="#FFFFFF"></path>
                <path d="M101.935484,48.8516129 L96.916129,48.8516129 C96.5099325,48.8516129 96.1806452,48.5223256 96.1806452,48.116129 L96.1806452,48.116129 C96.1806452,47.9210666 96.2581334,47.7339934 96.3960634,47.5960634 C96.5339934,47.4581334 96.7210666,47.3806452 96.916129,47.3806452 L101.935484,47.3806452 C102.131609,47.3771105 102.320742,47.4534632 102.459446,47.5921668 C102.59815,47.7308704 102.674502,47.9200044 102.670968,48.116129 L102.670968,48.116129 C102.674502,48.3122537 102.59815,48.5013876 102.459446,48.6400913 C102.320742,48.7787949 102.131609,48.8551475 101.935484,48.8516129 Z" id="Path" fill="#FFFFFF"></path>
                <path d="M115.548387,48.8516129 L110.580645,48.8516129 C110.383357,48.8550746 110.192952,48.7791173 110.052218,48.6408103 C109.911485,48.5025034 109.832258,48.3134478 109.832258,48.116129 L109.832258,48.116129 C109.832258,47.9188102 109.911485,47.7297547 110.052218,47.5914477 C110.192952,47.4531408 110.383357,47.3771834 110.580645,47.3806452 L115.548387,47.3806452 C115.745676,47.3771834 115.936081,47.4531408 116.076814,47.5914477 C116.217548,47.7297547 116.296774,47.9188102 116.296774,48.116129 L116.296774,48.116129 C116.296774,48.3134478 116.217548,48.5025034 116.076814,48.6408103 C115.936081,48.7791173 115.745676,48.8550746 115.548387,48.8516129 L115.548387,48.8516129 Z" id="Path" fill="#FFFFFF"></path>
                <path d="M129.2,48.8516129 L124.232258,48.8516129 C124.03497,48.8550746 123.844564,48.7791173 123.703831,48.6408103 C123.563098,48.5025034 123.483871,48.3134478 123.483871,48.116129 L123.483871,48.116129 C123.483871,47.9188102 123.563098,47.7297547 123.703831,47.5914477 C123.844564,47.4531408 124.03497,47.3771834 124.232258,47.3806452 L129.2,47.3806452 C129.397288,47.3771834 129.587694,47.4531408 129.728427,47.5914477 C129.86916,47.7297547 129.948387,47.9188102 129.948387,48.116129 L129.948387,48.116129 C129.948387,48.3134478 129.86916,48.5025034 129.728427,48.6408103 C129.587694,48.7791173 129.397288,48.8550746 129.2,48.8516129 L129.2,48.8516129 Z" id="Path" fill="#FFFFFF"></path>
                <path d="M142.864516,48.8516129 L137.883871,48.8516129 C137.686583,48.8550746 137.496177,48.7791173 137.355444,48.6408103 C137.21471,48.5025034 137.135484,48.3134478 137.135484,48.116129 L137.135484,48.116129 C137.135484,47.9188102 137.21471,47.7297547 137.355444,47.5914477 C137.496177,47.4531408 137.686583,47.3771834 137.883871,47.3806452 L142.864516,47.3806452 C143.270713,47.3806452 143.6,47.7099325 143.6,48.116129 L143.6,48.116129 C143.6,48.3111915 143.522512,48.4982647 143.384582,48.6361947 C143.246652,48.7741246 143.059579,48.8516129 142.864516,48.8516129 L142.864516,48.8516129 Z" id="Path" fill="#FFFFFF"></path>
                <path d="M156.516129,48.8516129 L151.535484,48.8516129 C151.339359,48.8551475 151.150225,48.7787949 151.011522,48.6400913 C150.872818,48.5013876 150.796465,48.3122537 150.8,48.116129 L150.8,48.116129 C150.796465,47.9200044 150.872818,47.7308704 151.011522,47.5921668 C151.150225,47.4534632 151.339359,47.3771105 151.535484,47.3806452 L156.516129,47.3806452 C156.922326,47.3806452 157.251613,47.7099325 157.251613,48.116129 L157.251613,48.116129 C157.251613,48.5223256 156.922326,48.8516129 156.516129,48.8516129 L156.516129,48.8516129 Z" id="Path" fill="#FFFFFF"></path>
                <path d="M125.045161,68.7483871 C124.139055,68.840537 123.251472,68.4482351 122.709677,67.716129 C121.870968,66.4258065 122.516129,64.6064516 124.619355,62.3096774 C125.657827,61.2328087 126.784313,60.2444361 127.987097,59.3548387 C128.01615,59.3256845 128.055615,59.3092973 128.096774,59.3092973 C128.137933,59.3092973 128.177398,59.3256845 128.206452,59.3548387 C128.268717,59.4197387 128.268717,59.5221968 128.206452,59.5870968 C128.206452,59.5870968 121.2,64.7483871 123.045161,67.5741935 C123.732966,68.3361745 124.783941,68.6584075 125.780645,68.4129032 C127.934715,68.0390407 129.979321,67.1929966 131.767742,65.9354839 C133.522696,64.9313904 134.937959,63.4262693 135.832258,61.6129032 C136.154839,60.7354839 136.051613,60.1032258 135.548387,59.7548387 C134.372019,59.285222 133.060239,59.285222 131.883871,59.7548387 C130.381228,60.138583 128.972128,60.8233795 127.741935,61.7677419 C127.674236,61.824752 127.573139,61.8160865 127.516129,61.7483871 C127.459119,61.6806877 127.467784,61.5795907 127.535484,61.5225806 C128.793514,60.5412697 130.237767,59.8257277 131.780645,59.4193548 C133.020482,58.908895 134.411776,58.908895 135.651613,59.4193548 C136.090323,59.716129 136.516129,60.3483871 136.064516,61.6387097 C135.144172,63.5191111 133.684149,65.0824582 131.870968,66.1290323 C130.041824,67.4281196 127.949414,68.3091343 125.741935,68.7096774 L125.045161,68.7483871 Z" id="Path" fill="#EC6966"></path>
            </g>
        </g>
    </g>
</svg>