<?xml version="1.0" encoding="UTF-8"?>
<svg width="81px" height="71px" viewBox="0 0 81 71" version="1.1" xmlns="http://www.w3.org/2000/svg" xmlns:xlink="http://www.w3.org/1999/xlink">
    <!-- Generator: sketchtool 63.1 (101010) - https://sketch.com -->
    <title>013DB295-915D-4B07-BC66-0F30C59E6F68</title>
    <desc>Created with sketchtool.</desc>
    <defs>
        <polygon id="path-1" points="16.0714286 0 129.464286 0 129.464286 105.080292 16.0714286 105.080292"></polygon>
    </defs>
    <g id="Page-1" stroke="none" stroke-width="1" fill="none" fill-rule="evenodd">
        <g id="Event-banner" transform="translate(-444.000000, -146.000000)">
            <g id="calendar-illustration" transform="translate(438.000000, 136.000000)">
                <mask id="mask-2" fill="white">
                    <use xlink:href="#path-1"></use>
                </mask>
                <g id="Clip-2"></g>
                <path d="M135.306533,42.0537559 C132.396062,19.96786 118.594683,23.3897139 104.245984,18.0710948 C96.7466118,15.2918024 95.4058014,10.3987117 86.5040442,10.1996099 C82.2659814,10.104602 73.0600086,11.5864725 69.0931559,12.7458327 C52.5383288,17.5835492 58.1876289,34.2624197 48.6751819,44.9843483 C43.336877,51.0013638 34.7373719,52.9578313 31.6921288,61.6094635 C28.5224038,70.6134621 33.6792212,72.3499644 33.2152261,80.0674399 C32.4072845,93.5084574 23.6950033,110.382883 42.6634941,114.906469 C60.3895436,119.133344 82.8160875,104.06024 98.5948061,98.3512274 C109.269109,94.4885536 143.142913,90.0096981 144.225705,73.7639002 C144.787245,65.3408747 137.24777,66.0664974 135.004755,60.0857326 C132.736854,54.0398875 136.149823,48.4541432 135.306533,42.0537559" id="Fill-1" fill="#3F78F1" transform="translate(87.388041, 62.919591) rotate(6.000000) translate(-87.388041, -62.919591) "></path>
                <path d="M55.0578023,73.8894014 C53.5484909,70.7546247 50.5459501,67.800199 47.9633502,65.5149851 C46.3048722,64.0469653 44.0289198,63.5587089 42.5137667,65.3770066 C41.8958198,66.1186668 42.794887,66.1226519 41.5602433,66.7200184 C40.2162273,67.3707863 39.4274054,65.7638961 38.7094416,64.6965166 C37.9068569,63.503563 36.9991209,62.2980737 35.8089637,61.4594838 C33.9170135,60.1254821 32.0309734,60.5728062 31.6087814,62.9105 C31.5698259,63.1266333 31.619185,63.4092064 31.5439543,63.6122653 C31.2630231,64.3690258 30.2353899,65.6053002 29.1691397,65.5474522 C28.5035219,65.5114933 27.1873705,63.8215159 26.7085046,63.3250075 C25.7434135,62.3246663 24.848261,61.2751188 23.6117985,60.6039965 C21.8943141,59.6718533 19.3449405,59.2747131 18.6057155,61.5821263 C18.3778974,62.2928242 18.6232517,63.0991808 18.4353938,63.8030669 C17.992323,65.4625633 16.3834399,65.5712475 14.9334849,65.0320457 C14.8782947,64.9619353 14.8146914,64.8949667 14.7311067,64.8374219 C12.5395097,63.3135279 9.37516946,62.089705 6.78389513,63.3205732 C4.90669369,64.2116571 3.25101049,66.6961523 3.52025392,68.8248929 C3.84775519,71.4120349 6.66158477,71.8394675 8.83201202,71.6369861 C10.8394469,71.449717 13.0558092,70.3858668 15.0388604,71.0835104 C16.6949079,71.6661003 15.9645284,72.0404263 15.3674975,73.2943965 C15.1234249,73.8072891 14.9361407,74.297667 14.8823842,74.8680805 C14.7169003,76.6169997 15.6896909,78.4520093 17.6156131,78.3458706 C20.0678384,78.2108323 21.5147856,75.7488859 23.6774452,75.0157759 C24.5802621,74.7099642 26.995191,74.4263159 26.6930335,76.0554291 C26.6377608,76.3537248 25.7548417,77.0227051 25.527626,77.3916854 C25.0063969,78.2406013 24.5849854,79.4416785 24.8555336,80.4400821 C25.4754304,82.728352 28.5076873,82.118547 30.2585716,81.8172551 C31.5488629,81.5950852 37.2140861,79.0578851 37.3355997,81.1343284 C37.3455519,81.3012602 36.8148959,81.9853374 36.764367,82.230255 C36.6438347,82.8137661 36.8329577,83.5034385 37.0799521,84.0293038 C38.3023124,86.629328 41.8566595,86.0204527 44.1701136,85.7415369 C49.8817161,85.0531596 58.398573,80.8260953 55.0578023,73.8894014" id="Fill-9" fill="#3266D4" transform="translate(29.651323, 72.938382) rotate(18.000000) translate(-29.651323, -72.938382) "></path>
                <path d="M52.8908311,53.4015026 L52.8809914,53.4337237 L52.8809914,53.4337237 C52.7980539,53.690998 52.9954435,53.8816046 53.2008754,53.9055824 L53.2588311,53.9075026 L53.2510734,53.9265785 C53.2399167,53.9457589 53.2263122,53.9644076 53.2100792,53.9822969 L53.1533138,54.0334588 C53.1300044,54.0511821 53.1066949,54.0700489 53.0833855,54.0872005 C53.0777003,54.0912026 53.0759947,54.0963481 53.0697409,54.1003501 C53.0663298,54.102637 53.0623501,54.1032087 53.0583705,54.1054956 C50.0258696,56.3780856 47.163357,59.0623146 43.6282819,60.535639 C41.900541,61.2560071 37.7298574,62.5961206 36.3210577,60.5613664 C34.5825148,58.0509406 39.2364429,56.1391063 40.8084086,55.6834449 C42.2503721,55.2658982 43.7356696,55.0385721 45.2225721,54.8462543 L46.4964797,54.6863639 C48.2884638,54.4622493 51.0617182,54.5314276 52.6149227,53.5463527 C52.6467599,53.5223404 52.6785972,53.4971847 52.7104345,53.4731724 C52.7537091,53.4409543 52.7980303,53.4202734 52.8419529,53.409308 L52.8908311,53.4015026 Z M24.5526347,19.8674262 C26.9535067,19.3014227 29.163355,23.1022223 29.9695204,24.7996612 C31.4809778,27.9826655 31.8958798,31.5428541 32.5282983,34.9864401 C33.8661855,35.8643629 35.2370427,36.784287 36.6221232,37.7436487 C36.0788645,36.4881541 35.2782129,35.2231631 34.7797923,34.2136152 C33.9247339,32.4807296 33.0469346,30.7432702 32.4704525,28.8914667 C31.9815228,27.3215215 31.0013894,22.3629873 34.0424181,22.437311 C36.5075332,22.4973417 37.695746,26.734936 38.0510728,28.581594 C38.6932365,31.9206293 38.2615636,35.3409456 38.0058007,38.7118919 C39.3408015,39.6569005 40.6826588,40.636857 42.0143021,41.6499345 C41.7842244,40.1697297 41.166841,38.5539656 40.854459,37.3312085 C40.3757627,35.4571079 39.8765996,33.5738597 39.6952409,31.642587 C39.5411712,30.004607 39.6065513,24.949452 42.5662813,25.6578141 C44.9648792,26.23125 45.2514147,30.6243523 45.2178718,32.5053136 C45.1557239,35.9248913 44.0149576,39.1972552 43.0650707,42.4592597 C44.6604635,43.6986715 46.2337689,44.9858424 47.7555247,46.3160586 C47.5463162,44.793582 46.8956243,43.1056241 46.5720933,41.8392267 C46.093397,39.9651261 45.594234,38.0824496 45.4123067,36.1506052 C45.2588055,34.5131969 45.3236171,29.4574702 48.2839156,30.1652605 C50.681945,30.7392682 50.969049,35.1329422 50.9349376,37.0133318 C50.8725011,40.5050545 49.6832459,43.8446534 48.7223052,47.1753291 C50.2022229,48.5052198 51.6248461,49.8774346 52.9619599,51.2868671 C52.7815494,49.8538806 52.2839056,48.3034741 52.0452628,47.1236417 C51.6615098,45.2283874 51.2572901,43.3222704 51.1731487,41.3835653 C51.1015148,39.7398681 51.4210247,34.6944324 54.3415266,35.5525852 C56.7077187,36.247226 56.7736673,40.6494758 56.6451812,42.5258633 C56.4109479,45.9495083 55.0983793,49.1703681 53.9836142,52.3907728 C56.2643127,54.9138638 58.253689,57.5494478 59.7932048,60.27654 L59.1806735,60.6307519 C57.726173,58.054341 55.8604048,55.557621 53.7227548,53.1599439 L53.5888023,53.5635043 C53.5876653,53.5675064 53.5876653,53.5726518 53.5865282,53.5766539 C53.5848227,53.5829428 53.580843,53.5863731 53.5791374,53.5926621 C53.5694725,53.6206764 53.5598076,53.6486907 53.5507113,53.676705 C53.5007482,53.831675 53.3850646,53.9014684 53.262474,53.907677 L53.2588311,53.9075026 L53.2773801,53.86767 C53.348236,53.6474935 53.144753,53.3905384 52.9073574,53.3999186 L52.8908311,53.4015026 L52.9003211,53.3760514 L52.9003211,53.3760514 L52.9196509,53.3188078 C52.9893651,53.0308579 53.0234465,52.7215818 53.0300495,52.3978867 C51.6175067,50.8666085 50.0975316,49.377756 48.508153,47.9360314 L48.4374167,48.1921878 C48.4368482,48.1961898 48.4368482,48.2007636 48.4362797,48.2047656 C48.4345741,48.212198 48.4305945,48.2156283 48.4288889,48.2213455 L48.4288889,48.2213455 L48.4050109,48.3071037 C48.3677016,48.4464606 48.2756498,48.5217223 48.1703391,48.5457824 L48.1258311,48.5515026 L48.1182515,48.5718518 C48.1080484,48.5916138 48.0953712,48.6109747 48.0800276,48.6297166 L48.0258062,48.6838676 C48.0036338,48.7021627 47.9814614,48.7221729 47.9587205,48.7410397 C47.9536038,48.7450418 47.9524668,48.7501872 47.946213,48.7541893 C47.9428019,48.7564762 47.9388222,48.7581913 47.9354111,48.7610499 C45.0211629,51.1840025 42.2968014,54.0105899 38.840751,55.6617195 C37.1511011,56.4689892 33.0531884,58.0189242 31.5437602,56.0584937 C29.6812793,53.6401149 34.2334418,51.4938752 35.779824,50.9587445 C37.6047823,50.3281365 39.5167247,50.0085446 41.4110428,49.6735163 C43.1893823,49.3596416 45.9626368,49.2876048 47.4641056,48.2242041 C47.4948059,48.1984767 47.5249376,48.1716058 47.5556378,48.1470218 C47.5972403,48.1125841 47.6404716,48.0896124 47.6837951,48.076364 L47.7328311,48.0665026 L47.740692,48.0398957 L47.740692,48.0398957 L47.7568949,47.9817945 C47.7969059,47.7707713 47.8176534,47.5495129 47.8223708,47.3204887 C46.2171294,45.8953921 44.549431,44.5188725 42.8549712,43.1950836 L42.7197824,43.6841696 C42.7192139,43.6881716 42.7192139,43.6927454 42.7186454,43.6967475 C42.7175083,43.7036081 42.7129602,43.7070384 42.7118231,43.7138991 C42.7038638,43.7419134 42.6953359,43.7704994 42.6873766,43.7990855 C42.6500673,43.9382637 42.5580155,44.0134026 42.4527221,44.0373783 L42.4088311,44.0425026 L42.4010087,44.0639898 C42.3908311,44.0837331 42.3781814,44.1030717 42.3628674,44.1217877 L42.3087404,44.1758495 C42.2859995,44.1941445 42.2638271,44.2141547 42.2410862,44.2330215 C42.2359695,44.2370236 42.2342639,44.2415973 42.2291472,44.2461711 L42.2291472,44.2461711 L42.2177767,44.25246 C39.3035286,46.6759843 36.5791671,49.5025718 33.1231167,51.1537013 C31.4334668,51.9603993 27.3355541,53.510906 25.8261259,51.5510472 C23.963645,49.1320967 28.5158075,46.985857 30.0627582,46.4512981 C31.887148,45.8201184 33.7990904,45.5010982 35.693977,45.1660698 C37.4711795,44.8516234 40.2450025,44.7795866 41.7464713,43.716186 L41.7464713,43.716186 L41.838572,43.6384319 C41.8801076,43.6040614 41.9232799,43.581157 41.9665523,43.567974 L42.0158311,43.5575026 L42.0392606,43.4737764 C42.0907445,43.2022436 42.1103337,42.9137643 42.1049166,42.6135996 C40.7253875,41.5532641 39.3333264,40.5289046 37.9469147,39.5423544 L37.9169014,40.0383063 C37.9174699,40.0428801 37.9186069,40.0468821 37.9186069,40.0508842 C37.9186069,40.0583165 37.9151958,40.0623186 37.9151958,40.0691792 L37.9151958,40.0691792 L37.9089421,40.1572242 C37.9007932,40.3110171 37.8165887,40.406431 37.7088431,40.4482936 L37.6778311,40.4565026 L37.6498756,40.5077589 C37.6371374,40.525932 37.6220015,40.5433688 37.6043064,40.5598272 L37.5433819,40.606025 C37.5183669,40.6214615 37.4939204,40.6386131 37.4689054,40.6534779 L37.4689054,40.6534779 L37.4552608,40.665484 C37.4512812,40.6671992 37.446733,40.6677709 37.4433218,40.6700578 C34.2311677,42.6767976 31.153185,45.1094695 27.5078165,46.2780667 C25.7254973,46.8492157 21.4575963,47.8308603 20.2244702,45.6840488 C18.701966,43.0352665 23.4997304,41.5247803 25.1041019,41.2040449 C26.9967144,40.8255658 28.9336718,40.767822 30.8558476,40.6917831 C32.6597706,40.6208898 35.4176749,40.9256169 37.0476299,40.0743247 L37.0476299,40.0743247 L37.1493955,40.010292 L37.1493955,40.010292 L37.2078311,39.9805026 C37.200726,39.6296142 37.139393,39.2689372 37.0391918,38.9000315 C35.577058,37.8758025 34.1284615,36.8949556 32.714026,35.9600963 L32.7206025,35.9950971 L32.7206025,35.9950971 L32.7291304,36.0385479 C32.7973531,36.37815 32.4194631,36.5289771 32.1878788,36.3931041 L32.1648311,36.3765026 L32.161128,36.3421953 C32.1438712,36.2608952 32.1003232,36.1834065 32.0384826,36.1265757 L32.0178311,36.1105026 L32.0156342,36.0984356 L32.0156342,36.0984356 L32.0042637,36.0396913 C31.9350783,35.7932485 31.8349736,35.5461357 31.7106978,35.2996226 C30.8233212,34.7209231 29.9547292,34.1617069 29.1079017,33.6220503 C29.0070101,33.8102626 28.7406214,33.9223154 28.5371863,33.7309571 C28.5081916,33.7035145 28.4797655,33.6749285 28.4507708,33.6474859 C27.0192303,32.4903231 24.2556407,32.2416246 22.5017477,31.8139774 C20.631876,31.3588877 18.7443802,30.918091 16.9631981,30.1719954 C15.4532014,29.5391005 11.0460122,27.1070004 13.0574461,24.8115416 C14.6874011,22.9517339 18.6790001,24.7606584 20.3140718,25.6742682 C23.1089109,27.2357434 25.3418181,29.5830007 27.6079362,31.8318083 C28.5996254,32.4546425 29.6312529,33.1087786 30.6913938,33.7916449 C29.8807058,32.8013141 28.8936965,31.8663968 28.2127848,31.0777269 C26.9518011,29.6169803 25.667508,28.1579489 24.6458724,26.5113932 C23.7800121,25.1158228 21.5906306,20.5643538 24.5526347,19.8674262 Z M47.7486573,48.0635661 L47.7328311,48.0665026 L47.7244891,48.0984256 L47.7244891,48.0984256 C47.6502258,48.3760675 47.8879838,48.562368 48.1058935,48.5541775 L48.1258311,48.5515026 L48.1416304,48.5115802 C48.2015457,48.2877696 47.9853299,48.0417821 47.7486573,48.0635661 Z M42.0313436,43.5552726 L42.0158311,43.5575026 L42.0074233,43.5898357 L42.0074233,43.5898357 C41.9328047,43.8674776 42.1704295,44.0537781 42.3882892,44.0457271 L42.4088311,44.0425026 L42.4243167,44.0037642 C42.483994,43.7800854 42.2677782,43.5338354 42.0313436,43.5552726 Z M19.5735116,35.4925546 C21.500804,35.3936469 23.4252539,35.6183331 25.3383333,35.8241526 C27.1331599,36.0173942 29.8182933,36.720039 31.5539936,36.1163019 C31.5903791,36.099722 31.6267645,36.0825704 31.6637185,36.0671339 C31.7871214,36.0133249 31.9006883,36.0312777 31.9887972,36.0880891 L32.0178311,36.1105026 L32.0270046,36.1580375 L32.0270046,36.1580375 C32.0440603,36.2425093 32.0826022,36.3070221 32.1333736,36.3531062 L32.1648311,36.3765026 L32.169016,36.4036217 C32.1735302,36.5063126 32.1338401,36.6083781 32.0343237,36.6769148 L31.9673097,36.7137501 L31.9673097,36.7137501 L31.887148,36.7503402 C31.8808943,36.7526271 31.8780516,36.7572009 31.8712294,36.7594878 C31.8678182,36.7606312 31.86327,36.7612029 31.8592904,36.7623464 C28.3918695,38.280265 24.9960825,40.2384086 21.2205223,40.8627277 C19.3745286,41.1680265 15.0105471,41.5179196 14.099205,39.213885 C12.9752353,36.3712894 17.9395769,35.5754541 19.5735116,35.4925546 Z M37.217929,39.9760611 L37.2078311,39.9805026 L37.1999941,40.0954784 L37.1999941,40.0954784 C37.1853262,40.3709335 37.4346803,40.5041673 37.6417909,40.4670237 L37.6778311,40.4565026 C37.7864096,40.1990277 37.5138151,39.8632791 37.217929,39.9760611 Z" id="Combined-Shape" fill="#3266D4" transform="translate(36.167018, 40.724788) rotate(10.000000) translate(-36.167018, -40.724788) "></path>
                <polyline id="Fill-18" fill="#E5E5E0" points="98.1121386 32.0583942 33.9285714 49.123465 46.3862639 105.080292 111.607143 87.7398447 98.1121386 32.0583942"></polyline>
                <polyline id="Fill-19" fill="#F4F4F1" points="97.8063207 32.0583942 33.9285714 49.2010261 46.9478958 104.189781 111.607143 86.8382243 97.8063207 32.0583942"></polyline>
                <polyline id="Fill-20" fill="#FFFFFF" points="98.2134175 32.0583942 33.9285714 49.1051179 48.2147387 102.408759 112.5 85.3628615 98.2134175 32.0583942"></polyline>
                <polyline id="Fill-21" fill="#F4F4F1" points="98.2142857 33.9040165 97.7198151 32.0583942 33.9285714 48.9781022 98.2142857 33.9040165"></polyline>
                <path d="M98.2142857,31.634121 L34.2504289,48.9781022 L32.2634759,41.398305 C31.7585774,39.4706824 32.8848894,37.4913707 34.7801178,36.9778423 L91.881157,21.4950865 C93.7763854,20.9811378 95.7220211,22.1271214 96.2277458,24.0547441 L98.2142857,31.634121" id="Fill-22" fill="#9275FD"></path>
                <path d="M51.6405181,59.1190611 L43.2957832,61.3316367 L41.0714286,53.0326307 L49.4157507,50.8200551 L51.6405181,59.1190611 Z M62.6145235,56.2094625 L54.2697886,58.4220381 L52.0450212,50.1230322 L60.3897562,47.910867 L62.6145235,56.2094625 Z M73.5881162,53.3002744 L65.2433813,55.5128501 L63.0190267,47.2138441 L71.3633488,45.0016789 L73.5881162,53.3002744 Z M84.5617089,50.3910863 L76.2173867,52.6032515 L73.9926193,44.3042455 L82.3373543,42.0920803 L84.5617089,50.3910863 Z M95.5357143,47.4814877 L87.1909793,49.6936529 L84.966212,41.3946469 L93.3113597,39.1824818 L95.5357143,47.4814877 Z M54.5356049,69.9192217 L46.19087,72.1313869 L43.9661027,63.8327914 L52.3108376,61.6202157 L54.5356049,69.9192217 Z M65.5091976,67.0096231 L57.1644627,69.2221988 L54.9401081,60.9231928 L63.284843,58.7106171 L65.5091976,67.0096231 Z M76.483203,64.100435 L68.1384681,66.3130107 L65.9137008,58.0140047 L74.2584357,55.801429 L76.483203,64.100435 Z" id="Stroke-23" stroke="#E5E5E0"></path>
                <path d="M88.3961275,61.2760469 L79.9529972,63.5278715 L77.701997,55.0816495 L86.1451272,52.829825 L88.3961275,61.2760469 Z M99.4991131,58.3148351 L91.0559829,60.5666596 L88.8054002,52.1204376 L97.2481128,49.8686131 L99.4991131,58.3148351 Z M58.0151414,81.1505916 L49.5724288,83.4024161 L47.3214286,74.9561942 L55.7645588,72.7047874 L58.0151414,81.1505916 Z M69.1185447,78.1902152 L60.6754144,80.4412042 L58.4248318,71.9949823 L66.8679621,69.7439933 L69.1185447,78.1902152 Z M80.2219479,75.2290033 L71.7788177,77.4804101 L69.5278174,69.0341882 L77.9709477,66.7827814 L80.2219479,75.2290033 Z M91.3249335,72.2677914 L82.8818033,74.5191982 L80.6312207,66.073394 L89.0743509,63.8215695 L91.3249335,72.2677914 Z M102.428337,69.3065795 L93.9852066,71.5579863 L91.7342063,63.1121821 L100.177337,60.8603576 L102.428337,69.3065795 Z M60.9447827,92.1423361 L52.5016525,94.3941606 L50.2506523,85.9479387 L58.6937825,83.6961142 L60.9447827,92.1423361 Z M72.0477684,89.181542 L63.6046381,91.4329487 L61.3540555,82.9867268 L69.7967681,80.7349023 L72.0477684,89.181542 Z M83.150754,86.2203301 L74.7080414,88.4721546 L72.4570411,80.0259327 L80.9001714,77.7741081 L83.150754,86.2203301 Z M94.2541572,83.2591182 L85.811027,85.5109427 L83.5600268,77.0647208 L92.003157,74.8128963 L94.2541572,83.2591182 Z M105.357143,80.2979063 L96.9144303,82.5497308 L94.66343,74.1035089 L103.10656,71.8521021 L105.357143,80.2979063 Z" id="Stroke-25" stroke="#E5E5E0"></path>
                <ellipse id="Oval" fill="#664DC1" cx="43.3035714" cy="39.6277372" rx="3.125" ry="3.11678832"></ellipse>
                <path d="M41.6227557,39.9651662 L40.2559544,34.8662499 C39.9724936,33.6136167 40.4823501,32.4850225 41.5466405,32.1506266 C42.6115872,31.8170029 43.8274298,32.4042309 44.1108906,33.6568642 L45.4776919,38.7557805 C45.7611527,40.0084138 45.3828002,41.1647241 44.3185097,41.4983478 C43.2535631,41.8327437 41.9068727,41.2177995 41.6227557,39.9651662 Z" id="Fill-26" fill="#FFFFFF"></path>
            </g>
        </g>
    </g>
</svg>