<?xml version="1.0" encoding="UTF-8"?>
<svg width="70px" height="70px" viewBox="0 0 70 70" version="1.1" xmlns="http://www.w3.org/2000/svg" xmlns:xlink="http://www.w3.org/1999/xlink">
    <!-- Generator: sketchtool 63.1 (101010) - https://sketch.com -->
    <title>B896A8F7-699C-4048-BC7E-6778CA5F5B75</title>
    <desc>Created with sketchtool.</desc>
    <g id="Page-1" stroke="none" stroke-width="1" fill="none" fill-rule="evenodd">
        <g id="Storage-UI-elements" transform="translate(-638.000000, -68.000000)">
            <g id="Amazon_Web_Services_Logo-(1)" transform="translate(638.000000, 83.000000)">
                <path d="M19.794702,15.26 C19.794702,16.1233333 19.8874172,16.8233333 20.0496689,17.3366667 C20.2350993,17.85 20.4668874,18.41 20.7913907,19.0166667 C20.9072848,19.2033333 20.9536424,19.39 20.9536424,19.5533333 C20.9536424,19.7866667 20.8145695,20.02 20.513245,20.2533333 L19.0529801,21.2333333 C18.8443709,21.3733333 18.6357616,21.4433333 18.4503311,21.4433333 C18.218543,21.4433333 17.986755,21.3266667 17.7549669,21.1166667 C17.4304636,20.7666667 17.1523179,20.3933333 16.9205298,20.02 C16.6887417,19.6233333 16.4569536,19.18 16.2019868,18.6433333 C14.3940397,20.79 12.1225166,21.8633333 9.38741722,21.8633333 C7.44039735,21.8633333 5.88741722,21.3033333 4.75165563,20.1833333 C3.61589404,19.0633333 3.03642384,17.57 3.03642384,15.7033333 C3.03642384,13.72 3.73178808,12.11 5.14569536,10.8966667 C6.55960265,9.68333333 8.43708609,9.07666667 10.8245033,9.07666667 C11.6125828,9.07666667 12.4238411,9.14666667 13.281457,9.26333333 C14.1390728,9.38 15.0198675,9.56666667 15.9470199,9.77666667 L15.9470199,8.07333333 C15.9470199,6.3 15.5761589,5.06333333 14.8576159,4.34 C14.115894,3.61666667 12.8642384,3.26666667 11.0794702,3.26666667 C10.2682119,3.26666667 9.43377483,3.36 8.57615894,3.57 C7.71854305,3.78 6.88410596,4.03666667 6.07284768,4.36333333 C5.70198675,4.52666667 5.42384106,4.62 5.2615894,4.66666667 C5.09933775,4.71333333 4.98344371,4.73666667 4.89072848,4.73666667 C4.56622517,4.73666667 4.40397351,4.50333333 4.40397351,4.01333333 L4.40397351,2.87 C4.40397351,2.49666667 4.45033113,2.21666667 4.56622517,2.05333333 C4.68211921,1.89 4.89072848,1.72666667 5.21523179,1.56333333 C6.02649007,1.14333333 7,0.793333333 8.13576159,0.513333333 C9.27152318,0.21 10.4768212,0.07 11.7516556,0.07 C14.5099338,0.07 16.5264901,0.7 17.8245033,1.96 C19.0993377,3.22 19.7483444,5.13333333 19.7483444,7.7 L19.7483444,15.26 L19.794702,15.26 Z M10.384106,18.8066667 C11.1490066,18.8066667 11.9370861,18.6666667 12.7715232,18.3866667 C13.6059603,18.1066667 14.3476821,17.5933333 14.9735099,16.8933333 C15.3443709,16.45 15.6225166,15.96 15.7615894,15.4 C15.9006623,14.84 15.9933775,14.1633333 15.9933775,13.37 L15.9933775,12.39 C15.3211921,12.2266667 14.602649,12.0866667 13.8609272,11.9933333 C13.1192053,11.9 12.4006623,11.8533333 11.6821192,11.8533333 C10.1291391,11.8533333 8.99337748,12.1566667 8.22847682,12.7866667 C7.46357616,13.4166667 7.09271523,14.3033333 7.09271523,15.47 C7.09271523,16.5666667 7.37086093,17.3833333 7.95033113,17.9433333 C8.50662252,18.5266667 9.31788079,18.8066667 10.384106,18.8066667 Z M28.9966887,21.3266667 C28.5794702,21.3266667 28.3013245,21.2566667 28.115894,21.0933333 C27.9304636,20.9533333 27.7682119,20.6266667 27.6291391,20.1833333 L22.1821192,2.14666667 C22.0430464,1.68 21.9735099,1.37666667 21.9735099,1.21333333 C21.9735099,0.84 22.1589404,0.63 22.5298013,0.63 L24.8013245,0.63 C25.2417219,0.63 25.5430464,0.7 25.705298,0.863333333 C25.8907285,1.00333333 26.0298013,1.33 26.1688742,1.77333333 L30.0629139,17.22 L33.6788079,1.77333333 C33.794702,1.30666667 33.9337748,1.00333333 34.1192053,0.863333333 C34.3046358,0.723333333 34.6291391,0.63 35.0463576,0.63 L36.9006623,0.63 C37.3410596,0.63 37.6423841,0.7 37.8278146,0.863333333 C38.013245,1.00333333 38.1754967,1.33 38.2682119,1.77333333 L41.9304636,17.4066667 L45.9403974,1.77333333 C46.0794702,1.30666667 46.2417219,1.00333333 46.4039735,0.863333333 C46.589404,0.723333333 46.8907285,0.63 47.307947,0.63 L49.4635762,0.63 C49.8344371,0.63 50.0430464,0.816666667 50.0430464,1.21333333 C50.0430464,1.33 50.0198675,1.44666667 49.9966887,1.58666667 C49.9735099,1.72666667 49.9271523,1.91333333 49.8344371,2.17 L44.2483444,20.2066667 C44.1092715,20.6733333 43.9470199,20.9766667 43.7615894,21.1166667 C43.5761589,21.2566667 43.2748344,21.35 42.8807947,21.35 L40.8874172,21.35 C40.4470199,21.35 40.1456954,21.28 39.9602649,21.1166667 C39.7748344,20.9533333 39.6125828,20.65 39.5198675,20.1833333 L35.9271523,5.13333333 L32.3576159,20.16 C32.2417219,20.6266667 32.102649,20.93 31.9172185,21.0933333 C31.7317881,21.2566667 31.4072848,21.3266667 30.9900662,21.3266667 L28.9966887,21.3266667 Z M58.781457,21.9566667 C57.5761589,21.9566667 56.3708609,21.8166667 55.2119205,21.5366667 C54.0529801,21.2566667 53.1490066,20.9533333 52.5463576,20.6033333 C52.1754967,20.3933333 51.9205298,20.16 51.8278146,19.95 C51.7350993,19.74 51.6887417,19.5066667 51.6887417,19.2966667 L51.6887417,18.1066667 C51.6887417,17.6166667 51.8741722,17.3833333 52.2218543,17.3833333 C52.3609272,17.3833333 52.5,17.4066667 52.6390728,17.4533333 C52.7781457,17.5 52.986755,17.5933333 53.218543,17.6866667 C54.0066225,18.0366667 54.8642384,18.3166667 55.7682119,18.5033333 C56.6953642,18.69 57.5993377,18.7833333 58.5264901,18.7833333 C59.986755,18.7833333 61.1225166,18.5266667 61.910596,18.0133333 C62.6986755,17.5 63.115894,16.7533333 63.115894,15.7966667 C63.115894,15.1433333 62.9072848,14.6066667 62.4900662,14.1633333 C62.0728477,13.72 61.2847682,13.3233333 60.1490066,12.95 L56.7880795,11.9 C55.0960265,11.3633333 53.8443709,10.57 53.0794702,9.52 C52.3145695,8.49333333 51.9205298,7.35 51.9205298,6.13666667 C51.9205298,5.15666667 52.1291391,4.29333333 52.5463576,3.54666667 C52.9635762,2.8 53.5198675,2.14666667 54.2152318,1.63333333 C54.910596,1.09666667 55.6986755,0.7 56.6258278,0.42 C57.5529801,0.14 58.5264901,0.0233333333 59.5463576,0.0233333333 C60.0562914,0.0233333333 60.589404,0.0466666667 61.0993377,0.116666667 C61.6324503,0.186666667 62.1192053,0.28 62.6059603,0.373333333 C63.0695364,0.49 63.5099338,0.606666667 63.9271523,0.746666667 C64.3443709,0.886666667 64.6688742,1.02666667 64.9006623,1.16666667 C65.2251656,1.35333333 65.4569536,1.54 65.5960265,1.75 C65.7350993,1.93666667 65.8046358,2.19333333 65.8046358,2.52 L65.8046358,3.61666667 C65.8046358,4.10666667 65.6192053,4.36333333 65.2715232,4.36333333 C65.0860927,4.36333333 64.7847682,4.27 64.3907285,4.08333333 C63.0695364,3.47666667 61.5860927,3.17333333 59.9403974,3.17333333 C58.6192053,3.17333333 57.5761589,3.38333333 56.8576159,3.82666667 C56.1390728,4.27 55.7682119,4.94666667 55.7682119,5.90333333 C55.7682119,6.55666667 56,7.11666667 56.4635762,7.56 C56.9271523,8.00333333 57.7847682,8.44666667 59.013245,8.84333333 L62.3046358,9.89333333 C63.9735099,10.43 65.1788079,11.1766667 65.897351,12.1333333 C66.615894,13.09 66.9635762,14.1866667 66.9635762,15.4 C66.9635762,16.4033333 66.7549669,17.3133333 66.3609272,18.1066667 C65.9437086,18.9 65.3874172,19.6 64.6688742,20.16 C63.9503311,20.7433333 63.0927152,21.1633333 62.0960265,21.4666667 C61.0529801,21.7933333 59.9635762,21.9566667 58.781457,21.9566667 Z" id="Shape" fill="#252F3E" fill-rule="nonzero"></path>
                <g id="Group" transform="translate(0.000000, 26.133333)" fill="#FF9900">
                    <path d="M63.1622517,7.16333333 C55.5364238,12.8333333 44.4569536,15.8433333 34.9304636,15.8433333 C21.5794702,15.8433333 9.54966887,10.8733333 0.463576159,2.61333333 C-0.254966887,1.96 0.394039735,1.07333333 1.25165563,1.58666667 C11.0794702,7.32666667 23.2019868,10.8033333 35.7417219,10.8033333 C44.2019868,10.8033333 53.4966887,9.03 62.0496689,5.39 C63.3245033,4.80666667 64.4139073,6.23 63.1622517,7.16333333 Z" id="Path"></path>
                    <path d="M66.3377483,3.52333333 C65.3642384,2.26333333 59.8940397,2.91666667 57.4139073,3.22 C56.6721854,3.31333333 56.5562914,2.66 57.2284768,2.17 C61.5860927,-0.91 68.7483444,-0.0233333333 69.5827815,1.00333333 C70.4172185,2.05333333 69.3509934,9.26333333 65.2715232,12.7166667 C64.6456954,13.2533333 64.0430464,12.9733333 64.3211921,12.2733333 C65.2483444,9.96333333 67.3112583,4.76 66.3377483,3.52333333 Z" id="Path"></path>
                </g>
            </g>
        </g>
    </g>
</svg>