<?xml version="1.0" encoding="UTF-8"?>
<svg width="70px" height="70px" viewBox="0 0 70 70" version="1.1" xmlns="http://www.w3.org/2000/svg" xmlns:xlink="http://www.w3.org/1999/xlink">
    <!-- Generator: sketchtool 63.1 (101010) - https://sketch.com -->
    <title>3BF6AD08-E179-40C1-B4D0-A27616DC8E1D</title>
    <desc>Created with sketchtool.</desc>
    <g id="Page-1" stroke="none" stroke-width="1" fill="none" fill-rule="evenodd">
        <g id="Storage-UI-elements" transform="translate(-504.000000, -68.000000)" fill="#0071F7" fill-rule="nonzero">
            <g id="Box,_Inc._logo" transform="translate(504.000000, 80.000000)">
                <path d="M67.7804878,33.1636364 C68.6341463,34.3727273 68.4634146,35.9272727 67.4390244,36.7909091 C66.2439024,37.6545455 64.5365854,37.4818182 63.6829268,36.4454545 L57.7073171,28.6727273 L51.902439,36.2727273 C51.0487805,37.4818182 49.3414634,37.4818182 48.1463415,36.6181818 C46.9512195,35.7545455 46.7804878,34.2 47.6341463,32.9909091 L54.4634146,24.0090909 L47.6341463,15.0272727 C46.7804878,13.8181818 47.1219512,12.0909091 48.1463415,11.2272727 C49.3414634,10.3636364 51.0487805,10.7090909 51.902439,11.7454545 L57.7073171,19.5181818 L63.6829268,12.0909091 C64.5365854,10.8818182 66.0731707,10.7090909 67.4390244,11.5727273 C68.6341463,12.4363636 68.6341463,14.1636364 67.7804878,15.3727273 L61.1219512,24.1818182 L67.7804878,33.1636364 L67.7804878,33.1636364 Z M36.7073171,32.1272727 C32.2682927,32.1272727 28.6829268,28.6727273 28.6829268,24.1818182 C28.6829268,19.8636364 32.2682927,16.2363636 36.7073171,16.2363636 C41.1463415,16.2363636 44.7317073,19.8636364 44.7317073,24.1818182 C44.5609756,28.6727273 40.9756098,32.1272727 36.7073171,32.1272727 Z M13.1463415,32.1272727 C8.70731707,32.1272727 5.12195122,28.6727273 5.12195122,24.1818182 C5.12195122,19.8636364 8.70731707,16.2363636 13.1463415,16.2363636 C17.5853659,16.2363636 21.1707317,19.8636364 21.1707317,24.1818182 C21.1707317,28.6727273 17.5853659,32.1272727 13.1463415,32.1272727 Z M36.7073171,11.0545455 C31.7560976,11.0545455 27.3170732,13.8181818 25.097561,17.9636364 C22.8780488,13.8181818 18.4390244,11.0545455 13.3170732,11.0545455 C10.2439024,11.0545455 7.51219512,12.0909091 5.29268293,13.6454545 L5.29268293,2.59090909 C5.29268293,1.20909091 4.09756098,0 2.73170732,0 C1.19512195,0 0,1.20909091 0,2.59090909 L0,24.3545455 C0.170731707,31.6090909 5.97560976,37.3090909 13.1463415,37.3090909 C18.2682927,37.3090909 22.7073171,34.3727273 24.9268293,30.2272727 C27.1463415,34.3727273 31.5853659,37.3090909 36.5365854,37.3090909 C43.8780488,37.3090909 49.8536585,31.4363636 49.8536585,24.0090909 C50.0243902,16.9272727 44.0487805,11.0545455 36.7073171,11.0545455 Z" id="Shape"></path>
            </g>
        </g>
    </g>
</svg>