<?xml version="1.0" encoding="UTF-8"?>
<svg width="26px" height="10px" viewBox="0 0 26 10" version="1.1" xmlns="http://www.w3.org/2000/svg" xmlns:xlink="http://www.w3.org/1999/xlink">
    <!-- Generator: sketchtool 63.1 (101010) - https://sketch.com -->
    <title>6BFAD509-647B-4031-A6EE-4583C6FB6EC7</title>
    <desc>Created with sketchtool.</desc>
    <g id="Page-1" stroke="none" stroke-width="1" fill="none" fill-rule="evenodd">
        <g id="Storage-UI-elements" transform="translate(-492.000000, -1145.000000)" fill="#4983FF">
            <g id="menu" transform="translate(492.000000, 1145.000000)">
                <path d="M17,8 C17.5522847,8 18,8.44771525 18,9 C18,9.55228475 17.5522847,10 17,10 L1,10 C0.44771525,10 6.76353751e-17,9.55228475 0,9 C-6.76353751e-17,8.44771525 0.44771525,8 1,8 L17,8 Z M25,0 C25.5522847,-1.01453063e-16 26,0.44771525 26,1 C26,1.55228475 25.5522847,2 25,2 L1,2 C0.44771525,2 6.76353751e-17,1.55228475 0,1 C-6.76353751e-17,0.44771525 0.44771525,1.01453063e-16 1,0 L25,0 Z"></path>
            </g>
        </g>
    </g>
</svg>