<?xml version="1.0" encoding="UTF-8"?>
<svg width="140px" height="24px" viewBox="0 0 140 24" version="1.1" xmlns="http://www.w3.org/2000/svg" xmlns:xlink="http://www.w3.org/1999/xlink">
    <!-- Generator: sketchtool 63.1 (101010) - https://sketch.com -->
    <title>51F22343-FE6D-4CE9-A187-C0BB06DB96C2</title>
    <desc>Created with sketchtool.</desc>
    <g id="Page-1" stroke="none" stroke-width="1" fill="none" fill-rule="evenodd">
        <g id="zentry-student-profile-copy-7" transform="translate(-178.000000, -21.000000)">
            <g id="TeleTeachers" transform="translate(178.000000, 21.000000)">
                <path d="M26.2339559,10.6960951 L23.9925297,10.6960951 C23.8389402,10.6960951 23.7144312,10.5715861 23.7144312,10.4179966 L23.7144312,9.22003396 C23.7144312,9.06644441 23.8389402,8.94193548 23.9925297,8.94193548 L30.3959253,8.94193548 C30.5448547,8.94830575 30.6622754,9.0709684 30.6621393,9.22003396 L30.6621393,10.4203735 C30.6610081,10.5685182 30.5439391,10.6897682 30.3959253,10.6960951 L28.1544992,10.6960951 L28.1544992,18.9202037 C28.1495684,19.0717039 28.0279009,19.1933715 27.8764007,19.1983022 L26.5144312,19.1983022 C26.362931,19.1933715 26.2412635,19.0717039 26.2363328,18.9202037 L26.2363328,10.6960951 L26.2339559,10.6960951 Z" id="Path" fill="#F1593A" fill-rule="nonzero"></path>
                <path d="M33.2957555,9.22003396 C33.2957555,9.06644441 33.4202644,8.94193548 33.573854,8.94193548 L39.5375212,8.94193548 C39.6911108,8.94193548 39.8156197,9.06644441 39.8156197,9.22003396 L39.8156197,10.4203735 C39.8143149,10.573034 39.6901873,10.6961007 39.5375212,10.6960951 L35.2020374,10.6960951 L35.2020374,13.1039049 L38.8220713,13.1039049 C38.9735715,13.1088356 39.0952391,13.2305032 39.1001698,13.3820034 L39.1001698,14.5989813 C39.1001698,14.7525709 38.9756609,14.8770798 38.8220713,14.8770798 L35.2020374,14.8770798 L35.2020374,17.4393888 L39.5398981,17.4393888 C39.6934877,17.4393888 39.8179966,17.5638977 39.8179966,17.7174873 L39.8179966,18.9202037 C39.8179966,19.0737933 39.6934877,19.1983022 39.5398981,19.1983022 L33.573854,19.1983022 C33.4202644,19.1983022 33.2957555,19.0737933 33.2957555,18.9202037 L33.2957555,9.22003396 Z" id="Path" fill="#F1593A" fill-rule="nonzero"></path>
                <path d="M43.0220712,9.22003396 C43.0220712,9.06644441 43.1465802,8.94193548 43.3001698,8.94193548 L44.6478778,8.94193548 C44.7984492,8.94808436 44.9187431,9.06941526 44.9235993,9.22003396 L44.9235993,17.4393888 L48.6601019,17.4393888 C48.8136914,17.4393888 48.9382003,17.5638977 48.9382003,17.7174873 L48.9382003,18.9202037 C48.9382003,19.0737933 48.8136914,19.1983022 48.6601019,19.1983022 L43.2882852,19.1983022 C43.1393558,19.1919319 43.0219351,19.0692693 43.0220712,18.9202037 L43.0220712,9.22003396 L43.0220712,9.22003396 Z" id="Path" fill="#F1593A" fill-rule="nonzero"></path>
                <path d="M51.510017,9.22003396 C51.510017,9.06644441 51.6345259,8.94193548 51.7881154,8.94193548 L57.7589134,8.94193548 C57.912503,8.94193548 58.0370119,9.06644441 58.0370119,9.22003396 L58.0370119,10.4203735 C58.035707,10.573034 57.9115795,10.6961007 57.7589134,10.6960951 L53.4139219,10.6960951 L53.4139219,13.1039049 L57.0339559,13.1039049 C57.185456,13.1088356 57.3071236,13.2305032 57.3120543,13.3820034 L57.3120543,14.5989813 C57.3120543,14.7525709 57.1875454,14.8770798 57.0339559,14.8770798 L53.4139219,14.8770798 L53.4139219,17.4393888 L57.7589134,17.4393888 C57.912503,17.4393888 58.0370119,17.5638977 58.0370119,17.7174873 L58.0370119,18.9202037 C58.0370119,18.99396 58.0077123,19.0646955 57.9555587,19.1168491 C57.9034051,19.1690026 57.8326697,19.1983022 57.7589134,19.1983022 L51.7881154,19.1983022 C51.6345259,19.1983022 51.510017,19.0737933 51.510017,18.9202037 L51.510017,9.22003396 Z" id="Path" fill="#F1593A" fill-rule="nonzero"></path>
                <path d="M62.9881154,9.57181664 L60.1976231,9.57181664 C60.1407051,9.57613573 60.0850945,9.55329895 60.0476387,9.51022485 C60.010183,9.46715075 59.9952895,9.40890774 60.0074703,9.35314092 L60.0074703,9.13208829 C60.0061495,9.08126322 60.0257589,9.0321259 60.0617098,8.99617502 C60.0976607,8.96022414 60.146798,8.94061468 60.1976231,8.94187283 L66.4988115,8.94187283 C66.5496366,8.94061468 66.5987739,8.96022414 66.6347248,8.99617502 C66.6706757,9.0321259 66.6902852,9.08126322 66.689027,9.13208829 L66.689027,9.36977929 C66.6902852,9.42060435 66.6706757,9.46974167 66.6347248,9.50569256 C66.5987739,9.54164344 66.5496366,9.56125289 66.4988115,9.55993209 L63.6845501,9.55993209 L63.6845501,19.0152801 C63.6805665,19.0729839 63.6525977,19.1263819 63.6074313,19.162515 C63.562265,19.1986481 63.5040299,19.2142132 63.4468591,19.2054329 L63.1830221,19.2054329 C63.0772076,19.2054644 62.9906963,19.1210631 62.9881154,19.0152801 L62.9881154,9.57181664 Z" id="Path" fill="#231F20" fill-rule="nonzero"></path>
                <path d="M69.4580645,9.13208829 C69.4605707,9.02812559 69.5442546,8.94444169 69.6482173,8.94193548 L75.5239389,8.94193548 C75.6279016,8.94444169 75.7115855,9.02812559 75.7140917,9.13208829 L75.7140917,9.36977929 C75.7115855,9.47374198 75.6279016,9.55742588 75.5239389,9.55993209 L70.1616299,9.55993209 L70.1616299,13.6006791 L74.8061121,13.6006791 C74.9100747,13.6031853 74.9937586,13.6868692 74.9962649,13.7908319 L74.9962649,14.0285229 C74.9937586,14.1324856 74.9100747,14.2161695 74.8061121,14.2186757 L70.1616299,14.2186757 L70.1616299,18.5826825 L75.5239389,18.5826825 C75.6279016,18.5851887 75.7115855,18.6688726 75.7140917,18.7728353 L75.7140917,19.0105263 C75.7115855,19.114489 75.6279016,19.1981729 75.5239389,19.2006791 L69.6434635,19.2006791 C69.5395008,19.1981729 69.4558169,19.114489 69.4533107,19.0105263 L69.4533107,9.13208829 L69.4580645,9.13208829 Z" id="Path" fill="#231F20" fill-rule="nonzero"></path>
                <path d="M77.8533107,19.0152801 L82.3694397,8.81595925 C82.4057511,8.75306358 82.4727073,8.71415659 82.5453311,8.71375212 L82.5881154,8.71375212 C82.6667061,8.7043389 82.7427605,8.74521816 82.7782683,8.81595925 L87.2468591,19.0152801 C87.275382,19.1032258 87.275382,19.1911715 87.116129,19.1911715 L86.7358234,19.1911715 C86.6488995,19.1882746 86.5704984,19.1381343 86.5314092,19.0604414 L85.3429542,16.3650255 L79.7429542,16.3650255 L78.5711375,19.0604414 C78.5320483,19.1381343 78.4536472,19.1882746 78.3667233,19.1911715 L77.9626486,19.1911715 C77.8533107,19.1983022 77.8105263,19.1412564 77.8533107,19.0152801 Z M85.0933786,15.7993209 L82.5857385,9.8950764 L82.5572156,9.8950764 L80.0067912,15.7993209 L85.0933786,15.7993209 Z" id="Shape" fill="#231F20" fill-rule="nonzero"></path>
                <path d="M94.4988115,8.79456706 C95.8202281,8.76145103 97.1013819,9.25085179 98.0641766,10.1565365 C98.1013996,10.1894235 98.1238699,10.2358713 98.1265509,10.2854689 C98.1292318,10.3350665 98.1118992,10.3836658 98.078438,10.4203735 L97.840747,10.6580645 C97.8097653,10.6925587 97.7647436,10.7110405 97.7184617,10.7082636 C97.6721799,10.7054867 97.6296911,10.6817543 97.603056,10.6438031 C96.0768925,9.2803931 93.8334677,9.08936026 92.0987535,10.1750989 C90.3640392,11.2608375 89.5553654,13.3621454 90.1146506,15.3307139 C90.6739358,17.2992824 92.4666298,18.661522 94.513073,18.6730051 C95.7728353,18.6730051 96.7259762,18.173854 97.603056,17.4417657 C97.664222,17.374575 97.7654208,17.3624312 97.840747,17.4132428 L98.078438,17.6509338 C98.1436974,17.7167261 98.1436974,17.8228324 98.078438,17.8886248 C97.1233716,18.8137554 95.842694,19.3260265 94.513073,19.3147708 C92.5415721,19.4627085 90.6528948,18.4956733 89.6204154,16.8096461 C88.587936,15.1236189 88.5850596,13.0017681 89.6129639,11.3129478 C90.6408683,9.62412742 92.5269168,8.6519751 94.4988115,8.79456706 Z" id="Path" fill="#231F20" fill-rule="nonzero"></path>
                <path d="M101.54635,9.13208829 C101.548856,9.02812559 101.63254,8.94444169 101.736503,8.94187283 L102.043124,8.94187283 C102.093949,8.94061468 102.143086,8.96022414 102.179037,8.99617502 C102.214988,9.0321259 102.234598,9.08126322 102.233277,9.13208829 L102.233277,13.6315789 L108.812564,13.6315789 L108.812564,9.13208829 C108.81507,9.02812559 108.898754,8.94444169 109.002716,8.94187283 L109.309338,8.94187283 C109.360163,8.94061468 109.4093,8.96022414 109.445251,8.99617502 C109.481202,9.0321259 109.500811,9.08126322 109.499553,9.13208829 L109.499553,19.0152801 C109.500811,19.0661052 109.481202,19.1152425 109.445251,19.1511934 C109.4093,19.1871443 109.360163,19.2067537 109.309338,19.2054956 L109.005093,19.2054956 C108.901131,19.2029267 108.817447,19.1192428 108.814941,19.0152801 L108.814941,14.2614601 L102.235654,14.2614601 L102.235654,19.0152801 C102.236974,19.0661052 102.217365,19.1152425 102.181414,19.1511934 C102.145463,19.1871443 102.096326,19.2067537 102.045501,19.2054956 L101.731749,19.2054956 C101.627786,19.2029267 101.544102,19.1192428 101.541596,19.0152801 L101.541596,9.13208829 L101.54635,9.13208829 Z" id="Path" fill="#231F20" fill-rule="nonzero"></path>
                <path d="M113.706621,9.13208829 C113.709128,9.02812559 113.792811,8.94444169 113.896774,8.94193548 L119.772496,8.94193548 C119.876458,8.94444169 119.960142,9.02812559 119.962649,9.13208829 L119.962649,9.36977929 C119.960142,9.47374198 119.876458,9.55742588 119.772496,9.55993209 L114.410187,9.55993209 L114.410187,13.6006791 L119.054669,13.6006791 C119.158632,13.6031853 119.242316,13.6868692 119.244822,13.7908319 L119.244822,14.0285229 C119.242316,14.1324856 119.158632,14.2161695 119.054669,14.2186757 L114.410187,14.2186757 L114.410187,18.5826825 L119.772496,18.5826825 C119.876458,18.5851887 119.960142,18.6688726 119.962649,18.7728353 L119.962649,19.0105263 C119.960142,19.114489 119.876458,19.1981729 119.772496,19.2006791 L113.899151,19.2006791 C113.795188,19.1981729 113.711505,19.114489 113.708998,19.0105263 L113.708998,9.13208829 L113.706621,9.13208829 Z" id="Path" fill="#231F20" fill-rule="nonzero"></path>
                <path d="M123.568421,9.13208829 C123.5671,9.08126322 123.58671,9.0321259 123.622661,8.99617502 C123.658611,8.96022414 123.707749,8.94061468 123.758574,8.94187283 L127.402377,8.94187283 C129.189813,8.94187283 130.670628,10.2896435 130.670628,12.0770798 C130.649282,13.5310295 129.652204,14.7885955 128.241426,15.1409168 L130.380645,18.9439728 C130.454329,19.0604414 130.425806,19.2078098 130.278438,19.2078098 L129.824448,19.2078098 C129.735218,19.2129889 129.652759,19.1602537 129.620034,19.0770798 L127.495076,15.2383701 C127.304924,15.2526316 127.143294,15.2526316 126.953141,15.2526316 L124.257725,15.2526316 L124.257725,19.0152801 C124.253741,19.0729839 124.225773,19.1263819 124.180606,19.162515 C124.13544,19.1986481 124.077205,19.2142132 124.020034,19.2054329 L123.756197,19.2054329 C123.652234,19.2029267 123.56855,19.1192428 123.566044,19.0152801 L123.566044,9.13208829 L123.568421,9.13208829 Z M127.371477,14.6275042 C128.054515,14.6363884 128.712775,14.3719151 129.199797,13.8929275 C129.68682,13.41394 129.962207,12.7601713 129.964686,12.0770798 C129.964686,10.6842105 128.776231,9.61460102 127.350085,9.61460102 L124.271986,9.61460102 L124.271986,14.6275042 L127.361969,14.6275042 L127.371477,14.6275042 Z" id="Shape" fill="#231F20" fill-rule="nonzero"></path>
                <path d="M133.582343,17.8268251 L133.713073,17.6509338 C133.741563,17.5927148 133.795976,17.5514575 133.859724,17.5397391 C133.923472,17.5280207 133.989001,17.5472299 134.036333,17.591511 C134.183701,17.7222411 135.267572,18.7205433 136.74601,18.7205433 C138.079457,18.7205433 139.208489,17.8268251 139.208489,16.7572156 C139.208489,15.452292 138.138879,14.8556876 136.356197,14.2662139 C134.656706,13.6648557 133.527674,13.0658744 133.527674,11.3806452 C133.527674,10.2825127 134.407131,8.78743633 136.693718,8.78743633 C137.586547,8.79758981 138.458935,9.05601401 139.213243,9.53378608 C139.264519,9.56427569 139.300337,9.61520939 139.311688,9.67377635 C139.323038,9.73234331 139.30884,9.79296995 139.272666,9.84040747 C139.228546,9.90039108 139.189584,9.96400254 139.156197,10.0305603 C139.128323,10.088831 139.075354,10.1311736 139.012375,10.1455291 C138.949396,10.1598846 138.88331,10.1446796 138.832937,10.1042445 C138.18956,9.68626199 137.445965,9.44824594 136.679457,9.41494058 C134.877759,9.41494058 134.202716,10.5273345 134.202716,11.3640068 C134.202716,12.6095076 135.15348,13.1514431 136.634295,13.6363328 C138.642784,14.3256367 139.916808,15.029202 139.916808,16.7263158 C139.916808,18.1904924 138.40747,19.3409168 136.722241,19.3409168 C135.576166,19.3267992 134.473442,18.9007278 133.61562,18.1405772 C133.558701,18.1118353 133.520257,18.0561725 133.513532,17.992764 C133.506807,17.9293555 133.532719,17.8668671 133.582343,17.8268251 L133.582343,17.8268251 Z" id="Path" fill="#231F20" fill-rule="nonzero"></path>
                <path d="M10.5677419,4.94619503 C12.3623039,4.93816696 14.1435499,5.25463606 15.8254669,5.88047538 C16.8166862,6.27535 17.6697818,6.95319732 18.278438,7.8295416 C18.7894737,8.57589134 18.9606112,9.42444822 19.1079796,10.2896435 C19.229202,11.0027165 19.1079796,11.701528 19.0556876,12.4050934 C18.9202037,14.0237691 18.2,15.82309 17.1398981,17.4203735 L14.9008489,20.0112054 C14.2033684,20.6408904 13.4087543,21.1537777 12.547708,21.5300509 C11.640445,21.8972033 10.673928,22.0961447 9.69541596,22.1171477 C8.43327674,22.1171477 7.13310696,21.6536503 6.60543294,21.5110357 C5.65466893,21.2471986 4.87979626,20.6862479 4.11918506,20.0848896 C3.24448217,19.3955857 2.61460102,18.5066214 1.99185059,17.6081494 C1.64787475,17.0862078 1.34585187,16.5377978 1.08862479,15.9680815 C0.790568306,15.3802386 0.547869179,14.7659313 0.363667233,14.133107 C-0.0636634381,12.6186648 -0.106959324,11.0216184 0.237691002,9.48624788 C0.327031108,9.16691814 0.461494094,8.86197529 0.637011885,8.58064516 C0.879888501,8.12940935 1.19367678,7.72012029 1.5663837,7.36842105 C2.02994858,6.95041206 2.57100618,6.6273926 3.15891341,6.41765705 C4.3188455,5.98743633 6.85976231,4.94872666 10.5677419,4.94619503 Z" id="Path" fill="#F1593A" fill-rule="nonzero"></path>
                <g id="Group" style="mix-blend-mode: multiply;" transform="translate(0.713073, 5.466893)">
                    <path d="M19.2149406,8.93718166 C18.9171195,10.1465261 18.4310514,11.3015394 17.7745331,12.3599321 C17.5917715,12.6619782 17.5601375,13.031921 17.6889643,13.3606112 L18.6064516,15.7232598 C18.6262098,15.7837423 18.6131376,15.8501462 18.571929,15.8986269 C18.5307204,15.9471076 18.4672899,15.9707069 18.4044143,15.9609508 L16.4363328,15.6139219 L15.7398981,15.4926995 C15.4342366,15.4383732 15.1199686,15.5180224 14.8770798,15.7113752 C14.2743418,16.2053034 13.605501,16.6125282 12.889983,16.9212224 C11.9827201,17.2883748 11.016203,17.4873162 10.037691,17.5083192 C8.77555178,17.5083192 7.475382,17.0448217 6.94770798,16.9022071 C5.99694397,16.6383701 5.22207131,16.0774194 4.4614601,15.4760611 C3.58675722,14.7891341 2.95212224,13.9001698 2.33650255,13.0016978 C1.90417994,12.3286805 1.52814394,11.6211286 1.21222411,10.8862479 C0.999327659,10.4430977 0.826703006,9.98170458 0.696434635,9.50764007 C0.285658546,8.03575197 0.236731147,6.48638435 0.553820034,4.99151104 C0.612253446,4.74254773 0.70420762,4.50266727 0.827164686,4.27843803 C1.09517922,3.7204295 1.45878563,3.21363296 1.90152801,2.78098472 C2.36365809,2.35702094 2.90481232,2.02828994 3.49405772,1.81358234 C4.65398981,1.39524618 7.19490662,0.356536503 10.9005093,0.354159593 C12.696522,0.344642583 14.4794251,0.660314676 16.1629881,1.28590832 C17.1542074,1.68078294 18.0073031,2.35863026 18.6159593,3.23497453 C19.1269949,3.98132428 19.2981324,4.82988115 19.4455008,5.6950764 C19.5667233,6.40814941 19.4455008,7.10696095 19.3932088,7.81052632 L19.2149406,8.93718166 Z" id="Path"></path>
                    <polygon id="Path" fill="#231F20" fill-rule="nonzero" points="2.43157895 2.11307301 2.44821732 2.11307301 2.47674024 2.07979626"></polygon>
                    <path d="M5.47877759,0.950764007 L5.49779287,0.950764007 C5.49779287,0.950764007 5.50016978,0.950764007 5.47877759,0.950764007 Z" id="Path" fill="#231F20" fill-rule="nonzero"></path>
                    <path d="M0.401697793,8.96570458 C0.405108848,8.98347397 0.409876627,9.00095583 0.415959253,9.0179966 L0.401697793,8.96570458 Z" id="Path" fill="#231F20" fill-rule="nonzero"></path>
                    <polygon id="Path" fill="#231F20" fill-rule="nonzero" points="14.4801358 16.2105263 14.4801358 16.2105263 14.4991511 16.2010187"></polygon>
                    <path d="M14.4302207,16.2533107 C14.3684211,16.2913413 14.4421053,16.2366723 14.4682513,16.217657 C14.3993209,16.2580645 14.3327674,16.3032258 14.2685908,16.350764 C14.2614601,16.3578947 14.396944,16.2699491 14.4302207,16.2533107 Z" id="Path" fill="#231F20" fill-rule="nonzero"></path>
                    <path d="M18.9796265,10.170798 L18.9796265,10.2016978 L18.9796265,10.170798 Z" id="Path" fill="#231F20" fill-rule="nonzero"></path>
                    <path d="M0.696434635,8.58777589 L0.696434635,8.63531409 C0.697251986,8.61947856 0.697251986,8.60361142 0.696434635,8.58777589 L0.696434635,8.58777589 Z" id="Path" fill="#231F20" fill-rule="nonzero"></path>
                    <path d="M18.278438,11.7229202 L18.278438,11.7443124 C18.2831919,11.727674 18.2808149,11.7229202 18.278438,11.7229202 Z" id="Path" fill="#231F20" fill-rule="nonzero"></path>
                    <path d="M2.47674024,2.07028862 L2.49575552,2.05365025 L2.47674024,2.07028862 Z" id="Path" fill="#231F20" fill-rule="nonzero"></path>
                    <path d="M8.40950764,0.344651952 C8.4149058,0.346463707 8.42074785,0.346463707 8.42614601,0.344651952 L8.42614601,0.344651952 L8.40950764,0.344651952 Z" id="Path" fill="#231F20" fill-rule="nonzero"></path>
                    <path d="M19.4597623,7.00237691 L19.4597623,7.00237691 L19.4597623,6.93582343 C19.4597623,6.96672326 19.4597623,6.98811545 19.4597623,7.00237691 Z" id="Path" fill="#231F20" fill-rule="nonzero"></path>
                    <path d="M12.5049236,0.316129032 L12.5191851,0.316129032 C12.4502547,0.304244482 12.2648557,0.282852292 12.0295416,0.268590832 L12.0129032,0.282852292 L12.2505942,0.299490662 L12.5049236,0.316129032 Z" id="Path" fill="#231F20" fill-rule="nonzero"></path>
                    <path d="M16.6692699,1.76366723 C16.6692699,1.76366723 16.5813243,1.70662139 16.4910017,1.65432937 L16.3079796,1.54974533 C16.8087765,1.77126353 17.2709677,2.07136685 17.6770798,2.43870968 C18.0454,2.77127261 18.3654185,3.15369478 18.6278438,3.57487267 L18.5898132,3.52495756 C18.6662756,3.64299556 18.7361064,3.76519941 18.7989813,3.8910017 C19.0263918,4.41389884 19.1676641,4.97015854 19.2173175,5.53820034 L19.2173175,5.53820034 C19.2326512,5.60237341 19.2437673,5.66748151 19.2505942,5.73310696 L19.2054329,5.40271647 C19.2573343,5.60282292 19.2962383,5.80607684 19.3219015,6.01120543 C19.328062,6.03698856 19.328062,6.06386034 19.3219015,6.08964346 C19.3219015,6.08964346 19.3219015,6.24414261 19.3219015,6.40101868 C19.3219015,6.55789474 19.3219015,6.71714771 19.3219015,6.71714771 L19.2910017,6.90967742 C19.3084145,7.12195628 19.2956099,7.33563213 19.2529711,7.54431239 C19.2981324,7.34702886 19.2529711,7.81052632 19.2529711,7.74634975 C19.2529711,7.74634975 19.2529711,7.79151104 19.2529711,7.79626486 L19.2339559,7.86994907 C19.1864177,8.18132428 19.1008489,8.77079796 19.0913413,8.91816638 L19.229202,8.27164686 C19.2648557,8.10288625 19.3076401,7.91511036 19.336163,7.76298812 C19.3646859,7.61086587 19.3837012,7.46349745 19.3979626,7.3803056 C19.3480475,7.82241087 19.3979626,7.49677419 19.3979626,7.41120543 L19.3979626,7.3803056 C19.4312394,7.11646859 19.4478778,7.1188455 19.4645161,6.98573854 L19.4645161,6.98573854 L19.4645161,7.01188455 C19.4645161,7.0237691 19.4645161,7.01188455 19.4645161,7.01188455 C19.4554606,6.98570726 19.4554606,6.9572469 19.4645161,6.93106961 L19.4645161,6.94533107 L19.4906621,6.55076401 L19.4906621,6.55076401 C19.4906621,6.45093379 19.4906621,6.12054329 19.4645161,5.78064516 C19.4383701,5.44074703 19.3741935,5.09609508 19.3456706,4.96536503 C19.2874547,4.65898411 19.202349,4.35833024 19.0913413,4.06689304 C18.9962649,3.81731749 18.9677419,3.75551783 18.9582343,3.72224109 C18.9498676,3.66766861 18.9330261,3.61473834 18.9083192,3.56536503 C18.75382,3.26349745 18.9273345,3.63191851 18.860781,3.51544992 C18.860781,3.51544992 18.8156197,3.42512733 18.7680815,3.33480475 C18.7205433,3.24448217 18.6634975,3.16129032 18.6634975,3.16129032 C18.7966044,3.35619694 18.7324278,3.24448217 18.7134126,3.20645161 C18.5348568,2.91593448 18.3164296,2.65190164 18.0645161,2.42207131 C17.9124193,2.25173014 17.7479665,2.0928385 17.5724958,1.9466893 C17.6251332,1.99044078 17.6751356,2.03726851 17.7222411,2.08692699 C17.5820034,1.95857385 17.6509338,2.03225806 17.7079796,2.08692699 C17.484839,1.90284036 17.2515343,1.73143286 17.0091681,1.57351443 C16.8189894,1.44475412 16.6148636,1.33790697 16.4006791,1.25500849 L16.4006791,1.25500849 C16.3293718,1.25500849 16.4173175,1.31205433 16.2295416,1.25500849 L16.1106961,1.18845501 L15.9252971,1.11714771 C15.8016978,1.06485569 15.8658744,1.08149406 15.8658744,1.07911715 C15.5544992,0.979286927 15.1219015,0.841426146 14.739219,0.739219015 L14.9341256,0.822410866 L15.1266553,0.907979626 C14.8130972,0.795806734 14.4912285,0.708385601 14.1640068,0.646519525 L13.973854,0.584719864 C13.7408164,0.520561344 13.5019285,0.479950412 13.260781,0.463497453 L12.9327674,0.394567063 L13.2631579,0.442105263 C12.9351443,0.382682513 12.8020374,0.356536503 12.5500849,0.316129032 L12.5500849,0.316129032 L12.5833616,0.316129032 L12.5358234,0.316129032 C12.3858006,0.317165654 12.2358329,0.310024332 12.0865874,0.294736842 C11.75382,0.266213922 11.4923599,0.270967742 10.9575552,0.240067912 L10.8244482,0.266213922 L10.4251273,0.266213922 L10.4251273,0.237691002 C10.8173175,0.223429542 11.5589134,0.223429542 12.0628183,0.263837012 L12.0628183,0.263837012 C11.7395586,0.237691002 11.4091681,0.237691002 11.2,0.237691002 C11.1025467,0.237691002 10.855348,0.209168081 11.0359932,0.199660441 L10.8505942,0.216298812 C10.3514431,0.216298812 10.0994907,0.232937182 9.84278438,0.247198642 C9.5860781,0.261460102 9.324618,0.270967742 8.8040747,0.313752122 L8.89439728,0.313752122 C8.73744567,0.342518812 8.57851898,0.359206114 8.41901528,0.363667233 C7.79626486,0.442105263 7.15449915,0.549066214 6.75517827,0.613242784 L6.67198642,0.653650255 C6.54051669,0.667089752 6.41119536,0.696626105 6.28692699,0.741595925 L6.01595925,0.822410866 C5.84006791,0.867572156 5.73548387,0.907979626 5.54057725,0.953140917 L5.54057725,0.953140917 L5.50254669,0.953140917 L5.50254669,0.953140917 C5.10560272,1.05772496 5.50254669,0.969779287 5.06044143,1.09575552 C4.9106961,1.12427844 4.9106961,1.17419355 4.69202037,1.24074703 L4.45432937,1.28353141 C4.0573854,1.4 4.00271647,1.45942275 3.44414261,1.6614601 C3.16366723,1.75415959 3.02105263,1.79456706 3.19456706,1.68998302 C2.95687606,1.8278438 3.0852292,1.75178268 2.77147708,1.92767402 C2.71680815,1.94431239 2.75008489,1.92767402 2.81426146,1.875382 C2.68126445,1.941536 2.55541925,2.02118486 2.43870968,2.11307301 C2.39481016,2.17867912 2.34291106,2.2385627 2.28421053,2.29134126 L2.37691002,2.23429542 C2.17487267,2.38641766 1.96570458,2.55993209 1.74465195,2.7524618 L1.74465195,2.73582343 L1.63056027,2.85229202 L1.52597623,2.96876061 L1.50220713,2.96876061 C1.50220713,2.96876061 1.42852292,3.05432937 1.35959253,3.14227504 C1.29066214,3.23022071 1.22648557,3.32767402 1.22648557,3.32767402 L1.26689304,3.28013582 C1.20271647,3.36332767 1.01731749,3.65093379 0.912733447,3.81494058 L0.912733447,3.81494058 C0.765251696,4.03562973 0.640236573,4.27053076 0.539558574,4.51612903 C0.487958067,4.647417 0.446633989,4.78251495 0.415959253,4.92020374 C0.389813243,5.06281834 0.356536503,5.20543294 0.332767402,5.36468591 L0.332767402,5.26247878 C0.280475382,5.47640068 0.344651952,5.32665535 0.297113752,5.58098472 L0.275721562,5.58098472 C0.26839367,5.73271606 0.245292405,5.88327258 0.206791171,6.03022071 L0.237691002,5.97079796 L0.221052632,6.11816638 L0.206791171,6.2655348 C0.178268251,6.59117148 0.164006791,6.46519525 0.149745331,6.41528014 L0.161629881,6.63870968 L0.135483871,6.68149406 C0.164006791,6.84550085 0.135483871,6.84550085 0.147368421,7.13310696 C0.147368421,7.15687606 0.133106961,7.08556876 0.130730051,7.18302207 C0.130730051,7.18302207 0.130730051,7.30186757 0.159252971,7.42071307 C0.187775891,7.53955857 0.192529711,7.65840407 0.192529711,7.65840407 L0.173514431,7.51103565 L0.156876061,7.36842105 L0.192529711,7.40169779 C0.235314092,7.69405772 0.218675722,7.80101868 0.251952462,8.01018676 L0.237691002,7.86757216 C0.282852292,8.2098472 0.275721562,8.22886248 0.294736842,8.42139219 C0.294736842,8.36196944 0.294736842,8.26926995 0.313752122,8.40475382 C0.316857588,8.45541369 0.316857588,8.50621619 0.313752122,8.55687606 C0.371763957,8.71001033 0.410875777,8.86965041 0.430220713,9.03225806 C0.42328808,9.02789146 0.418210054,9.02112076 0.415959253,9.01324278 C0.436133447,9.07206083 0.451242225,9.13249594 0.461120543,9.19388795 L0.423089983,9.14159593 L0.489643463,9.32224109 C0.517959693,9.41739169 0.540189151,9.51424861 0.556196944,9.61222411 L0.532427844,9.54329372 C0.532427844,9.54329372 0.591850594,9.78098472 0.667911715,10.0186757 C0.743972835,10.2563667 0.831918506,10.4750424 0.831918506,10.4750424 L0.817657046,10.4940577 C0.881251401,10.6450764 0.954287683,10.7919429 1.03633277,10.9337861 C1.09337861,11.1049236 1.34770798,11.570798 1.27402377,11.4923599 C1.52765757,12.0167256 1.81096921,12.5262104 2.12258065,13.0183362 C2.38035644,13.4515129 2.66702725,13.8668283 2.98064516,14.2614601 C3.24990668,14.5989358 3.54301807,14.9166717 3.85772496,15.2122241 C4.00747029,15.3500849 4.16196944,15.4831919 4.33310696,15.6139219 C4.50424448,15.744652 4.67775891,15.8777589 4.87741935,16.0203735 C5.14646528,16.2465686 5.43889888,16.4433836 5.74974533,16.6074703 C6.07353717,16.7797808 6.41053944,16.9260271 6.75755518,17.0448217 L6.93344652,17.0780985 C7.32088285,17.2207131 7.95076401,17.379966 8.53073005,17.5273345 L8.79456706,17.5701188 C8.76708177,17.5661429 8.74097696,17.5555378 8.71850594,17.539219 C8.87852776,17.5645718 9.03718552,17.5978899 9.19388795,17.6390492 L9.14634975,17.6390492 C9.382364,17.6777688 9.62047797,17.7023739 9.85942275,17.7127334 L9.74533107,17.6794567 L9.90933786,17.6794567 L10.0733447,17.6794567 L9.98539898,17.6794567 C10.5589746,17.6588621 11.1294492,17.5856631 11.6896435,17.460781 C12.230783,17.3504158 12.7544953,17.1673164 13.2465195,16.9164686 C13.101528,17.0186757 13.4842105,16.7904924 13.5032258,16.8071307 C13.7757973,16.6841027 14.0301368,16.5241407 14.2590832,16.3317487 C14.2611669,16.3257012 14.2653951,16.3206273 14.2709677,16.3174873 L14.4682513,16.1843803 L14.660781,16.0465195 C14.4563667,16.2485569 14.9151104,15.8088285 14.7273345,15.9989813 C14.8453425,15.9052557 14.9683288,15.817975 15.0957555,15.7375212 C15.2235206,15.6701309 15.3649613,15.6327386 15.5093379,15.6281834 C15.5890354,15.6253764 15.6687912,15.6317569 15.7470289,15.6471986 L16.008489,15.6923599 L16.5409168,15.7850594 L17.6271647,15.9728353 L18.1667233,16.0679117 L18.3022071,16.1106961 C18.3734053,16.1268201 18.4473078,16.1268201 18.5185059,16.1106961 C18.6563541,16.07817 18.7595847,15.9635745 18.7775891,15.82309 C18.7711984,15.8543962 18.7608136,15.884752 18.7466893,15.9134126 C18.7796014,15.8318304 18.7796014,15.7406653 18.7466893,15.6590832 L18.5589134,15.1837012 C18.5018676,15.0363328 18.4495756,14.898472 18.4139219,14.7867572 C18.3324073,14.567385 18.2395834,14.3523827 18.1358234,14.1426146 C18.0587169,14.0148679 18.0093188,13.8723422 17.9908319,13.7242784 C17.9314092,13.57691 17.8624788,13.4319185 17.8006791,13.2845501 C17.7350801,13.1233326 17.7193484,12.9461443 17.7555178,12.7758913 C17.7697793,12.7449915 17.7864177,12.6617997 17.8268251,12.5619694 C17.8825957,12.4431717 17.9444781,12.3273405 18.0122241,12.2149406 C18.0941056,12.0450503 18.187003,11.8806933 18.2903226,11.7229202 L18.2903226,11.7229202 C18.5658251,11.2155657 18.8041421,10.6888851 19.0033956,10.1470289 L19.0033956,10.1803056 C19.0033956,10.1803056 19.0865874,9.87606112 19.1483871,9.56706282 C19.2101868,9.25806452 19.255348,8.94906621 19.255348,8.94906621 L19.1531409,9.10594228 L19.0485569,9.26044143 C19.0485569,9.26044143 18.9344652,9.50764007 18.8275042,9.74533107 C18.7205433,9.98302207 18.6016978,10.2207131 18.6016978,10.2207131 C18.4315237,10.6686727 18.2363093,11.1067148 18.0169779,11.5327674 C17.936163,11.6920204 17.8482173,11.8512733 17.7650255,12.0081494 C17.6785696,12.1474438 17.5992372,12.2910353 17.5273345,12.4383701 C17.4782704,12.556706 17.4470307,12.6816651 17.434635,12.8091681 C17.4314199,12.8574451 17.4314199,12.9058826 17.434635,12.9541596 C17.4310382,13.0953424 17.4519477,13.2360799 17.4964346,13.3701188 L17.7745331,14.1307301 L18.1786078,15.2241087 L18.3782683,15.7327674 L18.3782683,15.7327674 L18.2499151,15.7113752 L17.6224109,15.6020374 L16.3697793,15.3833616 L15.7327674,15.2740238 C15.4149469,15.2315363 15.0927332,15.3095459 14.8295416,15.4926995 L14.7368421,15.5640068 L14.6750424,15.611545 L14.4373514,15.8016978 C14.2709677,15.9252971 14.1006225,16.0433503 13.9263158,16.1558574 L13.7646859,16.272326 L13.6006791,16.3840407 C13.3629881,16.510017 13.0967742,16.6359932 12.8186757,16.7500849 C12.5309722,16.8645735 12.2374091,16.9637502 11.939219,17.0471986 C11.3459625,17.2236127 10.7303059,17.3132792 10.1113752,17.3134126 L10.0876061,17.3371817 C9.95856015,17.3443043 9.82913479,17.3347172 9.70254669,17.3086587 C8.92909134,17.24183 8.16541255,17.0895725 7.42546689,16.8546689 L6.85976231,16.6906621 C6.67928191,16.6346604 6.50228668,16.5679896 6.32971138,16.4910017 C5.98306074,16.3324687 5.65133934,16.1431409 5.3385399,15.9252971 C5.02716469,15.7089983 4.71578947,15.4713073 4.42580645,15.2359932 C4.14274631,14.9963304 3.87889457,14.7348629 3.63667233,14.4539898 C3.17143471,13.9017722 2.74495005,13.3180362 2.36027165,12.706961 C2.13881255,12.3364708 1.9380521,11.9539943 1.75891341,11.5612903 C1.54974533,11.1572156 1.33344652,10.7317487 1.15993209,10.3039049 C0.989469421,9.87718078 0.858972231,9.43555919 0.770118846,8.98471986 L0.770118846,9.0179966 L0.732088285,8.79456706 L0.689303905,8.59490662 C0.689303905,8.57589134 0.689303905,8.57351443 0.689303905,8.59490662 C0.570687218,7.99567331 0.522821491,7.38458752 0.546689304,6.77419355 L0.546689304,6.80747029 C0.549023859,6.3839993 0.583189168,5.96130292 0.648896435,5.54295416 C0.682173175,5.3385399 0.722580645,5.124618 0.770118846,4.9344652 C0.823295515,4.74307958 0.897428326,4.55814612 0.991171477,4.38302207 C1.1767698,4.01621921 1.39641012,3.66765958 1.64719864,3.34193548 C1.90216788,3.02912748 2.20074576,2.75456391 2.53378608,2.52665535 C2.86498797,2.29393869 3.22645761,2.10760589 3.60814941,1.97283531 C4.00509338,1.8278438 4.39728353,1.68047538 4.79660441,1.54736842 C5.60015252,1.27670576 6.4213219,1.06148632 7.25432937,0.903225806 C8.09199506,0.755001946 8.93701402,0.651854091 9.78573854,0.594227504 C10.6918862,0.526761658 11.6024027,0.545863404 12.5049236,0.651273345 C13.2246265,0.741747007 13.9387861,0.871882752 14.6441426,1.04108659 C15.0960836,1.14980935 15.5413178,1.28472878 15.9775891,1.44516129 C16.2140392,1.53804201 16.4449774,1.64438468 16.6692699,1.76366723 Z" id="Path" fill="#231F20" fill-rule="nonzero"></path>
                    <path d="M19.3147708,6.08964346 L19.3147708,6.075382 C19.3147708,6.075382 19.3076401,6.09677419 19.3147708,6.08964346 Z" id="Path" fill="#231F20" fill-rule="nonzero"></path>
                    <polygon id="Path" fill="#231F20" fill-rule="nonzero" points="14.7106961 0.729711375 14.7344652 0.736842105 14.6488964 0.701188455"></polygon>
                    <path d="M18.8251273,3.37283531 C18.7062818,3.17792869 18.6967742,3.17079796 18.7110357,3.19932088 L18.8251273,3.37283531 Z" id="Path" fill="#231F20" fill-rule="nonzero"></path>
                    <path d="M19.2244482,7.86519525 C19.2054329,7.98166384 19.2244482,7.93650255 19.2244482,7.86519525 C19.2365105,7.82221541 19.2460346,7.77856337 19.2529711,7.7344652 L19.2529711,7.67741935 L19.2529711,7.77724958 L19.2244482,7.86519525 Z" id="Path" fill="#231F20" fill-rule="nonzero"></path>
                    <path d="M19.4074703,7.41358234 L19.4074703,7.4516129 C19.4169779,7.3803056 19.414601,7.38268251 19.4074703,7.41358234 Z" id="Path" fill="#231F20" fill-rule="nonzero"></path>
                </g>
                <g id="Group" style="mix-blend-mode: multiply;" transform="translate(6.893039, 0.000000)" fill="#231F20" fill-rule="nonzero">
                    <path d="M1.0910017,1.54974533 C1.02920204,1.18845501 0.976910017,0.805772496 0.924617997,0.434974533 C0.922926999,0.398471456 0.906035069,0.364342309 0.878036726,0.340859828 C0.850038384,0.317377347 0.813489585,0.306685237 0.777249576,0.311375212 C0.606864029,0.307621278 0.436913123,0.330067624 0.273344652,0.377928693 C0.216824918,0.378189458 0.164677879,0.40838802 0.136320604,0.457279872 C0.10796333,0.506171725 0.107644895,0.566430877 0.135483871,0.615619694 C0.21650922,0.881190707 0.279248029,1.152 0.323259762,1.42614601 C0.366044143,1.62580645 0.777249576,3.08998302 0.777249576,3.08998302 C0.862818336,3.3704584 0.950764007,3.65093379 1.03870968,3.93140917 C1.10050934,4.0573854 1.16468591,4.18336163 1.21935484,4.31171477 C1.23086779,4.35276215 1.26102934,4.38599669 1.30077076,4.40142572 C1.34051219,4.41685474 1.3851979,4.41267855 1.42139219,4.3901528 C1.51048169,4.38410485 1.58987343,4.33177848 1.63056027,4.25229202 C1.6312148,4.20658591 1.62230905,4.16124756 1.60441426,4.11918506 C1.58777589,4.05976231 1.57826825,4.00033956 1.56876061,3.94091681 L1.56876061,3.87674024 C1.54974533,3.78166384 1.52122241,3.68658744 1.49983022,3.58913413 C1.45942275,3.40373514 1.4237691,3.21595925 1.39049236,3.02818336 C1.35721562,2.84040747 1.12427844,1.7565365 1.0910017,1.54974533 Z" id="Path"></path>
                    <path d="M1.13616299,1.7803056 L1.13616299,1.76366723 C1.1385399,1.77792869 1.1385399,1.78743633 1.13616299,1.7803056 Z" id="Path"></path>
                    <path d="M1.09813243,1.54974533 C1.11372924,1.62038405 1.12562996,1.6917884 1.13378608,1.76366723 C1.10989665,1.69488746 1.09784127,1.6225552 1.09813243,1.54974533 L1.09813243,1.54974533 Z" id="Path"></path>
                    <path d="M1.10526316,1.79694397 L1.10526316,1.72088285 C1.10934605,1.74607218 1.10934605,1.77175464 1.10526316,1.79694397 L1.10526316,1.79694397 Z" id="Path"></path>
                    <polygon id="Path" points="1.11714771 1.76604414 1.12665535 1.76842105 1.12665535 1.80882852"></polygon>
                    <path d="M0.869949066,3.59626486 C0.869949066,3.59626486 0.869949066,3.61052632 0.869949066,3.60814941 L0.869949066,3.59626486 Z" id="Path"></path>
                    <path d="M0.850933786,3.4179966 L0.850933786,3.38234295 C0.852009892,3.39420314 0.852009892,3.40613641 0.850933786,3.4179966 Z" id="Path"></path>
                    <path d="M0.919864177,3.74601019 L0.919864177,3.71748727 C0.920560791,3.72698215 0.920560791,3.73651531 0.919864177,3.74601019 L0.919864177,3.74601019 Z" id="Path"></path>
                    <path d="M1.49983022,3.48217317 L1.49983022,3.40373514 C1.51143697,3.42859304 1.51143697,3.45731528 1.49983022,3.48217317 Z" id="Path"></path>
                    <path d="M0.734465195,2.61460102 L0.734465195,2.61460102 C0.734465195,2.61460102 0.729711375,2.59796265 0.734465195,2.61460102 Z" id="Path"></path>
                    <path d="M0.967402377,3.86010187 L0.967402377,3.86010187 L0.967402377,3.88624788 C0.964824328,3.87772319 0.964824328,3.86862655 0.967402377,3.86010187 L0.967402377,3.86010187 Z" id="Path"></path>
                    <path d="M0.679796265,2.37691002 C0.678378761,2.36586306 0.678378761,2.35468024 0.679796265,2.34363328 C0.686926995,2.37691002 0.684550085,2.37691002 0.679796265,2.37691002 Z" id="Path"></path>
                    <path d="M1.00543294,3.59151104 L1.00543294,3.55348048 C1.00765453,3.56606 1.00765453,3.57893152 1.00543294,3.59151104 Z" id="Path"></path>
                    <path d="M1.49983022,3.48217317 L1.49983022,3.50594228 C1.49816128,3.49810713 1.49816128,3.49000832 1.49983022,3.48217317 Z" id="Path"></path>
                    <path d="M1.18845501,1.97758913 C1.19398165,1.98883117 1.19398165,2.00200074 1.18845501,2.01324278 C1.18701206,2.00140203 1.18701206,1.98942989 1.18845501,1.97758913 L1.18845501,1.97758913 Z" id="Path"></path>
                    <path d="M0.998302207,0.558573854 C0.99790506,0.554622291 0.99790506,0.550640867 0.998302207,0.546689304 C0.998302207,0.546689304 1.00305603,0.558573854 0.998302207,0.558573854 Z" id="Path"></path>
                    <path d="M0.289983022,0.475382003 C0.350638547,0.458658991 0.412696845,0.447520322 0.475382003,0.442105263 L0.456366723,0.442105263 L0.508658744,0.442105263 L0.508658744,0.442105263 C0.573928944,0.417788327 0.643531643,0.407266989 0.713073005,0.411205433 L0.713073005,0.394567063 L0.793887946,0.411205433 L0.748726655,0.396943973 C0.884210526,0.396943973 0.831918506,0.423089983 0.850933786,0.482512733 L0.850933786,0.482512733 C0.853726377,0.499033926 0.853726377,0.515906651 0.850933786,0.532427844 L0.850933786,0.518166384 C0.872325976,0.675042445 0.900848896,0.715449915 0.917487267,0.893718166 C0.917487267,0.941256367 0.917487267,0.867572156 0.917487267,0.865195246 C0.92380158,0.898971718 0.92380158,0.933625905 0.917487267,0.967402377 C0.929371817,0.950764007 0.917487267,0.877079796 0.934125637,0.931748727 C0.941558196,0.944361554 0.947160342,0.957966766 0.950764007,0.972156197 L0.950764007,0.988794567 C0.963231139,1.00908373 0.971326755,1.03175146 0.974533107,1.05534805 C0.974533107,1.12665535 0.938879457,0.972156197 0.953140917,1.08624788 C0.985796612,1.15821509 1.0089672,1.23411874 1.02207131,1.31205433 C1.04584041,1.40475382 1.0434635,1.2573854 1.06010187,1.39049236 L1.06010187,1.3049236 C1.07574486,1.32246939 1.08348098,1.34567774 1.08149406,1.36910017 C1.07678867,1.39822658 1.07678867,1.42791943 1.08149406,1.45704584 C1.08149406,1.33106961 1.11952462,1.56162988 1.12190153,1.44278438 L1.12190153,1.48556876 C1.12190153,1.48556876 1.12190153,1.48556876 1.12190153,1.48556876 L1.12190153,1.5426146 C1.12190153,1.50696095 1.12190153,1.4237691 1.12190153,1.45942275 L1.1385399,1.54023769 C1.1385399,1.51646859 1.15517827,1.54023769 1.162309,1.54023769 L1.14567063,1.30254669 C1.14567063,1.30254669 1.14567063,1.34770798 1.13378608,1.33582343 C1.11952462,1.27164686 1.13378608,1.2811545 1.11952462,1.22173175 L1.11952462,1.25025467 C1.11952462,1.25025467 1.11952462,1.23599321 1.11952462,1.25025467 C1.11952462,1.26451613 1.11952462,1.2811545 1.11952462,1.2811545 C1.11007431,1.2477408 1.11007431,1.21236106 1.11952462,1.17894737 C1.10526316,1.10050934 1.09813243,1.16706282 1.0910017,1.14804754 C1.09386999,1.08213399 1.09068745,1.01609627 1.08149406,0.950764007 L1.08149406,0.984040747 C1.06507426,0.936721007 1.05781425,0.886707658 1.06010187,0.836672326 L1.06010187,0.850933786 C1.03585345,0.79150812 1.02765638,0.726751257 1.03633277,0.663157895 L1.03633277,0.663157895 C1.02415625,0.624757217 1.01853152,0.584580587 1.0196944,0.544312394 C1.01153263,0.541441207 1.00590398,0.53393634 1.00543294,0.525297114 C1.00111011,0.493110726 0.989748533,0.462272153 0.972156197,0.434974533 C0.972156197,0.475382003 0.950764007,0.461120543 0.950764007,0.496774194 C0.948103544,0.445792577 0.942548468,0.39500331 0.934125637,0.344651952 C0.898471986,0.306621392 0.953140917,0.389813243 0.934125637,0.404074703 C0.923646896,0.345585067 0.872316812,0.303313234 0.812903226,0.304244482 C0.771160923,0.308055588 0.729081399,0.303200258 0.689303905,0.289983022 L0.734465195,0.289983022 C0.715166355,0.28363417 0.694341285,0.28363417 0.675042445,0.289983022 C0.682588054,0.286524498 0.691265936,0.286524498 0.698811545,0.289983022 C0.591398665,0.293437971 0.484266889,0.302960795 0.377928693,0.318505942 C0.388174343,0.31701033 0.398582872,0.31701033 0.408828523,0.318505942 C0.359857178,0.313050577 0.310431447,0.313050577 0.261460102,0.318505942 L0.280475382,0.318505942 C0.262842045,0.325061854 0.243439788,0.325061854 0.225806452,0.318505942 C0.225806452,0.335144312 0.171137521,0.344651952 0.123599321,0.399320883 C0.0835233865,0.450216893 0.0835233865,0.521939304 0.123599321,0.572835314 C0.128049381,0.644210362 0.142450049,0.714613628 0.166383701,0.782003396 C0.197283531,0.831918506 0.166383701,0.729711375 0.192529711,0.743972835 C0.197073805,0.787933565 0.204217037,0.831586647 0.213921902,0.874702886 C0.197283531,0.874702886 0.152122241,0.758234295 0.171137521,0.874702886 L0.183022071,0.888964346 C0.176776645,0.874422899 0.171999117,0.859294058 0.168760611,0.843803056 C0.168760611,0.808149406 0.185398981,0.862818336 0.190152801,0.869949066 L0.213921902,1.00067912 C0.196511929,0.987659361 0.182623733,0.970503354 0.173514431,0.950764007 C0.209117197,1.05454408 0.236146159,1.16106999 0.254329372,1.26926995 L0.254329372,1.26926995 C0.272477188,1.32414926 0.28521466,1.3806718 0.292359932,1.43803056 C0.309018983,1.45265127 0.321350532,1.47155965 0.328013582,1.49269949 C0.328013582,1.51409168 0.328013582,1.49269949 0.328013582,1.49269949 C0.344614885,1.53403145 0.356572784,1.57707988 0.363667233,1.62105263 L0.375551783,1.59728353 C0.379957649,1.69969723 0.393480276,1.80151465 0.415959253,1.90152801 C0.419995564,1.87235173 0.419995564,1.84275863 0.415959253,1.81358234 C0.415959253,1.93955857 0.492020374,2.10594228 0.508658744,2.22003396 C0.487266553,2.18913413 0.496774194,2.27945671 0.465874363,2.22003396 C0.469653398,2.18816757 0.463861335,2.1558975 0.449235993,2.12733447 C0.427843803,2.19864177 0.539558574,2.38166384 0.511035654,2.41018676 L0.530050934,2.42207131 C0.530050934,2.43870968 0.530050934,2.48624788 0.530050934,2.45772496 L0.572835314,2.57894737 C0.576316476,2.52147005 0.567399664,2.46391609 0.546689304,2.41018676 C0.546689304,2.3721562 0.570458404,2.45772496 0.577589134,2.42207131 C0.582804198,2.46960631 0.597343074,2.51564608 0.620373514,2.55755518 C0.589473684,2.52427844 0.620373514,2.65025467 0.606112054,2.64787776 C0.618018741,2.68639904 0.624420495,2.72641 0.625127334,2.76672326 C0.625127334,2.81663837 0.684550085,2.92597623 0.698811545,3.00441426 C0.68937132,2.978303 0.68937132,2.94971058 0.698811545,2.92359932 C0.695473195,2.95605661 0.706805046,2.9883088 0.729711375,3.01154499 C0.714425424,2.95425234 0.693732628,2.89854096 0.667911715,2.84516129 C0.677605819,2.79971895 0.677605819,2.75274285 0.667911715,2.70730051 C0.674516272,2.71974469 0.687125431,2.72785058 0.701188455,2.7286927 C0.711782431,2.83500131 0.732475719,2.94005954 0.762988115,3.04244482 C0.748357392,3.08070913 0.748357392,3.12302601 0.762988115,3.16129032 L0.713073005,3.08998302 C0.725254515,3.12259652 0.730123066,3.1574878 0.727334465,3.19219015 L0.727334465,3.14702886 C0.739821926,3.17634189 0.746288484,3.20786636 0.746349745,3.23972835 L0.746349745,3.19456706 C0.75960232,3.21672942 0.765431564,3.24254465 0.762988115,3.26825127 C0.767500956,3.2703919 0.772736735,3.2703919 0.777249576,3.26825127 C0.773839027,3.28391383 0.773839027,3.30012692 0.777249576,3.31578947 C0.773400282,3.30584917 0.773400282,3.29482995 0.777249576,3.28488964 C0.787766799,3.31751397 0.80385014,3.34807232 0.824787776,3.37521222 C0.824787776,3.36332767 0.836672326,3.37521222 0.846179966,3.40611205 C0.834545797,3.46736416 0.834545797,3.53025893 0.846179966,3.59151104 L0.846179966,3.59151104 L0.865195246,3.68896435 C0.865195246,3.66994907 0.865195246,3.68896435 0.886587436,3.71273345 L0.886587436,3.71273345 C0.900848896,3.74125637 0.905602716,3.66757216 0.924617997,3.76027165 L0.950764007,3.80305603 C0.950764007,3.80305603 0.950764007,3.80305603 0.950764007,3.80305603 L0.950764007,3.85297114 C0.971609801,3.88734219 0.98610208,3.92518314 0.993548387,3.96468591 C1.00344983,4.00492929 1.01948343,4.04340992 1.04108659,4.07877759 C1.02682513,4.05500849 1.01256367,4.01935484 1.02682513,4.03123939 C1.0376699,4.04778167 1.04495495,4.06639901 1.04821732,4.08590832 L1.04821732,4.08590832 L1.10526316,4.24991511 C1.10526316,4.23327674 1.0672326,4.14533107 1.10526316,4.18098472 C1.12672486,4.21009713 1.14208571,4.24324424 1.15042445,4.27843803 C1.15042445,4.27843803 1.11001698,4.22852292 1.13140917,4.27843803 C1.13140917,4.27843803 1.16943973,4.33073005 1.162309,4.30458404 C1.17240574,4.343378 1.19018773,4.37975024 1.21460102,4.41154499 C1.24671519,4.44806318 1.29204249,4.47029921 1.34057725,4.47334465 C1.36196944,4.47334465 1.3286927,4.47334465 1.31443124,4.47334465 L1.31443124,4.47334465 C1.28098617,4.4588146 1.24977459,4.43960747 1.22173175,4.41629881 C1.24757625,4.41944588 1.27215367,4.42927685 1.29303905,4.44482173 C1.33400914,4.45792372 1.37804519,4.45792372 1.41901528,4.44482173 C1.38214107,4.45218552 1.34417472,4.45218552 1.30730051,4.44482173 C1.35421846,4.44106378 1.40009411,4.42899124 1.44278438,4.40916808 C1.48957213,4.39628589 1.53495813,4.37876849 1.57826825,4.35687606 C1.62600621,4.33069499 1.65251965,4.27766811 1.64482173,4.2237691 C1.64482173,4.17147708 1.62105263,4.13344652 1.61629881,4.09303905 C1.63056027,4.13820034 1.64006791,4.1762309 1.65432937,4.16672326 L1.62342954,3.98370119 L1.62342954,3.98370119 C1.61531736,3.93094726 1.60177631,3.87917266 1.58302207,3.82920204 C1.59101715,3.85392545 1.59101715,3.88053975 1.58302207,3.90526316 L1.55687606,3.77928693 C1.55687606,3.8196944 1.58539898,3.90526316 1.5901528,3.95517827 C1.5864373,3.93634449 1.5864373,3.91696621 1.5901528,3.89813243 C1.60532679,3.96622774 1.60532679,4.03682829 1.5901528,4.1049236 C1.5901528,4.14295416 1.56400679,4.0573854 1.56162988,4.03599321 C1.56876284,3.93270369 1.55418866,3.82906505 1.5188455,3.73174873 L1.48794567,3.67232598 C1.50304623,3.62517499 1.50304623,3.57448545 1.48794567,3.52733447 L1.48794567,3.56061121 C1.48154596,3.54530623 1.47676609,3.52937333 1.47368421,3.51307301 C1.47368421,3.5582343 1.47368421,3.6057725 1.47368421,3.65093379 C1.44563673,3.56675757 1.43354518,3.4780862 1.43803056,3.38947368 C1.4390681,3.40450957 1.4390681,3.41959909 1.43803056,3.43463497 C1.42614601,3.30390492 1.42614601,3.16129032 1.42614601,3.0614601 C1.42477043,3.08362327 1.42477043,3.10585041 1.42614601,3.12801358 C1.41477437,3.08618779 1.40917638,3.04300327 1.40950764,2.99966044 C1.39286927,3.02580645 1.38336163,2.87843803 1.38336163,2.98302207 C1.33494475,2.78320579 1.2976492,2.5808576 1.27164686,2.37691002 C1.27164686,2.37691002 1.27164686,2.37691002 1.25500849,2.37691002 C1.27072165,2.44223529 1.27712339,2.5094535 1.27402377,2.57657046 C1.26584043,2.53904756 1.26106717,2.50086149 1.25976231,2.46247878 C1.26530342,2.4851215 1.26530342,2.50876645 1.25976231,2.53140917 C1.24653548,2.48997508 1.24089893,2.44649313 1.24312394,2.40305603 L1.24312394,2.42444822 C1.25399504,2.35754114 1.25399504,2.28931794 1.24312394,2.22241087 C1.22173175,2.17724958 1.24312394,2.22241087 1.21697793,2.22241087 C1.20327726,2.17580829 1.19373231,2.12808352 1.18845501,2.07979626 L1.20509338,2.1582343 C1.18845501,2.10356537 1.18845501,2.05127334 1.18845501,2.01324278 C1.18606843,2.01935656 1.18606843,2.02614429 1.18845501,2.03225806 C1.18440299,1.99115792 1.18440299,1.94975889 1.18845501,1.90865874 L1.15280136,1.90152801 C1.16843171,1.9382989 1.17573686,1.97807138 1.17419355,2.0179966 C1.15657676,1.98149348 1.14608917,1.94196333 1.14329372,1.90152801 C1.15133282,1.99601511 1.1664287,2.08976848 1.18845501,2.1820034 L1.18845501,2.16061121 C1.20773067,2.23864387 1.22045178,2.31815084 1.22648557,2.39830221 C1.21222411,2.37691002 1.20509338,2.37691002 1.20271647,2.37691002 C1.24787776,2.52903226 1.26689304,2.68353141 1.30967742,2.85229202 L1.30967742,2.90933786 L1.32393888,2.90933786 C1.33028322,2.93509901 1.33028322,2.96201475 1.32393888,2.98777589 C1.32393888,2.9663837 1.32393888,2.97113752 1.32393888,2.96400679 C1.32686579,3.00290192 1.33736228,3.04085077 1.35483871,3.07572156 C1.35483871,3.04719864 1.33820034,2.9663837 1.35483871,2.98777589 C1.37457691,3.07909729 1.37939309,3.1730129 1.36910017,3.26587436 C1.41663837,3.45127334 1.44516129,3.68658744 1.48081494,3.84108659 C1.48081494,3.86010187 1.48081494,3.82682513 1.48081494,3.84108659 C1.48081494,3.90288625 1.53310696,4.04550085 1.5188455,4.05263158 C1.52498126,4.07082527 1.53560938,4.08717622 1.54974533,4.10016978 C1.54974533,4.14295416 1.56876061,4.2 1.5663837,4.22852292 C1.56729057,4.21983117 1.56729057,4.21106866 1.5663837,4.20237691 L1.5663837,4.20237691 C1.56850136,4.21336808 1.56850136,4.22466248 1.5663837,4.23565365 L1.5663837,4.23565365 C1.54980506,4.27681369 1.51086552,4.30462765 1.46655348,4.30696095 C1.42168278,4.32918602 1.37093926,4.33667277 1.32156197,4.32835314 C1.34533107,4.3426146 1.32156197,4.34736842 1.32156197,4.35449915 C1.3036743,4.33665765 1.2905915,4.31458042 1.28353141,4.29032258 C1.26451613,4.24040747 1.2336163,4.18098472 1.20747029,4.1286927 C1.20747029,4.1286927 1.19558574,4.1286927 1.20747029,4.1286927 L1.18845501,4.07877759 L1.18845501,4.07877759 C1.16195486,4.02484247 1.13893108,3.96926782 1.11952462,3.91239389 C1.10795702,3.8749504 1.09365716,3.8384063 1.07674024,3.80305603 C1.07674024,3.85059423 1.07674024,3.85297114 1.07674024,3.86010187 C1.05297114,3.77928693 1.02920204,3.7008489 1.00543294,3.60339559 C0.996426727,3.57634302 0.990058642,3.54848264 0.986417657,3.52020374 L0.969779287,3.52020374 C0.969779287,3.47028862 0.934125637,3.40848896 0.926994907,3.34906621 C0.905602716,3.33005093 0.896095076,3.2040747 0.869949066,3.13989813 C0.869949066,3.11375212 0.869949066,3.19932088 0.850933786,3.12801358 C0.848308641,3.09240825 0.848308641,3.05665796 0.850933786,3.02105263 L0.822410866,2.96162988 L0.822410866,2.9426146 C0.799762645,2.89145723 0.786093729,2.83678156 0.782003396,2.78098472 C0.782003396,2.78098472 0.782003396,2.79524618 0.782003396,2.78098472 C0.782003396,2.76672326 0.762988115,2.69541596 0.782003396,2.73820034 C0.782003396,2.69541596 0.736842105,2.54804754 0.739219015,2.61935484 C0.751359248,2.64458971 0.757848528,2.67216915 0.758234295,2.70016978 C0.743972835,2.70016978 0.732088285,2.63599321 0.713073005,2.62173175 C0.713446177,2.61539881 0.713446177,2.6090494 0.713073005,2.60271647 L0.713073005,2.60271647 C0.713073005,2.51952462 0.672665535,2.44108659 0.675042445,2.37691002 C0.664496234,2.36491693 0.657862198,2.34999035 0.656027165,2.33412564 L0.672665535,2.33412564 L0.648896435,2.24855688 L0.637011885,2.29371817 C0.619283665,2.21537905 0.606580915,2.13598686 0.598981324,2.05602716 C0.570458404,2.03701188 0.572835314,1.90152801 0.530050934,1.83735144 L0.530050934,1.8991511 C0.508658744,1.77079796 0.487266553,1.75415959 0.475382003,1.63293718 C0.511035654,1.7327674 0.506281834,1.73514431 0.568081494,1.87062818 C0.515789474,1.72563667 0.513412564,1.61154499 0.461120543,1.48081494 C0.461120543,1.48081494 0.461120543,1.52597623 0.446859083,1.4950764 C0.436897663,1.45872296 0.43288428,1.42099716 0.434974533,1.38336163 C0.420713073,1.34295416 0.404074703,1.33820034 0.396943973,1.31205433 L0.396943973,1.16468591 L0.396943973,1.16468591 C0.361308738,1.04826846 0.335859269,0.92897407 0.320882852,0.808149406 C0.311321858,0.747320248 0.298628124,0.687025015 0.282852292,0.627504244 C0.264525374,0.593322865 0.249406914,0.557515986 0.237691002,0.520543294 L0.237691002,0.520543294 C0.242304882,0.518912041 0.247338581,0.518912041 0.251952462,0.520543294 C0.251952462,0.520543294 0.251952462,0.520543294 0.251952462,0.503904924 C0.265359758,0.50207931 0.278952636,0.50207931 0.292359932,0.503904924 L0.361290323,0.503904924 C0.361290323,0.503904924 0.325636672,0.458743633 0.289983022,0.475382003 Z M0.658404075,2.33887946 L0.665534805,2.37691002 C0.666780428,2.38478409 0.666780428,2.39280504 0.665534805,2.40067912 L0.665534805,2.37691002 C0.658404075,2.35076401 0.648896435,2.33887946 0.658404075,2.33174873 L0.658404075,2.33887946 Z M1.39524618,3.37521222 C1.39524618,3.35619694 1.39524618,3.40135823 1.39524618,3.41324278 L1.39524618,3.35144312 C1.39524618,3.35144312 1.39286927,3.36095076 1.39286927,3.3704584 L1.39524618,3.37521222 Z M0.556196944,2.36027165 L0.539558574,2.34363328 L0.539558574,2.31511036 L0.556196944,2.36027165 Z M0.413582343,1.83972835 L0.413582343,1.89202037 L0.413582343,1.90152801 L0.413582343,1.84923599 L0.413582343,1.84923599 L0.413582343,1.83972835 Z M0.354159593,1.24312394 L0.354159593,1.24312394 C0.348386582,1.21329315 0.348386582,1.18263215 0.354159593,1.15280136 C0.366046284,1.18173564 0.366046284,1.21418965 0.354159593,1.24312394 Z M0.591850594,2.15585739 C0.590457154,2.16849595 0.590457154,2.18124938 0.591850594,2.19388795 C0.591850594,2.19388795 0.591850594,2.14634975 0.603735144,2.17011885 C0.607636643,2.19771223 0.607636643,2.22571731 0.603735144,2.2533107 C0.593035049,2.22200726 0.588987202,2.18881491 0.591850594,2.15585739 L0.591850594,2.15585739 Z M0.929371817,3.37758913 L0.929371817,3.36570458 L0.929371817,3.41561969 L0.929371817,3.37758913 Z M0.986417657,3.60101868 C0.989377342,3.65040995 0.998971097,3.69917821 1.01494058,3.74601019 C1.02920204,3.74601019 1.02920204,3.70322581 1.01494058,3.64855688 C1.00067912,3.59388795 0.984040747,3.62716469 0.984040747,3.59864177 L0.986417657,3.60101868 Z M0.463497453,1.76366723 L0.463497453,1.77792869 L0.463497453,1.76604414 L0.463497453,1.81833616 C0.442457536,1.76957925 0.43192882,1.71693567 0.432597623,1.66383701 C0.439728353,1.69473684 0.439728353,1.78268251 0.461120543,1.76129032 L0.463497453,1.76366723 Z M1.14567063,4.05976231 C1.16251216,4.1005807 1.1721622,4.14400591 1.17419355,4.18811545 C1.18234905,4.15656715 1.17719319,4.12305402 1.15993209,4.09541596 C1.1528841,4.08345059 1.14729801,4.07068239 1.14329372,4.0573854 L1.14567063,4.05976231 Z M1.11239389,4.07164686 C1.09736045,4.02875585 1.0885555,3.98393062 1.08624788,3.9385399 C1.12427844,3.99796265 1.11001698,4.02648557 1.08624788,4.02410866 C1.09119487,4.04609941 1.10281746,4.06602384 1.11952462,4.0811545 L1.11239389,4.07164686 Z M1.12665535,3.98132428 L1.11239389,3.95517827 C1.10263129,3.94510452 1.09231538,3.93558214 1.08149406,3.92665535 C1.07507217,3.91311683 1.07507217,3.89740949 1.08149406,3.88387097 C1.09171363,3.90962476 1.10445234,3.93430601 1.11952462,3.95755518 C1.12277687,3.96518881 1.12516853,3.97316102 1.12665535,3.98132428 Z M1.41188455,4.34023769 L1.38336163,4.34023769 C1.40713073,4.34023769 1.41188455,4.34023769 1.40950764,4.34023769 L1.42614601,4.34023769 C1.3762309,4.36162988 1.40713073,4.34499151 1.41188455,4.33786078 L1.41188455,4.34023769 Z M1.17419355,4.10254669 L1.14804754,4.04074703 C1.1565034,4.06702719 1.17025548,4.09129557 1.18845501,4.11205433 L1.17419355,4.10254669 Z M1.39049236,4.34023769 C1.36271837,4.34948143 1.33269759,4.34948143 1.3049236,4.34023769 C1.3049236,4.34023769 1.37147708,4.36400679 1.4,4.35925297 L1.39049236,4.34023769 Z M1.29541596,2.69303905 L1.29541596,2.74533107 L1.27640068,2.72156197 L1.29541596,2.69303905 Z M1.42614601,3.32767402 L1.42614601,3.32767402 L1.42614601,3.29677419 L1.42614601,3.32767402 Z M1.54736842,3.88862479 C1.54736842,3.88862479 1.54736842,3.88862479 1.54736842,3.88862479 C1.54899367,3.89566291 1.54899367,3.90297886 1.54736842,3.91001698 C1.54517877,3.90305434 1.54517877,3.89558742 1.54736842,3.88862479 C1.54478111,3.86401066 1.53836537,3.83995164 1.52835314,3.81731749 C1.52688607,3.83709791 1.52688607,3.85695982 1.52835314,3.87674024 C1.50220713,3.82920204 1.52835314,3.70560272 1.48319185,3.74601019 C1.48319185,3.72224109 1.48319185,3.64617997 1.48319185,3.66994907 C1.49830428,3.74195257 1.51896585,3.81267869 1.54499151,3.88149406 C1.54664508,3.88691693 1.54664508,3.89270956 1.54499151,3.89813243 L1.54736842,3.88862479 Z M1.29066214,4.41629881 C1.27932482,4.41200523 1.2694355,4.40458824 1.26213922,4.39490662 C1.25025467,4.38064516 1.24550085,4.3663837 1.26213922,4.3663837 C1.27877759,4.3663837 1.26213922,4.38539898 1.26213922,4.39490662 C1.27302817,4.40387162 1.28619544,4.4096323 1.30016978,4.41154499 L1.29066214,4.41629881 Z M1.20033956,4.31409168 C1.20749052,4.33797434 1.21704714,4.3610695 1.22886248,4.38302207 C1.2242473,4.37055881 1.22028048,4.35786497 1.21697793,4.34499151 C1.22244211,4.36386661 1.23130237,4.38158712 1.24312394,4.39728353 C1.25614369,4.4146935 1.2732997,4.4285817 1.29303905,4.437691 C1.25691154,4.42990481 1.22679336,4.4051016 1.21222411,4.37113752 C1.20281411,4.35105448 1.20112202,4.32821127 1.20747029,4.30696095 L1.20033956,4.31409168 Z M1.18845501,4.27843803 L1.18845501,4.27843803 L1.14329372,4.16910017 L1.18845501,4.27843803 Z M0.793887946,3.12325976 C0.746349745,3.08998302 0.793887946,3.23259762 0.793887946,3.25874363 C0.793887946,3.28488964 0.839049236,3.29677419 0.793887946,3.18743633 C0.797586087,3.22936247 0.812350615,3.26955479 0.836672326,3.30390492 C0.824757444,3.26748873 0.81600961,3.23011162 0.810526316,3.19219015 L0.829541596,3.24685908 C0.824031259,3.20712232 0.81198401,3.16857112 0.793887946,3.1327674 L0.793887946,3.12325976 Z M0.625127334,2.54329372 L0.606112054,2.46960951 L0.622750424,2.5385399 L0.622750424,2.5385399 L0.625127334,2.54329372 Z M0.168760611,0.748726655 C0.142734274,0.718985833 0.127640485,0.681251361 0.125976231,0.641765705 C0.137878278,0.67831843 0.152170558,0.714049132 0.168760611,0.748726655 L0.168760611,0.748726655 Z M0.598981324,0.306621392 L0.513412564,0.306621392 C0.550489003,0.292378226 0.590692049,0.288275875 0.629881154,0.294736842 C0.644142615,0.301867572 0.613242784,0.299490662 0.601358234,0.306621392 L0.598981324,0.306621392 Z M0.950764007,0.591850594 L0.950764007,0.617996604 L0.965025467,0.587096774 L0.950764007,0.591850594 Z M0.972156197,0.551443124 C0.972156197,0.565704584 0.972156197,0.508658744 0.972156197,0.496774194 L0.972156197,0.551443124 Z M1.06247878,1.02682513 L1.06247878,0.991171477 L1.05059423,1.02444822 L1.06960951,1.02444822 L1.06247878,1.02682513 Z M1.03395586,0.974533107 C1.03395586,0.974533107 1.06247878,0.974533107 1.03395586,0.886587436 C1.0196944,0.886587436 1.03395586,0.907979626 1.00305603,0.886587436 C1.00446599,0.906820956 1.00845996,0.926790797 1.01494058,0.946010187 C1.01064891,0.9312623 1.01064891,0.915596783 1.01494058,0.900848896 C1.01972096,0.926776403 1.01972096,0.953359421 1.01494058,0.979286927 C1.01229476,0.985349247 1.01229476,0.992239887 1.01494058,0.998302207 C1.02445127,0.998841618 1.03317273,0.993027314 1.03633277,0.984040747 L1.03395586,0.974533107 Z M0.979286927,0.696434635 C0.980281205,0.688542795 0.980281205,0.680557375 0.979286927,0.672665535 L0.979286927,0.672665535 C0.98298731,0.681813127 0.98298731,0.692040863 0.979286927,0.701188455 L0.979286927,0.739219015 C0.991646226,0.720197359 0.997485885,0.697672961 0.995925297,0.675042445 C0.991034704,0.702557435 0.991034704,0.730719306 0.995925297,0.758234295 C0.995925297,0.758234295 0.995925297,0.758234295 0.995925297,0.734465195 L0.995925297,0.782003396 C0.995925297,0.839049236 0.976910017,0.782003396 0.962648557,0.736842105 C0.961327012,0.732180131 0.961327012,0.727242619 0.962648557,0.722580645 C0.965675682,0.712496916 0.971434331,0.703447611 0.979286927,0.696434635 L0.979286927,0.696434635 Z M1.01256367,1.08387097 L1.01256367,1.05772496 C1.01256367,1.0434635 1.01256367,1.05772496 1.01256367,1.05772496 C1.02682513,1.07674024 1.02444822,1.11952462 1.01256367,1.08387097 L1.01256367,1.08387097 Z M0.133106961,0.503904924 C0.133106961,0.484889643 0.109337861,0.522920204 0.133106961,0.563327674 L0.114091681,0.544312394 C0.116852737,0.513561345 0.123235356,0.483243904 0.133106961,0.453989813 C0.154499151,0.449235993 0.128353141,0.475382003 0.133106961,0.503904924 L0.133106961,0.503904924 Z M0.568081494,2.28658744 C0.568108026,2.33278363 0.576150351,2.37862489 0.591850594,2.42207131 C0.575212224,2.37691002 0.537181664,2.26044143 0.570458404,2.28658744 L0.568081494,2.28658744 Z M0.622750424,2.45297114 C0.622750424,2.47911715 0.622750424,2.48624788 0.622750424,2.48624788 C0.622750424,2.48624788 0.622750424,2.51952462 0.622750424,2.53378608 C0.614375101,2.50749875 0.614375101,2.47925846 0.622750424,2.45297114 L0.622750424,2.42920204 C0.623657294,2.43789378 0.623657294,2.4466563 0.622750424,2.45534805 L0.622750424,2.45297114 Z M0.342275042,1.42614601 L0.342275042,1.38811545 L0.330390492,1.33344652 L0.342275042,1.42614601 Z M0.237691002,0.803395586 C0.223534114,0.782179593 0.215325987,0.757555212 0.213921902,0.732088285 C0.206778573,0.760163959 0.206778573,0.789581373 0.213921902,0.817657046 C0.213186708,0.825563024 0.213186708,0.833520168 0.213921902,0.841426146 L0.213921902,0.817657046 C0.213921902,0.803395586 0.213921902,0.817657046 0.213921902,0.817657046 L0.213921902,0.834295416 L0.213921902,0.786757216 L0.237691002,0.803395586 Z M0.796264856,0.377928693 C0.827164686,0.377928693 0.824787776,0.377928693 0.834295416,0.389813243 L0.796264856,0.377928693 Z M0.320882852,1.12427844 C0.301867572,1.06010187 0.320882852,1.15993209 0.297113752,1.12427844 L0.297113752,1.15755518 C0.291735676,1.13088529 0.291735676,1.10341013 0.297113752,1.07674024 L0.297113752,1.10288625 C0.311375212,1.12190153 0.297113752,1.06247878 0.297113752,1.05534805 C0.312915433,1.07497246 0.322071442,1.09911103 0.323259762,1.12427844 L0.320882852,1.12427844 Z M0.829541596,0.396943973 C0.858064516,0.411205433 0.829541596,0.415959253 0.829541596,0.437351443 C0.829694582,0.423752189 0.831288084,0.410207422 0.834295416,0.396943973 L0.829541596,0.396943973 Z M0.263837012,0.713073005 L0.263837012,0.713073005 L0.263837012,0.658404075 L0.263837012,0.658404075 L0.263837012,0.713073005 Z" id="Shape"></path>
                    <path d="M0.962648557,0.394567063 C0.96447417,0.407974359 0.96447417,0.421567237 0.962648557,0.434974533 L0.962648557,0.394567063 Z" id="Path"></path>
                    <path d="M0.589473684,2.62886248 C0.590596193,2.63274448 0.590596193,2.63686503 0.589473684,2.64074703 C0.588467327,2.63684942 0.588467327,2.63276008 0.589473684,2.62886248 L0.589473684,2.62886248 Z" id="Path"></path>
                    <polygon id="Path" points="0.617996604 2.75483871 0.617996604 2.75959253 0.617996604 2.76434635"></polygon>
                    <path d="M1.2098472,2.01324278 C1.2098472,1.98471986 1.2098472,2.03938879 1.2098472,2.06078098 C1.20628127,2.04513553 1.20628127,2.02888824 1.2098472,2.01324278 L1.2098472,2.01324278 Z" id="Path"></path>
                    <path d="M1.22173175,2.18675722 C1.22383437,2.16859489 1.22383437,2.15025061 1.22173175,2.13208829 C1.224746,2.15018662 1.224746,2.16865889 1.22173175,2.18675722 Z" id="Path"></path>
                    <path d="M1.18845501,2.04651952 C1.19675801,2.0745701 1.20311159,2.1031612 1.20747029,2.13208829 C1.19851009,2.10421186 1.19214461,2.0755672 1.18845501,2.04651952 Z" id="Path"></path>
                    <path d="M1.31443124,2.64550085 C1.31813702,2.61948615 1.31813702,2.59307752 1.31443124,2.56706282 C1.34533107,2.67877759 1.31443124,2.54091681 1.33106961,2.53140917 C1.33424635,2.57020936 1.32855673,2.60922389 1.31443124,2.64550085 L1.31443124,2.64550085 Z" id="Path"></path>
                    <path d="M1.34057725,2.79524618 C1.34120944,2.78495594 1.34120944,2.77463659 1.34057725,2.76434635 C1.34189536,2.77460412 1.34189536,2.78498841 1.34057725,2.79524618 Z" id="Path"></path>
                    <path d="M1.35721562,2.83565365 C1.36288885,2.85988745 1.36288885,2.88510406 1.35721562,2.90933786 C1.35191407,2.87149206 1.35191407,2.83309198 1.35721562,2.79524618 C1.34533107,2.8237691 1.35008489,2.85229202 1.35721562,2.83565365 Z" id="Path"></path>
                    <path d="M1.64719864,4.02173175 C1.64422722,4.01164611 1.64422722,4.00091756 1.64719864,3.99083192 L1.66383701,4.05263158 C1.66383701,4.07877759 1.65195246,4.04074703 1.64719864,4.02173175 Z" id="Path"></path>
                    <path d="M1.66383701,4.27843803 C1.65861929,4.30149017 1.64892855,4.32329434 1.63531409,4.3426146 L1.63531409,4.32597623 C1.64724257,4.31171453 1.65686656,4.29567455 1.66383701,4.27843803 Z" id="Path"></path>
                    <polygon id="Path" points="1.57351443 4.24040747 1.57589134 4.23327674 1.57351443 4.24040747"></polygon>
                    <path d="M1.42614601,4.44719864 L1.46655348,4.44719864 C1.42614601,4.4614601 1.42614601,4.44957555 1.42614601,4.44719864 Z" id="Path"></path>
                    <path d="M1.18845501,4.38539898 C1.19440306,4.39946178 1.20156066,4.41298168 1.2098472,4.42580645 C1.19557722,4.40839039 1.1835953,4.38921932 1.17419355,4.36876061 L1.15517827,4.3188455 C1.15517827,4.3188455 1.18845501,4.38302207 1.18845501,4.38539898 Z" id="Path"></path>
                    <polygon id="Path" points="1.08149406 4.15483871 1.07436333 4.15008489 1.05059423 4.08590832"></polygon>
                    <path d="M0.330390492,1.60203735 C0.354484925,1.63783324 0.370689568,1.67834484 0.377928693,1.72088285 C0.351782683,1.70662139 0.363667233,1.637691 0.330390492,1.60203735 Z" id="Path"></path>
                    <path d="M0.884210526,0.301867572 C0.848447553,0.284114413 0.809818283,0.272847542 0.770118846,0.268590832 C0.810926261,0.265482118 0.851472958,0.277308238 0.884210526,0.301867572 L0.884210526,0.301867572 Z" id="Path"></path>
                </g>
                <g id="Group" style="mix-blend-mode: multiply;" transform="translate(8.794567, 0.000000)" fill="#231F20" fill-rule="nonzero">
                    <path d="M6.02308998,0.358913413 C5.82580645,0.358913413 5.62852292,0.358913413 5.43123939,0.358913413 C4.92971138,0.389813243 4.43056027,0.337521222 3.92903226,0.339898132 C3.55324528,0.3295359 3.17753206,0.36303899 2.80950764,0.439728353 C2.1974757,0.583325884 1.63167513,0.879308267 1.16468591,1.30016978 C0.776216653,1.65638831 0.518441926,2.13260201 0.432597623,2.65263158 C0.401697793,2.82139219 0.406451613,2.9901528 0.389813243,3.15891341 C0.382606621,3.47720957 0.404886206,3.79548936 0.456366723,4.10967742 L0.537181664,4.10967742 C0.548399971,4.01579899 0.619914535,3.94041877 0.713073005,3.92427844 C0.810526316,3.90288625 0.910356537,3.88624788 1.01018676,3.87198642 C1.11001698,3.85772496 1.24787776,3.8434635 1.37147708,3.83870968 C1.86587254,3.86149137 2.36131169,3.84161018 2.85229202,3.77928693 C3.19692663,3.72020354 3.53353351,3.62129536 3.85534805,3.48455008 C4.24834151,3.29619377 4.6183961,3.06331458 4.9582343,2.79049236 C5.19552878,2.61007496 5.409503,2.4008912 5.59524618,2.16774194 C5.93107479,1.68468792 6.13283514,1.12123524 6.17996604,0.534804754 C6.19660441,0.387436333 6.15619694,0.354159593 6.02308998,0.358913413 Z" id="Path"></path>
                    <path d="M6.15857385,0.641765705 L6.15857385,0.613242784 C6.16332767,0.641765705 6.16095076,0.653650255 6.15857385,0.641765705 Z" id="Path"></path>
                    <path d="M6.02308998,0.349405772 C6.08681048,0.334278598 6.15237877,0.366069284 6.17996604,0.425466893 C6.18556825,0.488698209 6.17911558,0.552418255 6.16095076,0.613242784 C6.17542705,0.546674937 6.17542705,0.47777328 6.16095076,0.411205433 C6.12294104,0.376160819 6.07454164,0.354464533 6.02308998,0.349405772 L6.02308998,0.349405772 Z" id="Path"></path>
                    <path d="M6.12054329,0.653650255 L6.1466893,0.527674024 C6.14254059,0.570485829 6.13377429,0.612723453 6.12054329,0.653650255 L6.12054329,0.653650255 Z" id="Path"></path>
                    <polygon id="Path" points="6.14906621 0.610865874 6.15619694 0.620373514 6.13718166 0.686926995"></polygon>
                    <path d="M1.18845501,3.92427844 C1.20271647,3.92427844 1.2098472,3.92427844 1.20509338,3.92427844 L1.18845501,3.92427844 Z" id="Path"></path>
                    <path d="M0.898471986,3.92427844 L0.839049236,3.92427844 L0.898471986,3.92427844 Z" id="Path"></path>
                    <path d="M4.62546689,3.07572156 L4.74193548,3.01154499 C4.71052604,3.04426233 4.66990352,3.06664616 4.62546689,3.07572156 L4.62546689,3.07572156 Z" id="Path"></path>
                    <path d="M0.475382003,3.28013582 L0.475382003,3.26825127 C0.475382003,3.2516129 0.475382003,3.24685908 0.475382003,3.28013582 Z" id="Path"></path>
                    <path d="M0.808149406,3.82444822 C0.808149406,3.82444822 0.808149406,3.82444822 0.808149406,3.82444822 L0.786757216,3.82444822 L0.808149406,3.82444822 Z" id="Path"></path>
                    <path d="M1.66383701,3.88624788 L1.66383701,3.88624788 L1.70662139,3.88624788 C1.69248753,3.88894583 1.67797087,3.88894583 1.66383701,3.88624788 Z" id="Path"></path>
                    <path d="M0.511035654,2.86655348 C0.515478505,2.84925351 0.521857198,2.83250944 0.530050934,2.81663837 C0.525297114,2.85229202 0.515789474,2.87606112 0.511035654,2.86655348 Z" id="Path"></path>
                    <path d="M1.24550085,3.77691002 L1.17419355,3.77691002 C1.19787646,3.77404738 1.22181794,3.77404738 1.24550085,3.77691002 Z" id="Path"></path>
                    <path d="M4.62546689,3.07572156 L4.58743633,3.08998302 C4.59939417,3.08349666 4.61219256,3.07869727 4.62546689,3.07572156 L4.62546689,3.07572156 Z" id="Path"></path>
                    <path d="M6.11341256,0.986417657 C6.11240016,1.00719746 6.10492103,1.02714179 6.09202037,1.0434635 C6.09763323,1.02391306 6.10478634,1.00483809 6.11341256,0.986417657 L6.11341256,0.986417657 Z" id="Path"></path>
                    <path d="M4.32835314,0.292359932 L4.30696095,0.292359932 C4.32122241,0.285229202 4.32835314,0.287606112 4.32835314,0.292359932 Z" id="Path"></path>
                    <path d="M2.88319185,0.534804754 C2.97822103,0.511828242 3.07543464,0.499078915 3.17317487,0.496774194 L3.14227504,0.496774194 L3.23022071,0.496774194 L3.23022071,0.475382003 C3.3582432,0.462352769 3.48725765,0.462352769 3.61528014,0.475382003 L3.59626486,0.456366723 L3.75551783,0.456366723 L3.66519525,0.456366723 C3.8434635,0.456366723 4.11443124,0.456366723 4.1524618,0.456366723 L4.13582343,0.456366723 C4.16347061,0.453324561 4.1913681,0.453324561 4.21901528,0.456366723 L4.19524618,0.456366723 C4.46621392,0.456366723 4.53989813,0.456366723 4.84414261,0.468251273 C4.92733447,0.468251273 4.79898132,0.468251273 4.79660441,0.468251273 C4.85505056,0.461676815 4.91404961,0.461676815 4.97249576,0.468251273 C4.94872666,0.451612903 4.82037351,0.453989813 4.91782683,0.442105263 C4.94234042,0.439937974 4.96699744,0.439937974 4.99151104,0.442105263 L5.03904924,0.463497453 C5.07808092,0.443609264 5.11967428,0.429211563 5.16264856,0.420713073 C5.28624788,0.420713073 5.01290323,0.446859083 5.21018676,0.446859083 C5.34061762,0.417661896 5.47353188,0.400948127 5.60713073,0.396943973 C5.77113752,0.382682513 5.51918506,0.363667233 5.74736842,0.368421053 L5.6,0.356536503 C5.63309631,0.343022174 5.66907767,0.338115625 5.70458404,0.342275042 C5.7529106,0.353728244 5.80230149,0.360101263 5.85195246,0.361290323 C5.63803056,0.347028862 6.03735144,0.335144312 5.837691,0.316129032 L5.91850594,0.316129032 C5.91850594,0.316129032 5.91850594,0.316129032 5.91850594,0.316129032 L6.01595925,0.316129032 C5.95415959,0.316129032 5.81154499,0.316129032 5.87809847,0.294736842 L6.02071307,0.294736842 C5.98268251,0.294736842 6.03497453,0.278098472 6.02071307,0.268590832 L5.59762309,0.237691002 C5.61426146,0.237691002 5.67606112,0.237691002 5.65229202,0.256706282 C5.54057725,0.256706282 5.55959253,0.256706282 5.45500849,0.256706282 L5.50254669,0.256706282 C5.50254669,0.256706282 5.47877759,0.256706282 5.50254669,0.256706282 C5.52631579,0.256706282 5.55483871,0.256706282 5.55721562,0.256706282 C5.49972456,0.265667299 5.44119224,0.265667299 5.38370119,0.256706282 C5.25059423,0.256706282 5.35755518,0.280475382 5.32903226,0.285229202 C5.26010187,0.268590832 5.10560272,0.285229202 5.02241087,0.285229202 L5.07470289,0.299490662 C4.99032699,0.311145317 4.90474942,0.311145317 4.82037351,0.299490662 L4.84414261,0.299490662 C4.73524706,0.316584751 4.62417884,0.314170224 4.51612903,0.292359932 L4.53039049,0.292359932 C4.46243717,0.299456267 4.39392955,0.299456267 4.32597623,0.292359932 C4.31473419,0.297886577 4.30156462,0.297886577 4.29032258,0.292359932 C4.23049297,0.282724707 4.16950703,0.282724707 4.10967742,0.292359932 C4.16672326,0.292359932 4.14770798,0.316129032 4.20950764,0.320882852 C4.12961063,0.322524776 4.0498064,0.314544353 3.97181664,0.297113752 C3.90288625,0.297113752 4.0336163,0.297113752 4.04787776,0.316129032 C3.88960185,0.326950685 3.73077166,0.326950685 3.57249576,0.316129032 L3.64617997,0.301867572 C3.61323631,0.295209021 3.5792934,0.295209021 3.54634975,0.301867572 C3.55873544,0.298025199 3.57199461,0.298025199 3.58438031,0.301867572 C3.37521222,0.330390492 3.25398981,0.289983022 3.04244482,0.328013582 C3.05902355,0.326021206 3.07578121,0.326021206 3.09235993,0.328013582 C3.01068534,0.335373356 2.93013117,0.352122243 2.85229202,0.377928693 L2.88556876,0.377928693 C2.85774236,0.386843097 2.8278264,0.386843097 2.8,0.377928693 C2.8,0.408828523 2.47436333,0.463497453 2.38404075,0.544312394 C2.26287486,0.566844255 2.14585347,0.607721591 2.03701188,0.665534805 C1.95619694,0.724957555 2.12495756,0.648896435 2.09881154,0.679796265 C2.02659314,0.703759202 1.95660472,0.733981474 1.88964346,0.770118846 C1.88964346,0.753480475 2.07266553,0.634634975 1.87775891,0.722580645 L1.85636672,0.746349745 C1.87695813,0.733776962 1.89840249,0.722657662 1.92054329,0.713073005 C1.97996604,0.694057725 1.89202037,0.739219015 1.88251273,0.751103565 L1.7803056,0.803395586 L1.68047538,0.860441426 C1.70927842,0.82427567 1.74583005,0.795034367 1.78743633,0.774872666 C1.62818336,0.867572156 1.46179966,1.01256367 1.31205433,1.10764007 L1.3286927,1.10764007 C1.15042445,1.23123939 1.25263158,1.21222411 1.10526316,1.30254669 C1.09051388,1.33497915 1.07042746,1.36470705 1.04584041,1.39049236 C1.0196944,1.41901528 1.02920204,1.39049236 1.03157895,1.39049236 C0.912733447,1.50933786 0.993548387,1.45466893 0.881833616,1.56162988 L0.917487267,1.54736842 C0.786172404,1.67089087 0.677562895,1.81650806 0.596604414,1.97758913 C0.629987702,1.93997524 0.660949781,1.90028027 0.689303905,1.85874363 C0.562788074,2.06321842 0.471212537,2.2873375 0.418336163,2.52190153 C0.418336163,2.46010187 0.366044143,2.60747029 0.385059423,2.47911715 C0.4106263,2.42989827 0.428273617,2.37695632 0.437351443,2.32224109 C0.354159593,2.41494058 0.351782683,2.78573854 0.320882852,2.81663837 L0.344651952,2.85229202 C0.344651952,2.88319185 0.325636672,2.95925297 0.323259762,2.90696095 L0.323259762,3.12325976 C0.350853987,3.03072527 0.364473372,2.93458843 0.363667233,2.83803056 C0.385059423,2.7762309 0.363667233,2.92835314 0.392190153,2.87368421 C0.383339652,2.95266738 0.383339652,3.03239204 0.392190153,3.11137521 C0.373174873,3.04006791 0.351782683,3.26587436 0.344651952,3.25636672 C0.34975464,3.32440928 0.34975464,3.39273843 0.344651952,3.46078098 C0.344651952,3.55348048 0.373174873,3.74601019 0.385059423,3.90050934 C0.377385493,3.85312722 0.383149761,3.80454268 0.401697793,3.76027165 C0.394907365,3.81630988 0.403965551,3.87312941 0.427843803,3.92427844 C0.427843803,3.66281834 0.377928693,3.84584041 0.380305603,3.61765705 C0.396140285,3.53947416 0.402524458,3.45967199 0.399320883,3.37996604 C0.400556365,3.4007468 0.41217114,3.41950913 0.430220713,3.42988115 C0.41569811,3.61389833 0.422878204,3.79898518 0.451612903,3.98132428 C0.451612903,4.03837012 0.451612903,4.05025467 0.451612903,4.10016978 C0.451612903,4.15008489 0.451612903,4.16196944 0.546689304,4.1524618 L0.473005093,4.1524618 C0.458743633,4.1524618 0.449235993,4.13582343 0.434974533,4.12631579 L0.434974533,4.08828523 L0.434974533,4.1286927 C0.447227787,4.13675559 0.45840921,4.14633967 0.468251273,4.15721562 L0.482512733,4.15721562 C0.510162014,4.16719936 0.540432213,4.16719936 0.568081494,4.15721562 C0.548292001,4.15841282 0.528448237,4.15841282 0.508658744,4.15721562 C0.528340775,4.1603696 0.548399463,4.1603696 0.568081494,4.15721562 C0.56962025,4.1502862 0.573910242,4.14428021 0.579966044,4.14057725 C0.600659905,4.13751358 0.620265083,4.12934476 0.637011885,4.11680815 C0.626862238,4.12644998 0.612814996,4.13083975 0.598981324,4.1286927 L0.544312394,4.1286927 C0.56769585,4.11016737 0.588481994,4.08858176 0.606112054,4.06451613 C0.615499103,4.0465619 0.625812958,4.02910768 0.637011885,4.01222411 C0.642330782,4.00997892 0.648331357,4.00997892 0.653650255,4.01222411 C0.656205442,4.00697229 0.656205442,4.00083756 0.653650255,3.99558574 C0.653650255,3.99558574 0.675042445,3.99558574 0.717826825,3.97419355 C0.702930043,3.97726806 0.687562317,3.97726806 0.672665535,3.97419355 C0.846179966,3.93140917 0.708319185,3.94091681 0.824787776,3.91952462 C0.805772496,3.91952462 0.839049236,3.90764007 0.881833616,3.89575552 C0.924175576,3.91042592 0.970221707,3.91042592 1.01256367,3.89575552 C1.07192827,3.89203796 1.13146731,3.89203796 1.19083192,3.89575552 L1.35483871,3.89575552 C1.32156197,3.89575552 1.35483871,3.88387097 1.40475382,3.87911715 L1.40475382,3.87911715 C1.45704584,3.87911715 1.34057725,3.84584041 1.49983022,3.85059423 L1.58302207,3.85059423 C1.56876061,3.85059423 1.58302207,3.85059423 1.58302207,3.85059423 L1.66859083,3.85059423 C1.80318292,3.84327331 1.93807345,3.84327331 2.07266553,3.85059423 C2.02750424,3.85059423 1.95857385,3.85059423 1.98947368,3.85059423 C2.02261621,3.84636754 2.05616138,3.84636754 2.0893039,3.85059423 L2.0893039,3.85059423 L2.23904924,3.85059423 L2.38879457,3.85059423 C2.36264856,3.85059423 2.19626486,3.85059423 2.26994907,3.83157895 C2.33079039,3.82521361 2.39212982,3.82521361 2.45297114,3.83157895 C2.45297114,3.83157895 2.3483871,3.85297114 2.45297114,3.85297114 C2.46485569,3.85297114 2.55993209,3.83157895 2.5147708,3.82920204 C2.61697793,3.82920204 2.76672326,3.81494058 2.86179966,3.81018676 C2.89032258,3.81018676 2.84278438,3.81018676 2.82852292,3.81018676 L2.82852292,3.81018676 C2.7846272,3.80102192 2.73931167,3.80102192 2.69541596,3.81018676 C2.78198375,3.79751414 2.86974623,3.79512062 2.95687606,3.80305603 L2.78811545,3.80305603 C3.05908319,3.71035654 3.4417657,3.67232598 3.70560272,3.56536503 C3.65750821,3.57480411 3.61350751,3.59887997 3.57962649,3.63429542 C3.68662949,3.605679 3.79084122,3.56749455 3.8910017,3.52020374 L3.87674024,3.52020374 C3.95921777,3.48281082 4.03868438,3.43910419 4.11443124,3.38947368 C4.07776355,3.41404222 4.03654479,3.43101465 3.99320883,3.43938879 L4.09066214,3.38947368 L4.18811545,3.33718166 C4.12156197,3.35857385 3.99320883,3.43938879 3.9147708,3.47266553 C3.94456203,3.46091864 3.97570229,3.45293396 4.00747029,3.44889643 C3.9029492,3.50845106 3.78721256,3.54568103 3.66757216,3.5582343 C3.60339559,3.5582343 3.74601019,3.5106961 3.77928693,3.49405772 C3.94888975,3.44950188 4.10965402,3.37635413 4.25466893,3.27775891 L4.34023769,3.2040747 C4.42624048,3.19461136 4.50822713,3.16263656 4.57792869,3.11137521 L4.51612903,3.14940577 C4.53858235,3.12807055 4.56240191,3.10822092 4.58743633,3.08998302 C4.51612903,3.12563667 4.44006791,3.16129032 4.37589134,3.18981324 C4.49781646,3.10185015 4.62568275,3.02243009 4.75857385,2.95212224 C4.73621085,2.96515767 4.71320485,2.97705732 4.68964346,2.98777589 C4.87028862,2.85229202 5.0770798,2.73106961 5.21018676,2.61697793 C5.25772496,2.55993209 5.09609508,2.70730051 5.11035654,2.66926995 C5.16371727,2.61841059 5.22007137,2.57078741 5.27911715,2.52665535 C5.23395586,2.52665535 5.42886248,2.37691002 5.27911715,2.48387097 C5.53195194,2.24746887 5.74326934,1.97026545 5.90424448,1.66383701 C5.89235993,1.67572156 5.8852292,1.66383701 5.88760611,1.66383701 C5.84249482,1.77110477 5.78072667,1.87057556 5.70458404,1.95857385 C5.73310696,1.88964346 5.80441426,1.81595925 5.80916808,1.79219015 C5.79185616,1.82692447 5.76851751,1.85831094 5.74023769,1.88488964 C5.7711285,1.81894164 5.80688074,1.75538211 5.84719864,1.69473684 L5.84719864,1.73039049 C5.91405858,1.63823309 5.96470065,1.53534128 5.99694397,1.42614601 C6.00882852,1.34295416 5.99694397,1.42614601 5.96842105,1.42614601 C5.99456706,1.37860781 6.02308998,1.2098472 6.0516129,1.15993209 L6.01833616,1.29303905 C6.04923599,1.20271647 6.07062818,1.1147708 6.09202037,1.05534805 C6.08360478,1.06382373 6.07782559,1.0745565 6.075382,1.08624788 C6.09677419,1.01256367 6.11578947,0.917487267 6.13480475,0.881833616 L6.12054329,0.858064516 C6.11791302,0.926359619 6.10426813,0.993781456 6.08013582,1.05772496 C6.08385771,0.987808932 6.09501283,0.918487859 6.11341256,0.850933786 C6.05636672,1.11001698 6.0278438,1.10526316 5.9803056,1.32631579 L5.99694397,1.29303905 C5.96456611,1.42270703 5.91668284,1.54800159 5.85432937,1.66621392 C5.85432937,1.63293718 5.85432937,1.62342954 5.85432937,1.637691 C5.75431764,1.89578164 5.60677417,2.13281869 5.41935484,2.33650255 L5.33616299,2.37691002 L5.33616299,2.39117148 C5.30619437,2.4226482 5.27075795,2.44842015 5.23157895,2.4672326 C5.23802809,2.45571762 5.24943066,2.44782353 5.26247878,2.44584041 C5.21275142,2.48707209 5.1673556,2.53326433 5.12699491,2.58370119 C5.16100802,2.547656 5.2034974,2.52069158 5.25059423,2.50526316 C5.13797824,2.61502995 5.00884964,2.70646263 4.86791171,2.7762309 C4.61222372,2.98104377 4.33484382,3.15719596 4.04074703,3.30152801 C4.01222411,3.32529711 4.06213922,3.30152801 4.05263158,3.30152801 C3.95042445,3.33718166 3.73887946,3.47266553 3.72937182,3.45365025 C3.70304923,3.46730089 3.6789959,3.48494 3.65806452,3.50594228 L3.42037351,3.56774194 L3.49881154,3.56536503 L3.49881154,3.56536503 L3.41086587,3.58438031 L3.41086587,3.58438031 C3.19808599,3.64335193 2.98117695,3.68625701 2.76196944,3.71273345 C2.87368421,3.71273345 2.73820034,3.73887946 2.79049236,3.73650255 C2.68828523,3.73650255 2.45772496,3.75551783 2.26281834,3.76027165 C2.26281834,3.76027165 2.24855688,3.76027165 2.26281834,3.77453311 L2.15110357,3.77453311 L2.16536503,3.77453311 C1.96332767,3.77453311 1.74227504,3.74363328 1.60679117,3.75789474 C1.68998302,3.75789474 1.68998302,3.75789474 1.69949066,3.77691002 C1.55212224,3.77691002 1.41426146,3.77691002 1.24074703,3.77691002 L1.2573854,3.77691002 C1.20830598,3.77982985 1.1590964,3.77982985 1.11001698,3.77691002 L1.11001698,3.79117148 C1.0196944,3.79117148 0.910356537,3.8196944 0.803395586,3.82682513 C0.782003396,3.84108659 0.727334465,3.82682513 0.637011885,3.86485569 C0.61552134,3.87230095 0.594820533,3.88185517 0.575212224,3.89337861 L0.558573854,3.90526316 C0.550347142,3.91357448 0.545299774,3.92451044 0.544312394,3.93616299 C0.544312394,3.93616299 0.558573854,3.93616299 0.544312394,3.96943973 C0.544312394,3.93378608 0.522920204,3.94329372 0.525297114,3.91714771 C0.523807957,3.90337076 0.528112953,3.88959477 0.537181664,3.87911715 C0.530861955,3.87316453 0.525984266,3.865848 0.522920204,3.85772496 C0.528818267,3.85142716 0.533636802,3.84419936 0.537181664,3.83633277 C0.514415231,3.74787102 0.504016401,3.65668128 0.506281834,3.56536503 C0.506281834,3.56536503 0.506281834,3.58675722 0.506281834,3.5820034 C0.506281834,3.53684211 0.506281834,3.43225806 0.506281834,3.51307301 C0.506281834,3.43938879 0.506281834,3.18743633 0.492020374,3.2991511 C0.498121149,3.34569795 0.498121149,3.39284195 0.492020374,3.43938879 C0.475382003,3.43463497 0.475382003,3.32767402 0.475382003,3.29677419 L0.475382003,3.26825127 L0.475382003,3.2516129 L0.496774194,3.04719864 C0.499598784,2.98720677 0.507550815,2.92756654 0.520543294,2.86893039 C0.514917926,2.84388872 0.514917926,2.81791094 0.520543294,2.79286927 L0.539558574,2.79286927 L0.539558574,2.72393888 C0.539558574,2.69066214 0.551443124,2.65500849 0.551443124,2.65500849 L0.513412564,2.71680815 C0.539278089,2.5847939 0.580769904,2.45632886 0.637011885,2.33412564 C0.667132987,2.21524382 0.709345105,2.09975784 0.762988115,1.98947368 L0.713073005,2.07504244 C0.774834473,1.9337571 0.854737035,1.80111885 0.950764007,1.68047538 C0.869864583,1.7963557 0.805094898,1.92269657 0.758234295,2.05602716 C0.851369171,1.859164 0.972235557,1.67666376 1.11714771,1.51409168 C1.10050934,1.51409168 1.06010187,1.56162988 1.0910017,1.51409168 C1.13274648,1.46961371 1.17985278,1.43049152 1.23123939,1.39762309 C1.2811545,1.34533107 1.27877759,1.32393888 1.31205433,1.29303905 L1.41426146,1.22410866 L1.5188455,1.15993209 L1.5188455,1.15993209 C1.83466051,0.918048384 2.19481343,0.740394477 2.57894737,0.637011885 L2.57894737,0.637011885 L2.68353141,0.620373514 C2.60271647,0.634634975 2.71443124,0.598981324 2.71918506,0.589473684 L2.84991511,0.565704584 L2.98064516,0.546689304 C2.98064516,0.546689304 2.94499151,0.515789474 2.88319185,0.534804754 Z M0.506281834,2.78336163 L0.506281834,2.84516129 C0.507681798,2.85859407 0.507681798,2.87213598 0.506281834,2.88556876 L0.506281834,2.85229202 C0.49706358,2.83005356 0.49793052,2.80491228 0.508658744,2.78336163 L0.506281834,2.78336163 Z M4.75382003,2.8713073 C4.78471986,2.8713073 4.72054329,2.89983022 4.70152801,2.91409168 L4.79185059,2.85229202 C4.79898132,2.85229202 4.76808149,2.85229202 4.75382003,2.8713073 Z M0.392190153,2.77385399 L0.392190153,2.73582343 L0.408828523,2.69066214 L0.392190153,2.77385399 Z M0.670288625,1.90152801 L0.622750424,1.97996604 L0.622750424,1.97996604 L0.670288625,1.90152801 L0.670288625,1.90152801 Z M1.40475382,1.18845501 L1.39049236,1.18845501 L1.40475382,1.18845501 C1.44298454,1.15363063 1.48625726,1.12478215 1.53310696,1.10288625 C1.49791716,1.14142191 1.45385974,1.17079352 1.40475382,1.18845501 L1.40475382,1.18845501 Z M0.549066214,2.46960951 C0.541895506,2.49054726 0.53633323,2.51200176 0.532427844,2.53378608 C0.532427844,2.51952462 0.568081494,2.46485569 0.558573854,2.50764007 C0.544952865,2.55076587 0.528272142,2.59286484 0.508658744,2.6336163 C0.513730285,2.57874781 0.527364677,2.52501227 0.549066214,2.47436333 L0.549066214,2.46960951 Z M0.850933786,3.82920204 L0.827164686,3.82920204 L0.912733447,3.82920204 L0.850933786,3.82920204 Z M1.25025467,3.80305603 C1.29779287,3.80305603 1.41901528,3.80305603 1.50458404,3.80305603 C1.42222275,3.77443792 1.33261596,3.77443792 1.25025467,3.80305603 L1.25025467,3.80305603 Z M0.791511036,1.83259762 L0.770118846,1.84685908 L0.770118846,1.8278438 L0.729711375,1.90152801 C0.766903776,1.82160115 0.819391601,1.74973321 0.884210526,1.68998302 C0.838141546,1.72573427 0.805480659,1.77598179 0.791511036,1.83259762 Z M2.09168081,3.80305603 C2.16612913,3.80520263 2.24017867,3.81475741 2.31273345,3.83157895 C2.26543636,3.80879903 2.21294801,3.79895746 2.16061121,3.80305603 L2.09168081,3.80305603 L2.09168081,3.80305603 Z M2.09168081,3.84108659 C2.01530221,3.83622804 1.93963085,3.82348339 1.86587436,3.80305603 C1.98709677,3.80305603 2.0179966,3.82207131 2.00373514,3.83395586 C2.04059666,3.84144698 2.0785884,3.84144698 2.11544992,3.83395586 L2.09168081,3.84108659 Z M1.96570458,3.78404075 L1.90152801,3.78404075 C1.85146515,3.80124513 1.79709172,3.80124513 1.74702886,3.78404075 L1.90152801,3.78404075 L1.95144312,3.78404075 L1.96570458,3.78404075 Z M2.96876061,3.69847199 L2.91646859,3.69847199 C2.96400679,3.69847199 2.97113752,3.69847199 2.9663837,3.69847199 L3.00916808,3.69847199 C2.90220713,3.71748727 2.95687606,3.69847199 2.9663837,3.68896435 L2.96876061,3.69847199 Z M2.20814941,3.79117148 L2.0655348,3.79117148 C2.11170685,3.79450341 2.15811808,3.79130264 2.20339559,3.78166384 L2.20814941,3.79117148 Z M2.9426146,3.72224109 L2.7524618,3.76264856 C2.81227704,3.73988064 2.87447001,3.72393373 2.93786078,3.71511036 L2.9426146,3.72224109 Z M5.59762309,2.13921902 L5.54057725,2.21052632 L5.55721562,2.16774194 L5.59762309,2.13921902 Z M4.8417657,2.87843803 L4.85365025,2.85229202 L4.89643463,2.82139219 L4.8417657,2.87843803 Z M4.01697793,3.40373514 C4.01697793,3.40373514 4.01697793,3.40373514 4.01697793,3.40373514 L3.98370119,3.40373514 C3.99470718,3.40177891 4.00597193,3.40177891 4.01697793,3.40373514 C4.05130343,3.38186075 4.0831786,3.35636062 4.11205433,3.32767402 C4.09541596,3.32767402 4.04312394,3.35857385 4.01935484,3.36570458 C4.09066214,3.31103565 4.29032258,3.25398981 4.21663837,3.23972835 C4.2514615,3.21525505 4.29292204,3.20198768 4.33548387,3.20169779 C4.2475382,3.25398981 4.0811545,3.35382003 4.01460102,3.39660441 C4.00758105,3.40499548 3.99860077,3.4115266 3.98845501,3.41561969 L4.01697793,3.40373514 Z M2.75959253,3.80305603 L2.70016978,3.80305603 C2.66689304,3.80305603 2.64312394,3.80305603 2.65263158,3.80305603 C2.7286927,3.80305603 2.6811545,3.80305603 2.70016978,3.80305603 L2.75959253,3.80305603 Z M2.52190153,3.83395586 L2.64312394,3.83395586 L2.67402377,3.83395586 L2.76672326,3.83395586 C2.68852402,3.85203275 2.6072315,3.85203275 2.52903226,3.83395586 L2.52190153,3.83395586 Z M2.47911715,3.84821732 L2.45297114,3.84821732 L2.4910017,3.84821732 L2.37691002,3.84821732 L2.47911715,3.84821732 Z M0.492020374,4.10016978 C0.468251273,4.12156197 0.468251273,4.11918506 0.492020374,4.1286927 C0.515789474,4.13820034 0.544312394,4.14533107 0.541935484,4.11680815 C0.555385816,4.08834348 0.573911507,4.0625686 0.596604414,4.04074703 C0.606217985,4.01473234 0.627250206,3.99457646 0.653650255,3.9860781 C0.655874341,3.97670053 0.655874341,3.96693275 0.653650255,3.95755518 C0.653650255,3.95755518 0.608488964,3.95755518 0.551443124,4.04550085 C0.564885788,3.99969126 0.600709933,3.96386711 0.646519525,3.95042445 C0.669967068,3.94662312 0.692522252,3.93856769 0.713073005,3.92665535 C0.650074817,3.93760926 0.59335275,3.97147318 0.553820034,4.02173175 C0.569358636,3.99533471 0.590444405,3.97262696 0.615619694,3.95517827 C0.583073126,3.96224309 0.557309487,3.9870866 0.549066214,4.01935484 C0.539558574,4.05500849 0.546689304,4.12393888 0.501528014,4.10016978 L0.492020374,4.10016978 Z M0.387436333,3.10662139 L0.387436333,2.97826825 L0.387436333,3.09949066 L0.387436333,3.09949066 L0.387436333,3.10662139 Z M2.11544992,0.670288625 C2.16666712,0.627590381 2.22809459,0.59892423 2.29371817,0.587096774 C2.23197878,0.60956529 2.17232773,0.637402445 2.11544992,0.670288625 L2.11544992,0.670288625 Z M3.43225806,0.351782683 L3.28726655,0.351782683 C3.35180978,0.336300822 3.41845122,0.331483368 3.48455008,0.337521222 C3.50831919,0.347028862 3.45365025,0.342275042 3.43225806,0.351782683 Z M4.37113752,0.351782683 L4.41629881,0.351782683 L4.36876061,0.328013582 L4.36876061,0.347028862 L4.37113752,0.351782683 Z M4.30933786,0.320882852 C4.28187453,0.303168715 4.24908688,0.295602334 4.21663837,0.299490662 L4.30933786,0.320882852 Z M5.15076401,0.320882852 L5.09134126,0.320882852 L5.14601019,0.339898132 L5.15076401,0.320882852 Z M5.05568761,0.344651952 C5.04142615,0.330390492 5.05568761,0.313752122 4.9106961,0.320882852 C4.9106961,0.335144312 4.94159593,0.335144312 4.89168081,0.351782683 C4.92647601,0.354819856 4.96146966,0.354819856 4.99626486,0.351782683 C4.97114538,0.356656576 4.94532321,0.356656576 4.92020374,0.351782683 C4.96522084,0.346679101 5.0106705,0.346679101 5.05568761,0.351782683 C5.06570018,0.35522356 5.07657486,0.35522356 5.08658744,0.351782683 C5.07792737,0.34469416 5.06683461,0.341281003 5.05568761,0.342275042 L5.05568761,0.344651952 Z M4.5565365,0.344651952 L4.51612903,0.347028862 L4.51612903,0.347028862 C4.53249897,0.342802162 4.5496742,0.342802162 4.56604414,0.347028862 L4.63259762,0.347028862 C4.59776515,0.324392067 4.5576082,0.311279591 4.51612903,0.308998302 C4.5629102,0.31953521 4.61080231,0.324324421 4.65874363,0.323259762 C4.6467635,0.317315952 4.63269321,0.317315952 4.62071307,0.323259762 L4.70628183,0.323259762 C4.79898132,0.342275042 4.70628183,0.344651952 4.62071307,0.347028862 L4.59456706,0.347028862 C4.58105302,0.348129799 4.56745136,0.347329701 4.55415959,0.344651952 L4.5565365,0.344651952 Z M5.22920204,0.382682513 L5.1721562,0.382682513 C5.1483871,0.382682513 5.1721562,0.382682513 5.15551783,0.370797963 C5.20780985,0.366044143 5.27674024,0.373174873 5.22920204,0.382682513 Z M2.5385399,0.539558574 C2.56706282,0.527674024 2.49575552,0.539558574 2.43395586,0.560950764 L2.46247878,0.532427844 C2.51346521,0.525605746 2.56363399,0.513660799 2.61222411,0.496774194 C2.62648557,0.503904924 2.57419355,0.511035654 2.52665535,0.539558574 L2.5385399,0.539558574 Z M0.456366723,2.66451613 C0.429181186,2.74079472 0.415507163,2.82123014 0.415959253,2.90220713 C0.401697793,2.80475382 0.427843803,2.60271647 0.444482173,2.66451613 L0.456366723,2.66451613 Z M0.437351443,2.96162988 C0.437351443,3.00916808 0.437351443,3.02342954 0.425466893,3.01629881 C0.413582343,3.00916808 0.425466893,3.07572156 0.425466893,3.09949066 C0.423752476,3.05259403 0.431013361,3.00580166 0.446859083,2.96162988 L0.446859083,2.91646859 C0.440870341,2.93203724 0.433719454,2.94713356 0.425466893,2.96162988 L0.437351443,2.96162988 Z M1.16706282,1.34057725 L1.22410866,1.31205433 L1.29541596,1.24787776 L1.16706282,1.34057725 Z M2.0417657,0.782003396 C2.06946118,0.752910922 2.10256315,0.729497333 2.13921902,0.713073005 C2.09213766,0.719939748 2.04689149,0.736099096 2.00611205,0.760611205 L1.9704584,0.777249576 L2.00611205,0.760611205 C2.02750424,0.760611205 2.00611205,0.760611205 2.0179966,0.760611205 L1.9942275,0.777249576 L2.07028862,0.743972835 L2.0417657,0.782003396 Z M3.80305603,0.415959253 C3.84318266,0.409221903 3.88415181,0.409221903 3.92427844,0.415959253 C3.88400636,0.420637276 3.8433281,0.420637276 3.80305603,0.415959253 L3.80305603,0.415959253 Z M1.56400679,1.0672326 C1.65195246,1.00067912 1.50933786,1.08149406 1.56400679,1.03633277 L1.51646859,1.07198642 C1.55159481,1.04388103 1.59088999,1.02142664 1.63293718,1.00543294 L1.59728353,1.03157895 C1.57589134,1.05772496 1.66383701,0.998302207 1.66383701,1.00067912 C1.63526771,1.02922127 1.60134159,1.05183869 1.56400679,1.0672326 L1.56400679,1.0672326 Z M3.91001698,0.423089983 C3.96367789,0.418270184 4.01776411,0.423920983 4.06926995,0.439728353 C4.01568871,0.441111734 3.96215516,0.435518677 3.91001698,0.423089983 L3.91001698,0.423089983 Z M2.18913413,0.760611205 L2.18913413,0.760611205 L2.27232598,0.732088285 L2.27232598,0.732088285 L2.18913413,0.760611205 Z" id="Shape"></path>
                    <path d="M0.325636672,3.23497453 C0.328080502,3.24351855 0.328080502,3.25257652 0.325636672,3.26112054 C0.323521892,3.25253349 0.323521892,3.24356158 0.325636672,3.23497453 Z" id="Path"></path>
                    <polygon id="Path" points="0.320882852 3.45602716 0.320882852 3.46315789 0.320882852 3.47028862"></polygon>
                    <path d="M6.11578947,1.05534805 C6.14193548,1.01256367 6.11578947,1.10050934 6.0991511,1.1385399 C6.10107252,1.11020594 6.10666541,1.08224147 6.11578947,1.05534805 L6.11578947,1.05534805 Z" id="Path"></path>
                    <path d="M6.01358234,1.33582343 C6.02837049,1.30777078 6.04031454,1.2783088 6.04923599,1.24787776 C6.04129644,1.27864185 6.02930711,1.30821551 6.01358234,1.33582343 Z" id="Path"></path>
                    <path d="M6.08488964,1.10288625 C6.07618372,1.1519434 6.06427367,1.2003776 6.04923599,1.24787776 C6.05874363,1.21222411 6.06112054,1.18845501 6.08488964,1.10288625 Z" id="Path"></path>
                    <path d="M5.68081494,2.06315789 C5.71128319,2.02828715 5.73760499,1.99000089 5.75925297,1.94906621 C5.66417657,2.12258065 5.79728353,1.92529711 5.80916808,1.91341256 C5.77631707,1.97105085 5.73275086,2.02187809 5.68081494,2.06315789 L5.68081494,2.06315789 Z" id="Path"></path>
                    <path d="M5.51918506,2.26757216 L5.5524618,2.22478778 C5.54275282,2.24007322 5.53161028,2.25439934 5.51918506,2.26757216 L5.51918506,2.26757216 Z" id="Path"></path>
                    <path d="M5.46689304,2.32937182 C5.43837556,2.36042902 5.40457526,2.38618163 5.36706282,2.40543294 C5.41115758,2.3568581 5.45797907,2.3108302 5.50730051,2.26757216 C5.48828523,2.30322581 5.46689304,2.33887946 5.46689304,2.32937182 Z" id="Path"></path>
                    <path d="M3.80305603,3.57962649 C3.81959001,3.57204639 3.83725503,3.56722866 3.85534805,3.56536503 L3.7483871,3.61052632 C3.70322581,3.62478778 3.78166384,3.59151104 3.80305603,3.57962649 Z" id="Path"></path>
                    <path d="M3.39185059,3.69134126 C3.30390492,3.71511036 3.35382003,3.71748727 3.30865874,3.724618 L3.30865874,3.70322581 L3.39185059,3.69134126 Z" id="Path"></path>
                    <polygon id="Path" points="3.41086587 3.57724958 3.43701188 3.57249576 3.40848896 3.57962649"></polygon>
                    <path d="M2.96876061,3.80305603 L3.03531409,3.80305603 C2.95925297,3.83157895 2.95449915,3.80305603 2.96876061,3.80305603 Z" id="Path"></path>
                    <polygon id="Path" points="2.61460102 3.88862479 2.66926995 3.88862479 2.58370119 3.88862479 2.49813243 3.88862479"></polygon>
                    <polygon id="Path" points="2.20101868 3.90050934 2.18675722 3.90526316 2.07266553 3.90050934"></polygon>
                    <path d="M0.898471986,1.52122241 C0.864736641,1.58734792 0.824951693,1.65020814 0.779626486,1.7089983 C0.814873736,1.64374627 0.854583289,1.58100517 0.898471986,1.52122241 L0.898471986,1.52122241 Z" id="Path"></path>
                    <path d="M3.8910017,0.304244482 L3.71511036,0.304244482 C3.7735641,0.297807013 3.83254796,0.297807013 3.8910017,0.304244482 Z" id="Path"></path>
                </g>
            </g>
        </g>
    </g>
</svg>