<?xml version="1.0" encoding="UTF-8"?>
<svg width="14px" height="20px" viewBox="0 0 14 20" version="1.1" xmlns="http://www.w3.org/2000/svg" xmlns:xlink="http://www.w3.org/1999/xlink">
    <!-- Generator: Sketch 63.1 (92452) - https://sketch.com -->
    <title>ad-hoc</title>
    <desc>Created with Sketch.</desc>
    <g id="Page-1" stroke="none" stroke-width="1" fill="none" fill-rule="evenodd">
        <g id="echo-dashboard-white" transform="translate(-1249.000000, -167.000000)" fill="#FFFFFF" fill-rule="nonzero">
            <g id="ad-hoc" transform="translate(1249.000000, 167.000000)">
                <path d="M13.938973,7.70131387 C13.8556344,7.57015924 13.6996504,7.48909694 13.5306064,7.48909252 L7.38163829,7.48909252 L8.41252923,0.464963703 C8.43529784,0.271462886 8.30640825,0.089254936 8.10077191,0.0242402668 C7.89513558,-0.0407744023 7.66632729,0.0283425936 7.54733186,0.191420019 L0.0695294608,11.8742678 C-0.0195111531,12.003416 -0.0232839593,12.1654044 0.0596665776,12.2977382 C0.142617115,12.4300721 0.299323795,12.5120644 0.469329737,12.5120829 L6.5264154,12.5120829 L5.70944753,19.5467809 C5.69292962,19.7395442 5.82572012,19.9175743 6.03146235,19.9785011 C6.23720457,20.0394279 6.46303773,19.9675976 6.57910407,19.8043138 L13.9333404,8.12272183 C14.0201609,7.99340187 14.0223123,7.83244252 13.938973,7.70131387 L13.938973,7.70131387 Z" id="Path"></path>
            </g>
        </g>
    </g>
</svg>