<?xml version="1.0" encoding="UTF-8"?>
<svg width="28px" height="28px" viewBox="0 0 28 28" version="1.1" xmlns="http://www.w3.org/2000/svg" xmlns:xlink="http://www.w3.org/1999/xlink">
    <!-- Generator: Sketch 63.1 (92452) - https://sketch.com -->
    <title>clip-icon</title>
    <desc>Created with Sketch.</desc>
    <g id="Page-1" stroke="none" stroke-width="1" fill="none" fill-rule="evenodd">
        <g id="echo-dashboard-white" transform="translate(-1049.000000, -369.000000)">
            <g id="clip-icon" transform="translate(1049.000000, 369.000000)">
                <rect id="Rectangle" fill="#C1A9F7" x="0" y="0" width="28" height="28" rx="4"></rect>
                <path d="M19.9476912,11.3932613 C19.876258,11.2673529 19.7425575,11.1895331 19.5976627,11.1895288 L14.3271185,11.1895288 L15.2107393,4.44636516 C15.2302553,4.26060437 15.1197785,4.08568474 14.9435188,4.02327066 C14.7672591,3.96085657 14.5711377,4.02720889 14.4691416,4.18376322 L8.05959668,15.3992971 C7.98327615,15.5232794 7.98004232,15.6787882 8.05114278,15.8058287 C8.12224324,15.9328692 8.25656325,16.0115818 8.40228263,16.0115996 L13.5940703,16.0115996 L12.8938122,22.7649097 C12.879654,22.9499624 12.9934744,23.1208713 13.1698249,23.179361 C13.3461753,23.2378508 13.5397466,23.1688937 13.6392321,23.0121413 L19.9428632,11.797813 C20.0172808,11.6736658 20.0191248,11.5191448 19.9476912,11.3932613 L19.9476912,11.3932613 Z" id="Path" fill="#FFFFFF" fill-rule="nonzero"></path>
            </g>
        </g>
    </g>
</svg>