<?xml version="1.0" encoding="UTF-8"?>
<svg width="23px" height="30px" viewBox="0 0 23 30" version="1.1" xmlns="http://www.w3.org/2000/svg" xmlns:xlink="http://www.w3.org/1999/xlink">
    <!-- Generator: sketchtool 63.1 (101010) - https://sketch.com -->
    <title>FCBD2137-E04C-48C9-A679-9FC952CCA529</title>
    <desc>Created with sketchtool.</desc>
    <g id="Page-1" stroke="none" stroke-width="1" fill="none" fill-rule="evenodd">
        <g id="Recording-screen" transform="translate(-1289.000000, -242.000000)" fill="#FFFFFF" fill-rule="nonzero">
            <path d="M1303.85593,242 L1303.85593,247.047843 C1303.85593,248.988622 1305.42157,250.54619 1307.36235,250.54619 L1312.00276,250.54619 L1312.00276,269.13206 C1312.00276,270.633875 1310.75676,271.871806 1309.2552,271.871806 L1291.74757,271.871806 C1290.25408,271.871806 1289,270.633875 1289,269.13206 L1289,244.739493 C1289,243.246004 1290.246,242 1291.74757,242 L1303.85593,242 Z M1307.07475,266.36078 L1293.92801,266.36078 L1293.8282,266.36703 C1293.43561,266.416523 1293.1293,266.75383 1293.1293,267.159494 C1293.1293,267.598711 1293.48879,267.958208 1293.92801,267.958208 L1293.92801,267.958208 L1307.08283,267.958208 L1307.18264,267.951954 C1307.57522,267.902429 1307.88154,267.564925 1307.88154,267.159494 C1307.88154,266.720025 1307.52204,266.36078 1307.07475,266.36078 L1307.07475,266.36078 Z M1300.50138,251.40091 C1300.06216,251.40091 1299.70267,251.760155 1299.70267,252.199624 L1299.70267,252.199624 L1299.70267,260.921401 L1296.41195,257.383193 L1296.33213,257.30952 C1296.02585,257.062088 1295.57854,257.065133 1295.28577,257.343333 C1294.96639,257.646824 1294.94242,258.15012 1295.24591,258.469505 L1295.24591,258.469505 L1299.91837,263.493381 L1299.99876,263.56776 C1300.13989,263.682366 1300.31512,263.748939 1300.50138,263.748939 C1300.72515,263.748939 1300.93278,263.653073 1301.0844,263.493381 L1301.0844,263.493381 L1305.76492,258.469505 L1305.83399,258.385842 C1306.06237,258.06618 1306.01783,257.614133 1305.72506,257.343333 C1305.40543,257.039842 1304.89431,257.063556 1304.59889,257.383193 L1304.59889,257.383193 L1301.3001,260.921401 L1301.3001,252.199624 L1301.29384,252.099759 C1301.24432,251.707012 1300.90681,251.40091 1300.50138,251.40091 Z M1305.45336,243.222038 L1310.90863,248.948762 L1307.36235,248.948762 C1306.30808,248.948762 1305.45336,248.102115 1305.45336,247.047843 L1305.45336,243.222038 Z" id="download"></path>
        </g>
    </g>
</svg>