<?xml version="1.0" encoding="UTF-8"?>
<svg width="20px" height="15px" viewBox="0 0 20 15" version="1.1" xmlns="http://www.w3.org/2000/svg" xmlns:xlink="http://www.w3.org/1999/xlink">
    <!-- Generator: sketchtool 63.1 (101010) - https://sketch.com -->
    <title>2EE51D06-5C58-4CCD-A9F4-035414B3DB0C</title>
    <desc>Created with sketchtool.</desc>
    <g id="Page-1" stroke="none" stroke-width="1" fill="none" fill-rule="evenodd">
        <g id="login-2" transform="translate(-515.000000, -364.000000)" fill="#BABAC5" fill-rule="nonzero">
            <path d="M533.124957,379 C534.160111,379 534.999952,378.160158 534.999952,377.125004 L534.999952,365.875031 C534.999952,364.839878 534.160111,364.000036 533.124957,364.000036 L516.874996,364.000036 C515.839842,364.000036 515,364.839878 515,365.875031 L515,377.125004 C515,378.160158 515.839842,379 516.874996,379 L533.124957,379 Z M524.999976,374.000012 C524.093721,374.015652 522.789059,372.753906 522.13278,372.230493 C518.328125,369.210976 517.105479,368.214885 516.249997,367.49223 L516.249997,365.875031 C516.249997,365.53129 516.531254,365.250033 516.874996,365.250033 L533.124957,365.250033 C533.468698,365.250033 533.749955,365.53129 533.749955,365.875031 L533.749955,367.49223 C532.894473,368.214885 531.671828,369.210976 527.867172,372.230493 C527.207002,372.753906 525.906232,374.015652 524.999976,374.000012 Z M533.124957,377.750003 L516.874996,377.750003 C516.531254,377.750003 516.249997,377.468746 516.249997,377.125004 L516.249997,369.117211 C517.140612,369.847686 518.546859,370.976566 521.355461,373.207053 C522.156241,373.847653 523.570307,375.257829 524.999976,375.250009 C526.421863,375.26172 527.824181,373.863293 528.644491,373.207053 C531.453093,370.976566 532.85934,369.847686 533.749955,369.117211 L533.749955,377.125004 C533.749955,377.468746 533.468698,377.750003 533.124957,377.750003 Z" id="email"></path>
        </g>
    </g>
</svg>