<?xml version="1.0" encoding="UTF-8"?>
<svg width="21px" height="14px" viewBox="0 0 21 14" version="1.1" xmlns="http://www.w3.org/2000/svg" xmlns:xlink="http://www.w3.org/1999/xlink">
    <!-- Generator: sketchtool 63.1 (101010) - https://sketch.com -->
    <title>A0001DC9-A7EE-4E79-A0D4-2FC21AFFAEC1</title>
    <desc>Created with sketchtool.</desc>
    <g id="Page-1" stroke="none" stroke-width="1" fill="none" fill-rule="evenodd">
        <g id="login-2" transform="translate(-905.000000, -483.000000)" fill="#888997" fill-rule="nonzero">
            <path d="M915.124976,497 C919.446712,497 923.222155,494.481425 925.127592,490.762939 C925.195123,490.629387 925.249917,490.399498 925.249917,490.249844 C925.249917,490.10019 925.195123,489.870302 925.127592,489.73675 C923.221091,486.016857 919.446712,483.500032 915.124976,483.500032 C910.803239,483.500032 907.027797,486.018608 905.12236,489.737093 C905.054829,489.870645 905.000034,490.100534 905.000034,490.250188 C905.000034,490.399842 905.054829,490.62973 905.12236,490.763282 C907.028861,494.483176 910.803239,497 915.124976,497 Z M915.127448,495.312504 L915.124976,495.312504 C912.330473,495.312504 910.062488,493.044519 910.062488,490.250016 C910.062488,487.455513 912.330473,485.187528 915.124976,485.187528 C917.919479,485.187528 920.187464,487.455513 920.187464,490.250016 L920.187464,490.252488 C920.187464,493.045618 917.920578,495.312504 915.127448,495.312504 Z M915.132907,493.609524 C916.991617,493.609524 918.500174,492.101002 918.500174,490.242257 C918.500174,488.383546 916.991617,486.875024 915.132907,486.875024 L915.124976,486.875024 C914.87442,486.878526 914.475788,486.93823 914.235188,487.008267 C914.415844,487.253777 914.562477,487.700473 914.562477,488.005309 C914.562477,488.933891 913.808851,489.687517 912.880268,489.687517 C912.575433,489.687517 912.128737,489.540885 911.883227,489.360229 C911.818305,489.599352 911.765639,489.994482 911.765639,490.242257 C911.765639,492.101002 913.274162,493.609524 915.132907,493.609524 Z" id="eye"></path>
        </g>
    </g>
</svg>