<?xml version="1.0" encoding="UTF-8"?>
<svg width="45px" height="45px" viewBox="0 0 45 45" version="1.1" xmlns="http://www.w3.org/2000/svg" xmlns:xlink="http://www.w3.org/1999/xlink">
    <!-- Generator: Sketch 63.1 (92452) - https://sketch.com -->
    <title>hangouts</title>
    <desc>Created with Sketch.</desc>
    <g id="Page-1" stroke="none" stroke-width="1" fill="none" fill-rule="evenodd">
        <g id="echo-dashboard-white" transform="translate(-187.000000, -698.000000)">
            <g id="hangouts" transform="translate(187.000000, 698.000000)">
                <rect id="Rectangle-Copy-9" fill="#99D691" x="0" y="0" width="45" height="45" rx="7"></rect>
                <g id="google-hangouts" transform="translate(9.000000, 8.000000)" fill="#FFFFFF" fill-rule="nonzero">
                    <path d="M27,13.125 C27,5.875 20.9571429,0 13.5,0 C6.04285714,0 0,5.875 0,13.125 C0,20 6.42857143,25.625 13.5,25.625 L13.5,30 C21.6642857,26.125 27,19.75 27,13.125 Z M14.7857143,9.375 L20.5714286,9.375 L20.5714286,15 C20.5714286,16.75 19.4142857,18.125 18,18.125 L18,15 L14.7857143,15 L14.7857143,9.375 Z M12.8571429,15 C12.8571429,16.75 11.7,18.125 10.2857143,18.125 L10.2857143,15 L7.07142857,15 L7.07142857,9.375 L12.8571429,9.375 L12.8571429,15 Z" id="Shape"></path>
                </g>
            </g>
        </g>
    </g>
</svg>