<?xml version="1.0" encoding="UTF-8"?>
<svg width="130px" height="96px" viewBox="0 0 130 96" version="1.1" xmlns="http://www.w3.org/2000/svg" xmlns:xlink="http://www.w3.org/1999/xlink">
    <!-- Generator: sketchtool 63.1 (101010) - https://sketch.com -->
    <title>E45C99DD-2C5F-435A-977E-9DE4CC445C76</title>
    <desc>Created with sketchtool.</desc>
    <g id="Page-1" stroke="none" stroke-width="1" fill="none" fill-rule="evenodd">
        <g id="redirect" transform="translate(-655.000000, -261.000000)" fill-rule="nonzero">
            <g id="redirect-recording" transform="translate(610.000000, 199.000000)">
                <g id="laptop-(1)-2" transform="translate(45.000000, 62.000000)">
                    <g id="laptop-(1)">
                        <path d="M125.888889,74.0028439 C124.920599,74.0028439 124.194381,74.0028439 123.710236,74.0028439 C123.280801,74.0028439 121.525537,74.0028439 118.444444,74.0028439 L118.444444,10.3246803 C118.437649,4.62534704 113.840109,0.00682692643 108.166667,0 L21.8333333,0 C16.1598907,0.00682692643 11.5623515,4.62534704 11.5555556,10.3246803 L11.5555556,74.0028439 C10.850104,74.0028439 10.3210153,74.0028439 9.96828949,74.0028439 C9.40743504,74.0028439 7.45504224,74.0028439 4.11111111,74.0028439 C1.84060714,74.0028439 0,75.8518507 0,78.132716 L0,84.3275243 C0.00906220444,92.3067794 5.33477059,95.4244283 13.2777778,95.4335317 L116.722222,95.4335317 C124.665229,95.4244283 129.990938,92.3067794 130,84.3275243 L130,78.132716 C130,75.8518507 128.159393,74.0028439 125.888889,74.0028439 Z M15.6666667,10.3246803 C15.6666667,6.90338224 18.4275774,4.12987213 21.8333333,4.12987213 L108.166667,4.12987213 C111.572423,4.12987213 114.333333,6.90338224 114.333333,10.3246803 L114.333333,74.0028439 L15.6666667,74.0028439 L15.6666667,10.3246803 Z" id="Shape" fill="#272837"></path>
                        <path d="M125.888889,84.3275243 C125.882093,90.0268577 121.284554,91.2968327 115.611111,91.3036596 L14.3888889,91.3036596 C8.7154463,91.2968327 4.11790702,90.0268577 4.11111111,84.3275243 L4.11111111,78.132716 L42.6794601,78.132716 L42.6794601,80.1976521 C42.6794601,84.7593829 46.0701032,87.2954696 50.6111111,87.2954696 L79.3888889,87.2954696 C83.9298968,87.2954696 87.3795767,84.7593829 87.3795767,80.1976521 L87.3795767,78.132716 L125.888889,78.132716 L125.888889,84.3275243 Z" id="Shape-path" fill="#DED7F4"></path>
                        <path d="M46.5,78.132716 L83.5,78.132716 L83.5,80.1976521 C83.5,82.4785175 81.6593929,83.9787114 79.3888889,83.9787114 L50.6111111,83.9787114 C48.3406071,83.9787114 46.5,82.4785175 46.5,80.1976521 L46.5,78.132716 Z" id="Shape-path" fill="#DED7F4"></path>
                        <path d="M34.1666667,82.2625882 L30.0555556,82.2625882 C28.9203037,82.2625882 28,83.1870917 28,84.3275243 C28,85.4679568 28.9203037,86.3924603 30.0555556,86.3924603 L34.1666667,86.3924603 C35.3019185,86.3924603 36.2222222,85.4679568 36.2222222,84.3275243 C36.2222222,83.1870917 35.3019185,82.2625882 34.1666667,82.2625882 Z" id="Shape" fill="#272837"></path>
                        <ellipse id="Oval" fill="#272837" cx="13.6111111" cy="84.3275243" rx="2.05555556" ry="2.06493607"></ellipse>
                        <ellipse id="Oval" fill="#272837" cx="21.8333333" cy="84.3275243" rx="2.05555556" ry="2.06493607"></ellipse>
                        <path d="M99.8026111,18.8919326 C98.4430013,18.1730946 96.797844,18.2758386 95.5373333,19.1583094 L81.4444444,28.9812103 L81.4444444,22.5468695 C81.4444444,19.1255715 78.6835336,16.3520613 75.2777778,16.3520613 L34.1666667,16.3520613 C30.7609108,16.3520613 28,19.1255715 28,22.5468695 L28,55.5858466 C28,59.0071446 30.7609108,61.7806548 34.1666667,61.7806548 L75.2777778,61.7806548 C78.6835336,61.7806548 81.4444444,59.0071446 81.4444444,55.5858466 L81.4444444,49.1515058 L95.5373333,58.9744066 C96.7916753,59.85312 98.4278747,59.9598197 99.7847792,59.251391 C101.141684,58.5429622 101.99503,57.1364909 102,55.6003011 L102,22.5324149 C102,21.002243 101.153523,19.5988765 99.8026111,18.8919326 L99.8026111,18.8919326 Z" id="Shape" fill="#272837"></path>
                        <polygon id="Shape-path" fill="#CAF5DE" points="97.8888889 55.5858466 81.4444444 44.1275163 81.4444444 34.0093296 97.8888889 22.5344799"></polygon>
                        <path d="M75.2777778,57.6507826 L34.1666667,57.6507826 C33.0314148,57.6507826 32.1111111,56.7262792 32.1111111,55.5858466 L32.1111111,53.5209105 L38.2777778,53.5209105 C39.4130297,53.5209105 40.3333333,52.596407 40.3333333,51.4559744 C40.3333333,50.3155418 39.4130297,49.3910384 38.2777778,49.3910384 L32.1111111,49.3910384 L32.1111111,28.7416777 L38.2777778,28.7416777 C39.4130297,28.7416777 40.3333333,27.8171742 40.3333333,26.6767416 C40.3333333,25.536309 39.4130297,24.6118056 38.2777778,24.6118056 L32.1111111,24.6118056 L32.1111111,22.5468695 C32.1111111,21.4064369 33.0314148,20.4819334 34.1666667,20.4819334 L75.2777778,20.4819334 C76.4130297,20.4819334 77.3333333,21.4064369 77.3333333,22.5468695 L77.3333333,24.6118056 L65,24.6118056 C63.8647481,24.6118056 62.9444444,25.536309 62.9444444,26.6767416 C62.9444444,27.8171742 63.8647481,28.7416777 65,28.7416777 L77.3333333,28.7416777 L77.3333333,49.3910384 L65,49.3910384 C63.8647481,49.3910384 62.9444444,50.3155418 62.9444444,51.4559744 C62.9444444,52.596407 63.8647481,53.5209105 65,53.5209105 L77.3333333,53.5209105 L77.3333333,55.5858466 C77.3333333,56.7262792 76.4130297,57.6507826 75.2777778,57.6507826 Z" id="Shape-path" fill="#CAF5DE"></path>
                        <path d="M67.0555556,39.066358 C67.05319,37.4684221 66.2000648,35.9938465 64.8191111,35.2007977 L51.5196667,27.3395861 C50.0429001,26.4686667 48.2152404,26.4576397 46.7281667,27.310677 C45.3193968,28.0958999 44.4451883,29.586702 44.4444444,31.2051464 L44.4444444,46.9275696 C44.4451883,48.5460141 45.3193968,50.0368161 46.7281667,50.8220391 C48.2153523,51.6746476 50.0427831,51.6636219 51.5196667,50.7931299 L64.8191111,42.9319183 C66.2000648,42.1388695 67.05319,40.6642939 67.0555556,39.066358 L67.0555556,39.066358 Z M62.7388889,39.3719686 L49.4415,47.2331802 C49.2349171,47.3534889 48.9800274,47.3534889 48.7734444,47.2331802 C48.6531858,47.1760562 48.5741259,47.0569253 48.5678889,46.9234398 L48.5678889,31.2051464 C48.5741259,31.0716609 48.6531858,30.95253 48.7734444,30.895406 C48.8754911,30.8387605 48.9898663,30.808263 49.1064444,30.8066138 C49.2231052,30.8068741 49.3375004,30.8389938 49.4373889,30.8995359 L62.7388889,38.7607475 C62.8718513,38.8049487 62.9616316,38.9297951 62.9616316,39.0704879 C62.9616316,39.2111807 62.8718513,39.3360271 62.7388889,39.3802283 L62.7388889,39.3719686 Z" id="Shape" fill="#272837"></path>
                    </g>
                </g>
            </g>
        </g>
    </g>
</svg>