<?xml version="1.0" encoding="UTF-8"?>
<svg width="16px" height="12px" viewBox="0 0 16 12" version="1.1" xmlns="http://www.w3.org/2000/svg" xmlns:xlink="http://www.w3.org/1999/xlink">
    <!-- Generator: Sketch 63.1 (92452) - https://sketch.com -->
    <title>logout</title>
    <desc>Created with Sketch.</desc>
    <g id="Page-1" stroke="none" stroke-width="1" fill="none" fill-rule="evenodd">
        <g id="echo-dashboard-white" transform="translate(-1345.000000, -27.000000)" fill="#6B6C7E" fill-rule="nonzero">
            <path d="M1350.62499,39 C1350.83122,39 1350.99999,38.8312382 1350.99999,38.6250009 L1350.99999,38.3750015 C1350.99999,38.1687642 1350.83122,38.0000024 1350.62499,38.0000024 L1346.5,38.0000024 C1346.225,38.0000024 1346,37.7749968 1346,37.5000036 L1346,28.5000286 C1346,28.2250318 1346.225,28.0000286 1346.5,28.0000286 L1350.62499,28.0000286 C1350.83122,28.0000286 1350.99999,27.8312644 1350.99999,27.6250271 L1350.99999,27.3750277 C1350.99999,27.1687904 1350.83122,27.0000286 1350.62499,27.0000286 L1346.5,27.0000286 C1345.67187,27.0000286 1345,27.671902 1345,28.5000286 L1345,37.5000036 C1345,38.3281266 1345.67187,39 1346.5,39 L1350.62499,39 Z M1355.75309,38.3906265 L1360.8937,33.2656387 C1361.04058,33.1187579 1361.04058,32.8812707 1360.8937,32.7343899 L1355.74997,27.6094022 C1355.60309,27.4625214 1355.36561,27.4625214 1355.21873,27.6094022 L1354.99686,27.8312644 C1354.84998,27.9781452 1354.84998,28.2156629 1354.99686,28.3625132 L1359.12185,32.4687656 L1350.37499,32.4687656 C1350.16875,32.4687656 1349.99999,32.6375274 1349.99999,32.8437647 L1349.99999,33.1562639 C1349.99999,33.3625012 1350.16875,33.531263 1350.37499,33.531263 L1359.12185,33.531263 L1354.99998,37.6375155 C1354.8531,37.7843657 1354.8531,38.0218834 1354.99998,38.1687642 L1355.22184,38.3906265 C1355.36872,38.5375072 1355.60624,38.5375072 1355.75309,38.3906265 Z" id="logout"></path>
        </g>
    </g>
</svg>