<?xml version="1.0" encoding="UTF-8"?>
<svg width="26px" height="30px" viewBox="0 0 26 30" version="1.1" xmlns="http://www.w3.org/2000/svg" xmlns:xlink="http://www.w3.org/1999/xlink">
    <!-- Generator: Sketch 63.1 (92452) - https://sketch.com -->
    <title>notes-icon copy</title>
    <desc>Created with Sketch.</desc>
    <g id="Page-1" stroke="none" stroke-width="1" fill="none" fill-rule="evenodd">
        <g id="echo-dashboard-white" transform="translate(-1213.000000, -592.000000)" fill="#E8D58A" fill-rule="nonzero">
            <path d="M1239,615.636364 L1233.48485,621.151515 L1233.48485,615.636364 L1239,615.636364 Z M1220.84804,595.151515 C1220.83617,595.291654 1220.83052,595.433495 1220.83052,595.577038 C1220.83052,598.431444 1223.14961,600.753662 1226,600.753662 C1228.85039,600.753662 1231.16948,598.431444 1231.16948,595.577038 L1231.16517,595.363 L1231.16517,595.363 L1231.15196,595.151515 L1235.75,595.151515 C1237.4805,595.151515 1238.89907,596.511871 1238.99485,598.21992 L1239,598.40421 L1239,613.981743 L1232.7973,613.981743 C1232.3653,613.981743 1232.00843,614.30661 1231.95609,614.726082 L1231.94948,614.832788 L1231.94948,621.151515 L1216.25,621.151515 C1214.5195,621.151515 1213.10093,619.79116 1213.00515,618.08311 L1213,617.89882 L1213,598.40421 C1213,596.672617 1214.3589,595.252551 1216.06583,595.156674 L1216.25,595.151515 L1220.84804,595.151515 Z M1228.48922,612.66597 L1218.42377,612.66597 C1217.95554,612.66597 1217.57594,613.047011 1217.57594,613.517015 C1217.57594,613.950865 1217.89939,614.308912 1218.31742,614.361429 L1218.42377,614.36806 L1228.48927,614.36806 C1228.9575,614.36806 1229.33704,613.987019 1229.33704,613.517015 C1229.33704,613.047011 1228.95744,612.66597 1228.48922,612.66597 Z M1233.57617,609.261789 L1218.42377,609.261789 C1217.95554,609.261789 1217.57594,609.64283 1217.57594,610.112834 C1217.57594,610.546684 1217.89939,610.904731 1218.31742,610.957248 L1218.42377,610.963879 L1233.57623,610.963879 C1234.04446,610.963879 1234.424,610.582838 1234.424,610.112834 C1234.424,609.64283 1234.0444,609.261789 1233.57617,609.261789 Z M1231.88052,605.857608 L1218.42377,605.857608 C1217.95554,605.857608 1217.57594,606.238649 1217.57594,606.708653 C1217.57594,607.142555 1217.89939,607.500558 1218.31742,607.553068 L1218.42377,607.559698 L1231.88052,607.559698 C1232.34875,607.559698 1232.72835,607.178657 1232.72835,606.708653 C1232.72835,606.238649 1232.34875,605.857608 1231.88052,605.857608 Z M1233.57617,602.453427 L1218.42377,602.453427 C1217.95554,602.453427 1217.57594,602.834468 1217.57594,603.304472 C1217.57594,603.738322 1217.89939,604.096369 1218.31742,604.148886 L1218.42377,604.155517 L1233.57623,604.155517 C1234.04446,604.155517 1234.424,603.774476 1234.424,603.304472 C1234.424,602.834468 1234.0444,602.453427 1233.57617,602.453427 Z M1226,592 C1227.95499,592 1229.54545,593.590521 1229.54545,595.545426 C1229.54545,597.500389 1227.95499,599.090909 1226,599.090909 C1224.04501,599.090909 1222.45455,597.500446 1222.45455,595.545426 C1222.45455,593.590521 1224.04501,592 1226,592 Z" id="notes-icon-copy"></path>
        </g>
    </g>
</svg>