<?xml version="1.0" encoding="UTF-8"?>
<svg width="38px" height="27px" viewBox="0 0 38 27" version="1.1" xmlns="http://www.w3.org/2000/svg" xmlns:xlink="http://www.w3.org/1999/xlink">
    <!-- Generator: Sketch 63.1 (92452) - https://sketch.com -->
    <title>students</title>
    <desc>Created with Sketch.</desc>
    <g id="Page-1" stroke="none" stroke-width="1" fill="none" fill-rule="evenodd">
        <g id="widget-zentry-welcome" transform="translate(-131.000000, -604.000000)" fill="#D9D9EB" fill-rule="nonzero">
            <path d="M149.749955,617.750027 C153.376923,617.750027 156.31244,614.81451 156.31244,611.187542 C156.31244,607.560575 153.376923,604.625058 149.749955,604.625058 C146.122988,604.625058 143.187471,607.560575 143.187471,611.187542 C143.187471,614.81451 146.122988,617.750027 149.749955,617.750027 Z M162.874924,615.875031 C165.464773,615.875031 167.562413,613.777391 167.562413,611.187542 C167.562413,608.597693 165.464773,606.500054 162.874924,606.500054 C160.285075,606.500054 158.187435,608.597693 158.187435,611.187542 C158.187435,613.777391 160.285075,615.875031 162.874924,615.875031 Z M149.749955,615.875031 C147.166,615.875031 145.062466,613.771498 145.062466,611.187542 C145.062466,608.603587 147.166,606.500054 149.749955,606.500054 C152.333911,606.500054 154.437444,608.603587 154.437444,611.187542 C154.437444,613.771498 152.333911,615.875031 149.749955,615.875031 Z M136.624987,615.875031 C139.214836,615.875031 141.312475,613.777391 141.312475,611.187542 C141.312475,608.597693 139.214836,606.500054 136.624987,606.500054 C134.035138,606.500054 131.937498,608.597693 131.937498,611.187542 C131.937498,613.777391 134.035138,615.875031 136.624987,615.875031 Z M162.874924,614.000036 C161.322193,614.000036 160.062431,612.740273 160.062431,611.187542 C160.062431,609.634812 161.322193,608.375049 162.874924,608.375049 C164.427655,608.375049 165.687417,609.634812 165.687417,611.187542 C165.687417,612.740273 164.427655,614.000036 162.874924,614.000036 Z M136.624987,614.000036 C135.072256,614.000036 133.812493,612.740273 133.812493,611.187542 C133.812493,609.634812 135.072256,608.375049 136.624987,608.375049 C138.177717,608.375049 139.43748,609.634812 139.43748,611.187542 C139.43748,612.740273 138.177717,614.000036 136.624987,614.000036 Z M167.562413,623.375013 C168.078025,623.375013 168.499911,622.953128 168.499911,622.437516 C168.499911,619.85356 166.501891,617.750027 164.046796,617.750027 L161.703052,617.750027 C160.812417,617.750027 159.98627,618.031265 159.294877,618.505907 C159.845623,618.880872 160.343669,619.320324 160.783121,619.81837 C161.070252,619.695346 161.380787,619.625022 161.703052,619.625022 L164.046796,619.625022 C165.464773,619.625022 166.624915,620.884785 166.624915,622.437516 C166.624915,622.953128 167.046801,623.375013 167.562413,623.375013 Z M131.937498,623.375013 C132.45311,623.375013 132.874996,622.953128 132.874996,622.437516 C132.874996,620.884785 134.035138,619.625022 135.453114,619.625022 L137.796859,619.625022 C138.119124,619.625022 138.429658,619.695346 138.71679,619.81837 C139.156242,619.320324 139.660124,618.880872 140.205033,618.505907 C139.507804,618.031265 138.681599,617.750027 137.796859,617.750027 L135.453114,617.750027 C132.998019,617.750027 131,619.85356 131,622.437516 C131,622.953128 131.421885,623.375013 131.937498,623.375013 Z M158.187435,630.874996 C159.740166,630.874996 160.999928,629.615233 160.999928,628.062502 L160.999928,625.43752 C160.999928,624.043003 160.578043,622.74805 159.851517,621.669962 C158.638617,619.871127 156.570274,618.921899 154.443281,618.921899 C152.486288,618.921899 151.999982,619.625022 149.749955,619.625022 C147.499938,619.625022 147.013622,618.921899 145.05663,618.921899 C142.929636,618.921899 140.861293,619.871127 139.648394,621.669962 C138.921868,622.74805 138.499982,624.043003 138.499982,625.43752 L138.499982,628.062502 C138.499982,629.615233 139.759745,630.874996 141.312475,630.874996 L158.187435,630.874996 Z M158.187435,629 L141.312475,629 C140.796863,629 140.374978,628.578115 140.374978,628.062502 L140.374978,625.43752 C140.374978,624.464832 140.662109,623.521497 141.201125,622.718754 C142.009762,621.517585 143.451142,620.796895 145.050736,620.796895 C146.656224,620.796895 147.23043,621.500018 149.749955,621.500018 C152.269481,621.500018 152.843686,620.796895 154.443281,620.796895 C156.042932,620.796895 157.484312,621.517585 158.292892,622.718754 C158.831965,623.521497 159.119096,624.464832 159.119096,625.43752 L159.119096,628.062502 L159.124933,628.062502 C159.124933,628.578115 158.703048,629 158.187435,629 Z" id="students"></path>
        </g>
    </g>
</svg>