<?xml version="1.0" encoding="UTF-8"?>
<svg width="20px" height="21px" viewBox="0 0 20 21" version="1.1" xmlns="http://www.w3.org/2000/svg" xmlns:xlink="http://www.w3.org/1999/xlink">
    <!-- Generator: sketchtool 63.1 (101010) - https://sketch.com -->
    <title>65D74F86-7088-4AAC-8D85-2F046564BA60</title>
    <desc>Created with sketchtool.</desc>
    <g id="Page-1" stroke="none" stroke-width="1" fill="none" fill-rule="evenodd">
        <g id="login-2" transform="translate(-515.000000, -479.000000)" fill="#BABAC5" fill-rule="nonzero">
            <path d="M520.312487,499.499994 C520.830255,499.499994 521.249985,499.080264 521.249985,498.562496 L521.249985,497 L522.812481,497 C523.330249,497 523.749979,496.58027 523.749979,496.062502 L523.749979,494.500006 L524.504448,494.500006 C524.753051,494.500006 524.991546,494.401206 525.167365,494.225425 L526.369258,493.023531 C526.939364,493.17402 527.527054,493.250009 528.124969,493.250009 C531.921194,493.250009 534.999952,490.17312 534.999952,486.375025 C534.999952,482.5788 531.923063,479.500042 528.124969,479.500042 C524.328744,479.500042 521.249985,482.576931 521.249985,486.375025 C521.249985,486.97294 521.325974,487.56063 521.476463,488.130774 L515.274581,494.332656 C515.123024,494.484251 515,494.781225 515,494.995534 L515,498.562496 C515,499.080264 515.41973,499.499994 515.937498,499.499994 L520.312487,499.499994 Z M519.999988,498.249997 L516.249997,498.249997 L516.249997,495.125004 L522.903843,488.471158 C522.643529,487.82331 522.499982,487.115952 522.499982,486.375025 C522.499982,483.26842 525.018363,480.750039 528.124969,480.750039 C531.231574,480.750039 533.749955,483.26842 533.749955,486.375025 C533.749955,489.481631 531.231574,492.000012 528.124969,492.000012 C527.384042,492.000012 526.676684,491.856465 526.028836,491.596151 L524.374978,493.250009 L522.499982,493.250009 L522.499982,495.750003 L519.999988,495.750003 L519.999988,498.249997 Z M529.999964,486.375025 C531.035499,486.375025 531.87496,485.535565 531.87496,484.50003 C531.87496,483.464495 531.035499,482.625034 529.999964,482.625034 C528.964429,482.625034 528.124969,483.464495 528.124969,484.50003 C528.124969,485.535565 528.964429,486.375025 529.999964,486.375025 Z M529.999964,485.281278 C529.569172,485.281278 529.218716,484.930823 529.218716,484.50003 C529.218716,484.069237 529.569172,483.718782 529.999964,483.718782 C530.430757,483.718782 530.781212,484.069237 530.781212,484.50003 C530.781212,484.930823 530.430757,485.281278 529.999964,485.281278 Z" id="password"></path>
        </g>
    </g>
</svg>