<?xml version="1.0" encoding="UTF-8"?>
<svg width="16px" height="16px" viewBox="0 0 16 16" version="1.1" xmlns="http://www.w3.org/2000/svg" xmlns:xlink="http://www.w3.org/1999/xlink">
    <!-- Generator: Sketch 63.1 (92452) - https://sketch.com -->
    <title>search</title>
    <desc>Created with Sketch.</desc>
    <g id="Page-1" stroke="none" stroke-width="1" fill="none" fill-rule="evenodd">
        <g id="echo-dashboard-white" transform="translate(-687.000000, -25.000000)" fill="#888997" fill-rule="nonzero">
            <path d="M702.581201,40.8906205 L702.890587,40.581234 C703.037468,40.4343838 703.037468,40.196866 702.890587,40.0499853 L698.859347,36.0187449 C698.787478,35.9468762 698.693728,35.9093702 698.593722,35.9093702 L698.271854,35.9093702 C699.343721,34.7500101 699.999969,33.2031388 699.999969,31.5000179 C699.999969,27.9093892 697.090613,25.0000334 693.499985,25.0000334 C689.909356,25.0000334 687,27.9093892 687,31.5000179 C687,35.0906465 689.909356,38.0000024 693.499985,38.0000024 C695.203105,38.0000024 696.749977,37.3437539 697.909337,36.2750004 L697.909337,36.5937557 C697.909337,36.6937616 697.949986,36.7875114 698.018712,36.8593801 L702.049952,40.8906205 C702.196833,41.0375012 702.43435,41.0375012 702.581201,40.8906205 Z M693.499985,37.0000048 C690.459373,37.0000048 687.999998,34.5406295 687.999998,31.5000179 C687.999998,28.4594062 690.459373,26.000031 693.499985,26.000031 C696.540596,26.000031 698.999971,28.4594062 698.999971,31.5000179 C698.999971,34.5406295 696.540596,37.0000048 693.499985,37.0000048 Z" id="search"></path>
        </g>
    </g>
</svg>