<?xml version="1.0" encoding="UTF-8"?>
<svg width="14px" height="16px" viewBox="0 0 14 16" version="1.1" xmlns="http://www.w3.org/2000/svg" xmlns:xlink="http://www.w3.org/1999/xlink">
    <!-- Generator: Sketch 63.1 (92452) - https://sketch.com -->
    <title></title>
    <desc>Created with Sketch.</desc>
    <g id="Page-1" stroke="none" stroke-width="1" fill="none" fill-rule="evenodd">
        <g id="My-devices" transform="translate(-449.000000, -296.000000)" fill="#C1C6CC" fill-rule="nonzero">
            <path d="M461.65622,299.687525 C461.91497,299.687525 462.124969,299.477526 462.124969,299.218776 L462.124969,298.281278 C462.124969,298.022528 461.91497,297.812529 461.65622,297.812529 L458.140603,297.812529 L457.865202,297.264673 C457.771475,297.076468 457.543889,296.919302 457.327477,296.882952 L457.23532,296.875031 L453.884041,296.875031 C453.644602,296.875031 453.364938,297.049582 453.259767,297.264673 L452.984366,297.812529 L449.468749,297.812529 C449.209999,297.812529 449,298.022528 449,298.281278 L449,299.218776 C449,299.477526 449.209999,299.687525 449.468749,299.687525 L461.65622,299.687525 Z M459.163073,311.874996 C459.892117,311.874996 460.520826,311.284282 460.566373,310.556639 L461.187471,300.625022 L449.937498,300.625022 L450.558596,310.556639 C450.604143,311.284282 451.232851,311.874996 451.961896,311.874996 L459.163073,311.874996 Z" id=""></path>
        </g>
    </g>
</svg>