<?xml version="1.0" encoding="UTF-8"?>
<svg width="106px" height="39px" viewBox="0 0 106 39" version="1.1" xmlns="http://www.w3.org/2000/svg" xmlns:xlink="http://www.w3.org/1999/xlink">
    <!-- Generator: sketchtool 63.1 (101010) - https://sketch.com -->
    <title>212A5BD8-D4CC-413F-BF1C-65F4F2F8CF1C</title>
    <desc>Created with sketchtool.</desc>
    <g id="Page-1" stroke="none" stroke-width="1" fill="none" fill-rule="evenodd">
        <g id="zentry-student-profile-copy-7" transform="translate(-65.000000, -13.000000)">
            <g id="zentry" transform="translate(65.000000, 13.000000)">
                <g id="Group">
                    <circle id="Oval" fill="#DEF4FF" cx="41.5" cy="19.5" r="19.5"></circle>
                    <path d="M15.8300231,25.8492239 L15.8300231,22.4833703 L5.53533487,22.4833703 L15.4420323,10.6773836 L15.4420323,8 L0.206928406,8 L0.206928406,11.3658537 L9.93256351,11.3658537 L0,23.1718404 L0,25.8492239 L15.8300231,25.8492239 Z M24.4757506,26.0532151 C26.9933795,26.0532151 28.9074673,25.3137472 30.2180139,23.8348115 L30.2180139,23.8348115 L28.0711316,21.5399113 C27.5882987,21.9988914 27.0666667,22.3346268 26.5062356,22.5471175 C25.9458045,22.7596083 25.3034642,22.8658537 24.5792148,22.8658537 C23.5273287,22.8658537 22.647883,22.6193644 21.9408776,22.1263858 C21.2338722,21.6334072 20.7855273,20.9619364 20.595843,20.1119734 L20.595843,20.1119734 L31.1233256,20.1119734 C31.1750577,19.4490022 31.2009238,19.0920177 31.2009238,19.04102 C31.2009238,17.613082 30.8862202,16.3593865 30.2568129,15.2799335 C29.6274057,14.2004804 28.760893,13.3717664 27.6572748,12.7937916 C26.5536567,12.2158167 25.3207082,11.9268293 23.9584296,11.9268293 C22.5616628,11.9268293 21.2985373,12.2285661 20.1690531,12.8320399 C19.0395689,13.4355137 18.1515012,14.2769771 17.5048499,15.3564302 C16.8581986,16.4358832 16.534873,17.6470806 16.534873,18.9900222 C16.534873,20.349963 16.8625096,21.5654102 17.5177829,22.6363636 C18.1730562,23.7073171 19.104234,24.5445307 20.3113164,25.1480044 C21.5183988,25.7514782 22.9065435,26.0532151 24.4757506,26.0532151 Z M27.3986143,17.7915743 L20.5441109,17.7915743 C20.6820631,16.9076127 21.0614319,16.210643 21.6822171,15.7006652 C22.3030023,15.1906874 23.0703618,14.9356984 23.9842956,14.9356984 C24.8809854,14.9356984 25.6397229,15.1949372 26.2605081,15.7134146 C26.8812933,16.2318921 27.260662,16.924612 27.3986143,17.7915743 L27.3986143,17.7915743 Z M36.6327945,25.8492239 L36.6327945,19.0665188 C36.6327945,17.8425721 36.9345651,16.9203622 37.5381062,16.2998891 C38.1416474,15.6794161 38.952117,15.3691796 39.969515,15.3691796 C40.8834488,15.3691796 41.5818322,15.636918 42.0646651,16.1723947 C42.5474981,16.7078714 42.7889145,17.5195861 42.7889145,18.6075388 L42.7889145,18.6075388 L42.7889145,25.8492239 L46.8240185,25.8492239 L46.8240185,17.9955654 C46.8240185,15.9896526 46.2937644,14.4767184 45.2332564,13.4567627 C44.1727483,12.4368071 42.7802925,11.9268293 41.0558891,11.9268293 C40.1074673,11.9268293 39.2366436,12.0840724 38.443418,12.3985588 C37.6501925,12.7130451 36.9862972,13.1592757 36.4517321,13.7372506 L36.4517321,13.7372506 L36.4517321,12.1308204 L32.5976905,12.1308204 L32.5976905,25.8492239 L36.6327945,25.8492239 Z M54.8683603,26.0532151 C55.5063895,26.0532151 56.1142417,25.9809682 56.6919169,25.8364745 C57.269592,25.6919808 57.756736,25.4752402 58.1533487,25.1862528 L58.1533487,25.1862528 L57.0669746,22.3813747 C56.6186297,22.7213599 56.0754426,22.8913525 55.4374134,22.8913525 C54.8856043,22.8913525 54.4588145,22.7341094 54.1570439,22.4196231 C53.8552733,22.1051367 53.704388,21.6589061 53.704388,21.0809313 L53.704388,21.0809313 L53.704388,15.4966741 L57.1704388,15.4966741 L57.1704388,12.4368071 L53.704388,12.4368071 L53.704388,9.09645233 L49.6692841,9.09645233 L49.6692841,12.4368071 L47.5224018,12.4368071 L47.5224018,15.4966741 L49.6692841,15.4966741 L49.6692841,21.131929 C49.6692841,22.7468588 50.12194,23.9708056 51.0272517,24.8037694 C51.9325635,25.6367332 53.212933,26.0532151 54.8683603,26.0532151 Z M63.1713626,25.8492239 L63.1713626,19.3725055 C63.1713626,18.097561 63.4989992,17.1413525 64.1542725,16.5038803 C64.8095458,15.866408 65.7148576,15.5476718 66.8702079,15.5476718 C67.0254042,15.5476718 67.3271747,15.5646711 67.7755196,15.5986696 L67.7755196,15.5986696 L67.7755196,11.9268293 C66.7063895,11.9268293 65.7622787,12.0968219 64.9431871,12.4368071 C64.1240955,12.7767923 63.4731332,13.2782705 62.9903002,13.9412417 L62.9903002,13.9412417 L62.9903002,12.1308204 L59.1362587,12.1308204 L59.1362587,25.8492239 L63.1713626,25.8492239 Z M71.9464203,31 C73.2742109,31 74.4080062,30.677014 75.347806,30.0310421 C76.2876059,29.3850702 77.0765204,28.2716186 77.7145497,26.6906874 L77.7145497,26.6906874 L84,12.1308204 L80.1200924,12.1308204 L76.1884527,21.4379157 L72.282679,12.1308204 L68.1182448,12.1308204 L74.1450346,25.9512195 L74.0933025,26.078714 C73.817398,26.6906874 73.5070054,27.1284183 73.1621247,27.3919069 C72.817244,27.6553954 72.3688992,27.7871397 71.8170901,27.7871397 C71.4204773,27.7871397 71.0195535,27.710643 70.6143187,27.5576497 C70.2090839,27.4046563 69.8512702,27.1921656 69.5408776,26.9201774 L69.5408776,26.9201774 L68.0665127,29.7505543 C68.5148576,30.1415373 69.0925327,30.447524 69.7995381,30.6685144 C70.5065435,30.8895048 71.2221709,31 71.9464203,31 Z" id="Zentry" fill="#2C9BD6" fill-rule="nonzero"></path>
                </g>
                <path d="M95.277,25.091 C95.849,25.091 96.3538333,24.9501667 96.7915,24.6685 C97.2291667,24.3868333 97.5715,23.9881667 97.8185,23.4725 C98.0655,22.9568333 98.189,22.3566667 98.189,21.672 C98.189,20.9873333 98.0655,20.3936667 97.8185,19.891 C97.5715,19.3883333 97.2313333,18.9983333 96.798,18.721 C96.3646667,18.4436667 95.8576667,18.305 95.277,18.305 C94.6876667,18.305 94.185,18.4545 93.769,18.7535 C93.509,18.940375 93.301474,19.1737995 93.1464219,19.4537734 L93.066,19.614 L93.067,15.432 L92.014,15.432 L92.014,25 L93.067,25 L93.066,23.788 L93.1464219,23.9492344 C93.2704635,24.1751094 93.4280885,24.3695677 93.6192969,24.5326094 L93.769,24.649 C94.185,24.9436667 94.6876667,25.091 95.277,25.091 Z M95.082,24.22 C94.432,24.22 93.9336667,24.0011667 93.587,23.5635 C93.2403333,23.1258333 93.067,22.504 93.067,21.698 C93.067,20.9006667 93.2403333,20.2831667 93.587,19.8455 C93.9336667,19.4078333 94.432,19.189 95.082,19.189 C95.7146667,19.189 96.2086667,19.4056667 96.564,19.839 C96.9193333,20.2723333 97.097,20.8833333 97.097,21.672 C97.097,22.478 96.9193333,23.1041667 96.564,23.5505 C96.2086667,23.9968333 95.7146667,24.22 95.082,24.22 Z M99.502,27.951 C99.944,27.873 100.349167,27.7516667 100.7175,27.587 C101.085833,27.4223333 101.417333,27.1818333 101.712,26.8655 C102.006667,26.5491667 102.271,26.1266667 102.505,25.598 L102.505,25.598 L105.56,18.461 L104.507,18.461 L102.272,23.855 L100.061,18.461 L98.956,18.461 L101.72,24.931 L101.465,25.52 C101.354067,25.7834667 101.22788,26.0053333 101.08644,26.1856 L100.9775,26.313 C100.791167,26.5123333 100.5615,26.6748333 100.2885,26.8005 C100.0155,26.9261667 99.6796667,27.0366667 99.281,27.132 L99.281,27.132 L99.502,27.951 Z" id="by" fill="#2C9BD6" fill-rule="nonzero"></path>
            </g>
        </g>
    </g>
</svg>