<?xml version="1.0" encoding="UTF-8"?>
<svg width="45px" height="45px" viewBox="0 0 45 45" version="1.1" xmlns="http://www.w3.org/2000/svg" xmlns:xlink="http://www.w3.org/1999/xlink">
    <!-- Generator: Sketch 63.1 (92452) - https://sketch.com -->
    <title>zoom</title>
    <desc>Created with Sketch.</desc>
    <g id="Page-1" stroke="none" stroke-width="1" fill="none" fill-rule="evenodd">
        <g id="echo-dashboard-white" transform="translate(-187.000000, -584.000000)">
            <g id="zoom" transform="translate(187.000000, 584.000000)">
                <g id="zoom-copy" fill="#98BCFD">
                    <rect id="Rectangle" x="0" y="0" width="45" height="45" rx="7"></rect>
                </g>
                <path d="M22.5276662,15.1011 C25.8413747,15.1011 28.5276662,17.7873915 28.5276662,21.1011 L28.5276662,28.6010197 C28.5276662,29.7055892 27.6322357,30.6010197 26.5276662,30.6010197 L13,30.6010197 C9.6862915,30.6010197 7,27.9147282 7,24.6010197 L7,18.1011 C7,16.4442457 8.34314575,15.1011 10,15.1011 L22.5276662,15.1011 Z M37.8192924,15.5624903 C37.9310353,15.727724 37.9908096,15.9226004 37.9909323,16.1220713 L37.9986809,28.7178838 C37.9990207,29.2701684 37.5515809,29.718159 36.9992963,29.7184987 C36.7996667,29.7186215 36.6045692,29.6589923 36.4391185,29.547287 L30.2498795,25.3685748 L30.2498795,19.4742642 L36.4307362,15.2943266 C36.8882268,14.9849387 37.5099046,15.1049997 37.8192924,15.5624903 Z" id="Combined-Shape" fill="#FFFFFF"></path>
            </g>
        </g>
    </g>
</svg>