<?xml version="1.0" encoding="UTF-8"?>
<svg width="31px" height="32px" viewBox="0 0 31 32" version="1.1" xmlns="http://www.w3.org/2000/svg" xmlns:xlink="http://www.w3.org/1999/xlink">
    <!-- Generator: sketchtool 63.1 (101010) - https://sketch.com -->
    <title>97E071CC-F8FE-4009-BAC3-08D130499298</title>
    <desc>Created with sketchtool.</desc>
    <g id="Page-1" stroke="none" stroke-width="1" fill="none" fill-rule="evenodd">
        <g id="UI-elements" transform="translate(-619.000000, -848.000000)" fill="#FFFFFF" fill-rule="nonzero">
            <path d="M637.767294,848.552745 C637.838164,848.692748 637.875092,848.847464 637.875092,849.004382 L637.875713,851.167908 C640.44064,851.806922 642.817875,853.134696 644.751625,855.068446 C646.461956,856.778777 647.704569,858.840523 648.412244,861.093185 C650.027151,866.233738 648.721273,871.858173 644.878854,875.700593 C639.216577,881.362869 629.979251,881.305907 624.246708,875.573364 C618.514164,869.840821 618.457202,860.603494 624.119479,854.941218 C624.508232,854.552464 625.142437,854.556375 625.536014,854.949953 C625.929592,855.34353 625.933503,855.977735 625.544749,856.366488 C620.659979,861.251258 620.70912,869.220176 625.654508,874.165564 C630.599896,879.110952 638.568813,879.160092 643.453583,874.275322 C646.768964,870.959941 647.895371,866.108489 646.501669,861.672073 C645.891518,859.729846 644.820667,857.953089 643.343825,856.476246 C641.791704,854.924125 639.910872,853.82532 637.875881,853.235839 L637.875092,854.294875 C637.875092,854.84716 637.427377,855.294875 636.875092,855.294875 C636.718174,855.294875 636.563458,855.257947 636.423455,855.187077 L631.19781,852.54183 C630.70506,852.292398 630.507813,851.690741 630.757245,851.197992 C630.853436,851.007967 631.007786,850.853618 631.19781,850.757427 L636.423455,848.11218 C636.916204,847.862748 637.517861,848.059996 637.767294,848.552745 Z" id="backtrack"></path>
        </g>
    </g>
</svg>