<?xml version="1.0" encoding="UTF-8"?>
<svg width="20px" height="28px" viewBox="0 0 20 28" version="1.1" xmlns="http://www.w3.org/2000/svg" xmlns:xlink="http://www.w3.org/1999/xlink">
    <!-- Generator: sketchtool 63.1 (101010) - https://sketch.com -->
    <title>C874A43A-E740-4893-92D8-0EBB033BE4F4</title>
    <desc>Created with sketchtool.</desc>
    <g id="Page-1" stroke="none" stroke-width="1" fill="none" fill-rule="evenodd">
        <g id="widget-concept-copy-18" transform="translate(-242.000000, -274.000000)" fill="#FFFFFF" fill-rule="nonzero">
            <g id="clip" transform="translate(242.000000, 274.000000)">
                <path d="M19.9128186,10.7818394 C19.7937634,10.5982229 19.5709291,10.4847357 19.3294378,10.4847295 L10.5451976,10.4847295 L12.0178989,0.650949184 C12.0504255,0.380048041 11.8662975,0.12495691 11.5725313,0.0339363736 C11.2787651,-0.0570841632 10.9518961,0.039679631 10.7819027,0.267988026 L0.0993278012,16.6239749 C-0.0278730759,16.8047825 -0.033262799,17.0315661 0.085237968,17.2168335 C0.203738735,17.4021009 0.427605421,17.5168902 0.670471053,17.5169161 L9.32345057,17.5169161 L8.15635362,27.3654933 C8.1327566,27.6353618 8.32245732,27.884604 8.61637478,27.9699015 C8.91029224,28.055199 9.23291104,27.9546366 9.39872011,27.7260394 L19.904772,11.3718106 C20.0288013,11.1907626 20.0318747,10.9654195 19.9128186,10.7818394 L19.9128186,10.7818394 Z" id="Path"></path>
            </g>
        </g>
    </g>
</svg>