<?xml version="1.0" encoding="UTF-8"?>
<svg width="46px" height="46px" viewBox="0 0 46 46" version="1.1" xmlns="http://www.w3.org/2000/svg" xmlns:xlink="http://www.w3.org/1999/xlink">
    <!-- Generator: sketchtool 63.1 (101010) - https://sketch.com -->
    <title>C8CEB6A8-59AF-4439-A0CA-CE0104281B22</title>
    <desc>Created with sketchtool.</desc>
    <g id="Page-1" stroke="none" stroke-width="1" fill="none" fill-rule="evenodd">
        <g id="widget-concept-copy-18" transform="translate(-127.000000, -265.000000)" fill="#FFFFFF">
            <path d="M161.25,268.514428 C161.967439,268.928642 162.213252,269.846028 161.799038,270.563467 C161.384825,271.280905 160.467439,271.526718 159.75,271.112505 C150.423294,265.727728 138.497281,268.923294 133.112505,278.25 C130.442287,282.874952 129.811772,288.277362 131.238242,293.314788 C131.836843,295.428681 132.786451,297.428928 134.049266,299.225891 C135.663484,301.522894 137.762305,303.451224 140.25,304.887495 C149.576706,310.272272 161.502719,307.076706 166.887495,297.75 C171.005594,290.617244 170.174362,281.750111 164.992859,275.522549 C164.463004,274.885725 164.549719,273.939944 165.186544,273.410089 C165.823368,272.880234 166.769148,272.966949 167.299003,273.603773 C173.277962,280.789784 174.237,291.020284 169.485572,299.25 C163.272368,310.011584 149.511584,313.698775 138.75,307.485572 C135.88247,305.830002 133.458583,303.603012 131.594745,300.950805 C130.137327,298.876927 129.041995,296.569726 128.351742,294.132171 C126.706688,288.322841 127.434818,282.084041 130.514428,276.75 C136.727632,265.988416 150.488416,262.301225 161.25,268.514428 Z M150,277 C156.075132,277 161,281.924868 161,288 C161,294.075132 156.075132,299 150,299 C143.924868,299 139,294.075132 139,288 C139,281.924868 143.924868,277 150,277 Z" id="stopwatch"></path>
        </g>
    </g>
</svg>