<?xml version="1.0" encoding="UTF-8"?>
<svg width="33px" height="39px" viewBox="0 0 33 39" version="1.1" xmlns="http://www.w3.org/2000/svg" xmlns:xlink="http://www.w3.org/1999/xlink">
    <!-- Generator: Sketch 63.1 (92452) - https://sketch.com -->
    <title>arrow</title>
    <desc>Created with Sketch.</desc>
    <g id="Page-1" stroke="none" stroke-width="1" fill="none" fill-rule="evenodd">
        <g id="widget-uploading" transform="translate(-29.000000, -201.000000)" fill-rule="nonzero">
            <g id="arrow" transform="translate(29.000000, 201.000000)">
                <polygon id="Path" fill="#CAF5DE" points="27.8803834 16.2884994 16.3067633 1.5 4.73314319 16.2884994 1.50278605 20.4161627 8.25347091 20.4161627 8.25347091 36.7352526 24.3601927 36.7352526 24.3601927 20.4161627 31.1107406 20.4161627"></polygon>
                <path d="M15.1255063,0.575537017 L0.321530198,19.4916982 L0.244559183,19.5988493 C-0.398239646,20.5773321 0.297129165,21.9161627 1.50278605,21.9161627 L6.75278605,21.916 L6.75347091,36.7352526 C6.75347091,37.5636798 7.42504378,38.2352526 8.25347091,38.2352526 L24.3601927,38.2352526 L24.5046527,38.2283861 C25.2653046,38.1557013 25.8601927,37.5149488 25.8601927,36.7352526 L25.859786,21.916 L31.1107406,21.9161627 C32.3610514,21.9161627 33.0625751,20.4763229 32.2919964,19.4916982 L17.4880204,0.575537017 C16.8874594,-0.191845672 15.7260673,-0.191845672 15.1255063,0.575537017 Z M4.58078605,18.916 L16.306786,3.934 L28.031786,18.916 L24.3601927,18.9161627 L24.2157327,18.9230293 C23.4550808,18.9957141 22.8601927,19.6364666 22.8601927,20.4161627 L22.859786,35.235 L9.75278605,35.235 L9.75347091,20.4161627 L9.74660433,20.2717027 C9.67391959,19.5110508 9.03316702,18.9161627 8.25347091,18.9161627 L4.58078605,18.916 Z" id="Path" fill="#272837"></path>
            </g>
        </g>
    </g>
</svg>