<?xml version="1.0" encoding="UTF-8"?>
<svg width="120px" height="120px" viewBox="0 0 120 120" version="1.1" xmlns="http://www.w3.org/2000/svg" xmlns:xlink="http://www.w3.org/1999/xlink">
    <!-- Generator: Sketch 63.1 (92452) - https://sketch.com -->
    <title>cloud</title>
    <desc>Created with Sketch.</desc>
    <g id="Page-1" stroke="none" stroke-width="1" fill="none" fill-rule="evenodd">
        <g id="widget-uploading" transform="translate(-89.000000, -146.000000)">
            <g id="cloud" transform="translate(89.000000, 146.000000)">
                <circle id="Oval" fill="#F6F8FB" cx="60" cy="60" r="60"></circle>
                <g id="Group-2" transform="translate(25.000000, 34.000000)" fill-rule="nonzero">
                    <path d="M60.7605621,19.3062754 C60.7605621,9.47220475 52.7883573,1.5 42.9541498,1.5 C36.1705915,1.5 30.2736556,5.29358766 27.2673853,10.8746652 C26.1118862,10.2810268 24.8018821,9.94585532 23.4133929,9.94585532 C18.7487977,9.94585532 14.9674006,13.7272524 14.9674006,18.3918476 C7.52938819,18.3918476 1.5,24.4215097 1.5,31.8593851 C1.5,39.2972606 7.52952516,45.3269227 14.9674006,45.3269227 L23.6215909,45.3269227 L46.7688312,45.3269227 L58.7244673,45.3269227 C64.3389661,45.3269227 68.8904221,40.7754667 68.8904221,35.160831 C68.8904221,29.9139661 64.915209,25.5959111 59.8125761,25.0529525 C60.4268973,23.2501218 60.7605621,21.3173042 60.7605621,19.3062754 Z" id="Path" fill="#DED7F4"></path>
                    <path d="M42.5632017,0.00391241844 C36.0594143,0.134155797 30.1685531,3.50769097 26.7252461,8.8452499 L26.638863,8.981 L26.6259207,8.97663345 C25.6023911,8.62739624 24.5201614,8.44585532 23.4133929,8.44585532 L23.1349996,8.44967636 C18.325629,8.58185128 14.369093,12.128107 13.6019671,16.7518679 L13.570863,16.957 L13.3983629,16.9731029 C5.86945679,17.7574034 8.52651283e-14,24.1229117 8.52651283e-14,31.8593851 C8.52651283e-14,40.1257091 6.70111945,46.8269227 14.9674006,46.8269227 L58.7244673,46.8269227 C65.1674175,46.8269227 70.3904221,41.6038695 70.3904221,35.160831 L70.3866715,34.8627559 C70.2569029,29.7108912 66.7727744,25.3411234 61.9751992,23.9540282 L61.712863,23.881 L61.8003383,23.5132431 C62.1049763,22.143387 62.2605621,20.7349207 62.2605621,19.3062754 C62.2605621,8.64375466 53.6167615,-2.84217094e-14 42.9541498,-2.84217094e-14 L42.5632017,0.00391241844 Z M42.9541498,3 C51.9599108,3 59.2605621,10.3006125 59.2605621,19.3062754 C59.2605621,21.118904 58.9650397,22.8896379 58.3927434,24.5691393 L57.7873003,26.3459159 L59.6538608,26.544532 C64.033463,27.0105547 67.3904221,30.7205868 67.3904221,35.160831 C67.3904221,39.9470215 63.510557,43.8269227 58.7244673,43.8269227 L14.9674006,43.8269227 C8.35798313,43.8269227 3,38.4688643 3,31.8593851 C3,25.2498564 8.35789582,19.8918476 14.9674006,19.8918476 L16.4674006,19.8918476 L16.4674006,18.3918476 C16.4674006,14.5556796 19.5772248,11.4458553 23.4133929,11.4458553 C24.5323665,11.4458553 25.6102491,11.7096865 26.581928,12.2088871 L27.8903789,12.8811046 L28.5879858,11.586012 C31.4137151,6.34010512 36.8883843,3 42.9541498,3 Z" id="Path" fill="#272837"></path>
                    <path d="M33.5642408,12.6405314 C32.9001986,12.2786504 32.0656257,12.5282141 31.7034707,13.1923933 L31.6642966,13.2645777 C31.305155,13.9304006 31.5538969,14.7612751 32.2197197,15.1202798 C32.426548,15.2317754 32.6491282,15.2846467 32.8686949,15.2846467 C33.3560428,15.2846467 33.8279127,15.0238512 34.0755588,14.5648567 L34.10898,14.5034931 L34.114185,14.493905 C34.4760661,13.8297258 34.228557,13.0025495 33.5642408,12.6405314 Z" id="Path-Copy" fill="#272837"></path>
                    <path d="M43.7895046,5.5026256 C40.2463025,5.71917896 36.8967794,7.20505559 34.3578589,9.68644763 C33.8168179,10.2151611 33.8069559,11.0823334 34.3356694,11.6233744 C34.6041353,11.8978671 34.9595787,12.0356613 35.315296,12.0356613 C35.6606034,12.0356613 36.0061848,11.9059484 36.2725961,11.6454269 C38.3411533,9.62385125 41.0699175,8.41328915 43.9566109,8.2368687 C44.7117398,8.190709 45.286339,7.54118586 45.2401793,6.78619398 C45.1940196,6.0312021 44.5458662,5.45619195 43.7895046,5.5026256 Z" id="Path-Copy-2" fill="#272837"></path>
                </g>
            </g>
        </g>
    </g>
</svg>