<?xml version="1.0" encoding="UTF-8"?>
<svg width="120px" height="120px" viewBox="0 0 120 120" version="1.1" xmlns="http://www.w3.org/2000/svg" xmlns:xlink="http://www.w3.org/1999/xlink">
    <!-- Generator: Sketch 63.1 (92452) - https://sketch.com -->
    <title>upload-ok</title>
    <desc>Created with Sketch.</desc>
    <g id="Page-1" stroke="none" stroke-width="1" fill="none" fill-rule="evenodd">
        <g id="widget-uploading-complete" transform="translate(-90.000000, -168.000000)">
            <g id="upload-ok" transform="translate(90.000000, 168.000000)">
                <circle id="Oval" fill="#F6F8FB" cx="60" cy="60" r="60"></circle>
                <g id="Group-2" transform="translate(25.000000, 29.000000)">
                    <g id="Group" transform="translate(1.304652, 1.863231)" fill="#DED7F4" fill-rule="nonzero">
                        <path d="M59.2606991,17.8062754 C59.2606991,7.97220475 51.2884943,0 41.4542867,0 C34.6707285,0 28.7737926,3.79358766 25.7675223,9.37466518 C24.6120231,8.78102679 23.3020191,8.44585532 21.9135298,8.44585532 C17.2489347,8.44585532 13.4675375,12.2272524 13.4675375,16.8918476 C6.02952516,16.8918476 0.000136972403,22.9215097 0.000136972403,30.3593851 C0.000136972403,37.7972606 6.02966213,43.8269227 13.4675375,43.8269227 L22.1217279,43.8269227 L45.2689681,43.8269227 L57.2246043,43.8269227 C62.8391031,43.8269227 67.3905591,39.2754667 67.3905591,33.660831 C67.3905591,28.4139661 63.415346,24.0959111 58.3127131,23.5529525 C58.9270343,21.7501218 59.2606991,19.8173042 59.2606991,17.8062754 Z" id="Path"></path>
                    </g>
                    <path d="M61.4271916,23.8444298 C61.8077009,22.3243101 62.0000101,20.7600852 62.0000101,19.1759994 C62.0000101,8.60241477 53.3977323,9.9475983e-14 42.8238738,9.9475983e-14 C36.1786577,9.9475983e-14 30.057498,3.42170759 26.5623732,9.00881189 C25.5137125,8.63843851 24.4001268,8.44585532 23.2831169,8.44585532 C18.3163606,8.44585532 14.1993811,12.1535613 13.5550629,16.9466366 C5.97185978,17.5988991 -9.23705556e-14,23.9797585 -9.23705556e-14,31.7291092 C-9.23705556e-14,39.9103338 6.65589996,46.5663707 14.8371246,46.5663707 L20.6799564,46.5663707 L49.4496398,46.5663707 L58.5940544,46.5663707 C64.9547788,46.5663707 70.1297332,41.3914164 70.1297332,35.030555 C70.1297332,29.6671266 66.4866782,25.1121094 61.4271916,23.8444298 Z M58.5941914,43.8269227 L47.3058847,43.8269227 L22.8239854,43.8269227 L14.8371246,43.8269227 C8.16643162,43.8269227 2.73944805,38.3998022 2.73944805,31.7291092 C2.73944805,25.0584162 8.16643162,19.6312957 14.8371246,19.6312957 C15.5936232,19.6312957 16.2068486,19.0180702 16.2068486,18.2615716 C16.2068486,14.3597758 19.3811841,11.1853034 23.2831169,11.1853034 C24.4209466,11.1853034 25.5070008,11.4469207 26.5111455,11.9627587 C27.1746398,12.3035461 27.9890777,12.050832 28.3430144,11.3939123 C31.2184761,6.05568689 36.7672281,2.73944805 42.8238738,2.73944805 C51.8870637,2.73944805 59.2605621,10.1128095 59.2605621,19.1759994 C59.2605621,20.9923904 58.9662084,22.7772778 58.3857194,24.4809405 C58.2513494,24.8750101 58.3036729,25.3088017 58.5277597,25.659725 C58.7518466,26.0107853 59.1233157,26.240625 59.5373833,26.2847301 C64.0144633,26.7611201 67.3905591,30.5210126 67.3905591,35.030555 C67.3905591,39.8808847 63.4443841,43.8269227 58.5941914,43.8269227 Z" id="Shape" fill="#272837" fill-rule="nonzero"></path>
                    <path d="M31.6254109,12.0421976 C30.9613687,11.6803166 30.1267959,11.9298803 29.7646408,12.5940595 L29.7254667,12.6662439 C29.3663251,13.3320668 29.615067,14.1629414 30.2808898,14.521946 C30.4877181,14.6334416 30.7102983,14.6863129 30.9298651,14.6863129 C31.4172129,14.6863129 31.8890828,14.4255175 32.1367289,13.9665229 L32.1701502,13.9051593 L32.1753551,13.8955712 C32.5372362,13.231392 32.2897271,12.4042157 31.6254109,12.0421976 Z" id="Path" fill="#272837" fill-rule="nonzero"></path>
                    <path d="M41.8506747,4.9042918 C38.3074726,5.12084517 34.9579495,6.60672179 32.419029,9.08811384 C31.877988,9.61682731 31.868126,10.4839996 32.3968395,11.0250406 C32.6653054,11.2995333 33.0207488,11.4373275 33.3764661,11.4373275 C33.7217735,11.4373275 34.0673549,11.3076147 34.3337662,11.0470931 C36.4023235,9.02551745 39.1310877,7.81495536 42.017781,7.6385349 C42.7729099,7.5923752 43.3475091,6.94285207 43.3013494,6.18786019 C43.2551897,5.4328683 42.6070363,4.85785816 41.8506747,4.9042918 Z" id="Path" fill="#272837" fill-rule="nonzero"></path>
                    <circle id="Oval-Copy-2" fill="#CAF5DE" cx="35" cy="46" r="15"></circle>
                    <path d="M35,29.5 C25.8873016,29.5 18.5,36.8873016 18.5,46 C18.5,55.1126984 25.8873016,62.5 35,62.5 C44.1126984,62.5 51.5,55.1126984 51.5,46 C51.5,36.8873016 44.1126984,29.5 35,29.5 Z M35,32.5 C42.4558441,32.5 48.5,38.5441559 48.5,46 C48.5,53.4558441 42.4558441,59.5 35,59.5 C27.5441559,59.5 21.5,53.4558441 21.5,46 C21.5,38.5441559 27.5441559,32.5 35,32.5 Z" id="Oval" fill="#272837" fill-rule="nonzero"></path>
                    <path d="M32.4096412,52.5716141 C33.0344512,53.1700022 34.0038621,53.1378811 34.5926317,52.4979614 L43.5566519,42.7692881 C43.947885,42.3492608 44.0940539,41.7433739 43.9393659,41.1807953 C43.7846779,40.6182171 43.3533635,40.1857243 42.8087315,40.0466763 C42.2640998,39.9076284 41.6896381,40.0843029 41.3033703,40.5091948 L33.3984809,49.0879316 L29.639352,45.4925046 C29.2297178,45.0874924 28.642457,44.9447581 28.1028489,45.1187812 C27.563347,45.2937082 27.1553318,45.7580912 27.0355389,46.3339817 C26.9157462,46.9098722 27.1036713,47.508534 27.5256807,47.8991113 L32.4096412,52.5716141 Z" id="Path" fill="#272837" fill-rule="nonzero"></path>
                </g>
            </g>
        </g>
    </g>
</svg>