<?xml version="1.0" encoding="UTF-8"?>
<svg width="13px" height="16px" viewBox="0 0 13 16" version="1.1" xmlns="http://www.w3.org/2000/svg" xmlns:xlink="http://www.w3.org/1999/xlink">
    <!-- Generator: Sketch 63.1 (92452) - https://sketch.com -->
    <title>backtrack</title>
    <desc>Created with Sketch.</desc>
    <g id="Page-1" stroke="none" stroke-width="1" fill="none" fill-rule="evenodd">
        <g id="widget-concept" transform="translate(-14.000000, -574.000000)" fill="#8AAFFF" fill-rule="nonzero">
            <path d="M20.29686,589.59372 C23.7729622,589.59372 26.5911908,586.777078 26.5937217,583.301546 C26.5962491,579.831693 23.7667385,577 20.2968352,577 C18.5579783,577 16.984036,577.70501 15.8446344,578.844634 L14.5201346,577.520135 C14.3281929,577.328193 14,577.464146 14,577.735583 L14,581.367177 C14,581.535439 14.1364247,581.671864 14.3046868,581.671864 L17.9362814,581.671864 C18.2077174,581.671864 18.343671,581.343696 18.1517044,581.151729 L16.7773657,579.777366 C17.6776398,578.876943 18.9216287,578.320309 20.29686,578.320309 C23.0476202,578.320309 25.2734106,580.546521 25.2734106,583.29686 C25.2734106,586.04762 23.0471987,588.273411 20.29686,588.273411 C19.0246539,588.273411 17.8647712,587.797238 16.9853998,587.013255 C16.8648442,586.905767 16.6806386,586.913057 16.5664306,587.027265 L16.0652645,587.528431 C15.9415847,587.652135 15.9476844,587.853797 16.0775135,587.971055 C17.1940785,588.97961 18.6737483,589.59372 20.29686,589.59372 Z" id="backtrack" transform="translate(20.296861, 583.296860) rotate(-315.000000) translate(-20.296861, -583.296860) "></path>
        </g>
    </g>
</svg>