<?xml version="1.0" encoding="UTF-8"?>
<svg width="10px" height="16px" viewBox="0 0 10 16" version="1.1" xmlns="http://www.w3.org/2000/svg" xmlns:xlink="http://www.w3.org/1999/xlink">
    <!-- Generator: sketchtool 63.1 (101010) - https://sketch.com -->
    <title>8F6D6B79-B591-41A9-8D56-AC2795A36624</title>
    <desc>Created with sketchtool.</desc>
    <g id="Page-1" stroke="none" stroke-width="1" fill="none" fill-rule="evenodd">
        <g id="UI-elements" transform="translate(-134.000000, -539.000000)" fill="#C1A9F7" fill-rule="nonzero">
            <path d="M143.956409,545.161051 C143.896882,545.056127 143.785465,544.991278 143.664719,544.991274 L139.272599,544.991274 L140.008949,539.371971 C140.025213,539.21717 139.933149,539.071404 139.786266,539.019392 C139.639383,538.96738 139.475948,539.022674 139.390951,539.153136 L134.049664,548.499414 C133.986063,548.602733 133.983369,548.732323 134.042619,548.838191 C134.101869,548.944058 134.213803,549.009652 134.335236,549.009666 L138.661725,549.009666 L138.078177,554.637425 C138.066378,554.791635 138.161229,554.934059 138.308187,554.982801 C138.455146,555.031542 138.616456,554.974078 138.69936,554.843451 L143.952386,545.498177 C144.014401,545.394721 144.015937,545.265954 143.956409,545.161051 L143.956409,545.161051 Z" id="clip"></path>
        </g>
    </g>
</svg>