<?xml version="1.0" encoding="UTF-8"?>
<svg width="16px" height="16px" viewBox="0 0 16 16" version="1.1" xmlns="http://www.w3.org/2000/svg" xmlns:xlink="http://www.w3.org/1999/xlink">
    <!-- Generator: Sketch 63.1 (92452) - https://sketch.com -->
    <title>stopwatch-small</title>
    <desc>Created with Sketch.</desc>
    <g id="Page-1" stroke="none" stroke-width="1" fill="none" fill-rule="evenodd">
        <g id="widget-concept-copy-20" transform="translate(-12.000000, -594.000000)" fill="#DD80B7">
            <path d="M24.0048399,595.073425 C24.2599988,595.220741 24.3474228,595.547012 24.2001067,595.802171 C24.0527906,596.05733 23.7265201,596.144754 23.4713611,595.997438 C20.1542947,594.082328 15.9127782,595.218839 13.997669,598.535906 C13.0479995,600.180781 12.8237553,602.102162 13.3310829,603.893735 C13.5439767,604.645547 13.8817071,605.35694 14.3308304,605.996034 C14.9049313,606.812969 15.6513822,607.498784 16.5361372,608.009598 C19.8532036,609.924707 24.09472,608.788196 26.0098293,605.47113 C27.4744414,602.934347 27.1788117,599.780729 25.3359972,597.565881 C25.1475528,597.339393 25.1783934,597.003024 25.4048815,596.814579 C25.6313696,596.626135 25.9677388,596.656975 26.1561831,596.883464 C28.2826149,599.439186 28.6236992,603.077689 26.9338416,606.004608 C24.7241002,609.831993 19.8300428,611.143351 16.0026584,608.93361 C14.9828142,608.344803 14.1207526,607.552768 13.4578739,606.609504 C12.9395398,605.871924 12.5499821,605.051362 12.3044918,604.18444 C11.7194244,602.118337 11.9783856,599.899492 13.0736567,598.002427 C15.2833981,594.175043 20.1774555,592.863684 24.0048399,595.073425 Z M20.0037491,598.09134 C22.1643852,598.09134 23.9159267,599.842882 23.9159267,602.003518 C23.9159267,604.164154 22.1643852,605.915695 20.0037491,605.915695 C17.8431131,605.915695 16.0915715,604.164154 16.0915715,602.003518 C16.0915715,599.842882 17.8431131,598.09134 20.0037491,598.09134 Z" id="stopwatch-small"></path>
        </g>
    </g>
</svg>