<?xml version="1.0" encoding="UTF-8"?>
<svg width="23px" height="17px" viewBox="0 0 23 17" version="1.1" xmlns="http://www.w3.org/2000/svg" xmlns:xlink="http://www.w3.org/1999/xlink">
    <!-- Generator: sketchtool 63.1 (101010) - https://sketch.com -->
    <title>624E79C7-213D-4D64-8934-EECE052CE0AF</title>
    <desc>Created with sketchtool.</desc>
    <g id="Page-1" stroke="none" stroke-width="1" fill="none" fill-rule="evenodd">
        <g id="Zentry-Widget-UI-elements" transform="translate(-133.000000, -484.000000)" fill="#FFFFFF" fill-rule="nonzero">
            <path d="M156,499.581479 L156,485.418521 C156,484.2058 154.566904,483.568493 153.641486,484.32976 L145.016062,491.437778 C144.328732,492.004288 144.328732,493.048832 145.016062,493.615342 L153.641486,500.67024 C154.566904,501.431507 156,500.7942 156,499.581479 Z M144.499435,499.581479 L144.499435,485.418521 C144.499435,484.2058 143.066339,483.568493 142.140921,484.32976 L133.515497,491.437778 C132.828168,492.004288 132.828168,493.048832 133.515497,493.615342 L142.140921,500.67024 C143.066339,501.431507 144.499435,500.7942 144.499435,499.581479 Z M153.843644,498.076665 L147.060108,492.526538 L153.843644,486.936604 L153.843644,498.076665 Z M142.343079,498.076665 L135.559543,492.526538 L142.343079,486.936604 L142.343079,498.076665 Z" id="backtrack"></path>
        </g>
    </g>
</svg>