<?xml version="1.0" encoding="UTF-8"?>
<svg width="120px" height="120px" viewBox="0 0 120 120" version="1.1" xmlns="http://www.w3.org/2000/svg" xmlns:xlink="http://www.w3.org/1999/xlink">
    <!-- Generator: Sketch 63.1 (92452) - https://sketch.com -->
    <title>Group</title>
    <desc>Created with Sketch.</desc>
    <defs>
        <linearGradient x1="50%" y1="0%" x2="50%" y2="100%" id="linearGradient-1">
            <stop stop-color="#E2E3F3" offset="0%"></stop>
            <stop stop-color="#FFFFFF" offset="100%"></stop>
        </linearGradient>
    </defs>
    <g id="Page-1" stroke="none" stroke-width="1" fill="none" fill-rule="evenodd">
        <g id="widget-zentry-new-copy-5" transform="translate(-90.000000, -572.000000)">
            <g id="Group" transform="translate(90.000000, 572.000000)">
                <circle id="Oval" fill="url(#linearGradient-1)" cx="60" cy="60" r="60"></circle>
                <path d="M60,111.851852 C60.8181996,111.851852 61.4814815,112.515134 61.4814815,113.333333 C61.4814815,114.151533 60.8181996,114.814815 60,114.814815 C59.1818004,114.814815 58.5185185,114.151533 58.5185185,113.333333 C58.5185185,112.515134 59.1818004,111.851852 60,111.851852 Z M113.333333,58.5185185 C114.151533,58.5185185 114.814815,59.1818004 114.814815,60 C114.814815,60.8181996 114.151533,61.4814815 113.333333,61.4814815 C112.515134,61.4814815 111.851852,60.8181996 111.851852,60 C111.851852,59.1818004 112.515134,58.5185185 113.333333,58.5185185 Z M6.66666667,58.5185185 C7.4848663,58.5185185 8.14814815,59.1818004 8.14814815,60 C8.14814815,60.8181996 7.4848663,61.4814815 6.66666667,61.4814815 C5.84846704,61.4814815 5.18518519,60.8181996 5.18518519,60 C5.18518519,59.1818004 5.84846704,58.5185185 6.66666667,58.5185185 Z M60,5.18518519 C60.8181996,5.18518519 61.4814815,5.84846704 61.4814815,6.66666667 C61.4814815,7.4848663 60.8181996,8.14814815 60,8.14814815 C59.1818004,8.14814815 58.5185185,7.4848663 58.5185185,6.66666667 C58.5185185,5.84846704 59.1818004,5.18518519 60,5.18518519 Z" id="Combined-Shape" fill="#C4C5D5"></path>
                <path d="M70.6361807,110.400971 C71.2346445,110.273763 71.8229209,110.655786 71.9501259,111.254239 C72.0773309,111.852692 71.6953037,112.44095 71.0968399,112.568157 C70.498376,112.695364 69.9100997,112.313341 69.7828947,111.714889 C69.6556896,111.116436 70.0377168,110.528178 70.6361807,110.400971 Z M47.7411465,110.400971 C48.3396103,110.273763 48.9278867,110.655786 49.0550917,111.254239 C49.1822967,111.852692 48.8002695,112.44095 48.2018057,112.568157 C47.6033419,112.695364 47.0150655,112.313341 46.8878605,111.714889 C46.7606555,111.116436 47.1426826,110.528178 47.7411465,110.400971 Z M80.5927373,107.627058 L80.7068271,107.635825 C81.0841082,107.684567 81.4262851,107.926505 81.5856587,108.301966 C81.8247189,108.865156 81.5619654,109.515494 80.9987746,109.754554 C80.8861365,109.802367 80.7700112,109.830106 80.6543868,109.839383 L80.539077,109.842566 C80.1179695,109.83211 79.7214665,109.580665 79.5461556,109.167658 C79.3070953,108.604468 79.5698489,107.95413 80.1330397,107.715069 C80.2832239,107.65132 80.4396073,107.623256 80.5927373,107.627058 Z M38.152046,107.256684 L38.2672827,107.261879 C38.3827276,107.273172 38.498351,107.302934 38.6101376,107.352704 C39.1690704,107.601557 39.420434,108.256382 39.1715811,108.815315 C39.0056791,109.187937 38.6593319,109.423866 38.2812576,109.466016 L38.1670322,109.47279 C38.0138592,109.47392 37.8579893,109.443131 37.7089406,109.37677 C37.1500078,109.127917 36.8986442,108.473092 37.1474971,107.91416 C37.3299892,107.504276 37.7308202,107.259789 38.152046,107.256684 Z M90.4422388,103.251474 C90.7843687,103.758702 90.650533,104.447227 90.1433045,104.789357 C89.636076,105.131487 88.9475191,104.997645 88.6053891,104.490417 C88.2632592,103.983188 88.3970949,103.294663 88.9043234,102.952533 C89.4115519,102.610403 90.1001088,102.744245 90.4422388,103.251474 Z M29.9233075,102.437814 C30.4244877,102.788744 30.5462866,103.4795 30.1953565,103.98068 C29.8444263,104.481861 29.1536383,104.603665 28.6524581,104.252735 C28.1512779,103.901805 28.0294789,103.211049 28.3804091,102.709868 C28.7313393,102.208688 29.4221272,102.086884 29.9233075,102.437814 Z M22.1874665,96.2793879 L22.3087784,96.2860098 C22.5506183,96.3124972 22.7854047,96.4184469 22.9708166,96.6038588 C23.4034444,97.0364866 23.4034444,97.7378986 22.9708166,98.1705264 C22.7854047,98.3559383 22.5506183,98.461888 22.3087784,98.4883754 L22.1874665,98.4949973 C21.9039485,98.4949973 21.6204304,98.3868403 21.4041165,98.1705264 C20.9714887,97.7378986 20.9714887,97.0364866 21.4041165,96.6038588 C21.6204304,96.3875449 21.9039485,96.2793879 22.1874665,96.2793879 Z M97.3890693,96.2793879 L97.5103811,96.2860098 C97.752221,96.3124972 97.9870074,96.4184469 98.1724193,96.6038588 C98.6050471,97.0364866 98.6050471,97.7378986 98.1724193,98.1705264 C97.9870074,98.3559383 97.752221,98.461888 97.5103811,98.4883754 L97.3890693,98.4949973 C97.1055512,98.4949973 96.8220332,98.3868403 96.6057193,98.1705264 C96.1730915,97.7378986 96.1730915,97.0364866 96.6057193,96.6038588 C96.8220332,96.3875449 97.1055512,96.2793879 97.3890693,96.2793879 Z M103.982429,89.3791926 C104.483609,89.7301228 104.605408,90.4208788 104.254478,90.922059 C103.903548,91.4232393 103.21276,91.5450438 102.71158,91.1941136 C102.210399,90.8431835 102.0886,90.1524274 102.439531,89.6512472 C102.790461,89.150067 103.481249,89.0282624 103.982429,89.3791926 Z M16.6223013,88.9023316 C16.9644312,89.4095601 16.8305955,90.0980852 16.323367,90.4402151 C15.8161385,90.7823451 15.1275816,90.6485032 14.7854516,90.1412747 C14.4433217,89.6340462 14.5771574,88.9455211 15.0843859,88.6033911 C15.5916144,88.2612612 16.2801713,88.3951031 16.6223013,88.9023316 Z M108.35879,80.3068397 L108.474027,80.3120346 C108.589472,80.3233283 108.705095,80.3530897 108.816882,80.4028603 C109.375815,80.6517132 109.627178,81.3065378 109.378325,81.8654706 C109.212424,82.2380924 108.866076,82.474022 108.488002,82.5161718 L108.373777,82.5229462 C108.220604,82.5240754 108.064734,82.4932864 107.915685,82.4269256 C107.356752,82.1780727 107.105389,81.5232482 107.354241,80.9643154 C107.536734,80.5544314 107.937565,80.3099449 108.35879,80.3068397 Z M10.8670254,79.456042 L10.9811152,79.4648089 C11.3583963,79.5135506 11.7005732,79.7554888 11.8599467,80.1309493 C12.099007,80.6941401 11.8362535,81.344478 11.2730627,81.5835383 C11.1604246,81.6313503 11.0442993,81.6590893 10.9286749,81.6683665 L10.8133651,81.6715494 C10.3922576,81.6610933 9.99575459,81.4096486 9.82044372,80.9966421 C9.58138343,80.4334514 9.84413701,79.7831134 10.4073277,79.5440531 C10.5575119,79.4803037 10.7138954,79.4522397 10.8670254,79.456042 Z M111.994952,70.5201232 C112.593416,70.3929158 113.181692,70.7749391 113.308897,71.3733916 C113.436102,71.9718441 113.054075,72.5601022 112.455611,72.6873096 C111.857147,72.8145171 111.268871,72.4324938 111.141666,71.8340413 C111.014461,71.2355887 111.396488,70.6473306 111.994952,70.5201232 Z M7.54438869,69.7591684 C8.14285254,69.631961 8.73112891,70.0139842 8.85833392,70.6124368 C8.98553893,71.2108893 8.60351176,71.7991474 8.00504791,71.9263548 C7.40658407,72.0535622 6.8183077,71.671539 6.69110268,71.0730865 C6.56389767,70.4746339 6.94592485,69.8863758 7.54438869,69.7591684 Z M111.571488,47.6479833 C112.169952,47.5207759 112.758228,47.9027991 112.885433,48.5012516 C113.012638,49.0997042 112.630611,49.6879623 112.032147,49.8151697 C111.433683,49.9423771 110.845407,49.5603539 110.718202,48.9619013 C110.590997,48.3634488 110.973024,47.7751907 111.571488,47.6479833 Z M7.85947403,47.6479833 C8.45793788,47.5207759 9.04621425,47.9027991 9.17341926,48.5012516 C9.30062427,49.0997042 8.9185971,49.6879623 8.32013325,49.8151697 C7.72166941,49.9423771 7.13339304,49.5603539 7.00618802,48.9619013 C6.87898301,48.3634488 7.26101019,47.7751907 7.85947403,47.6479833 Z M108.763171,37.9027886 L108.877261,37.9115556 C109.254542,37.9602972 109.596719,38.2022355 109.756092,38.577696 C109.995152,39.1408867 109.732399,39.7912247 109.169208,40.0302849 C109.05657,40.078097 108.940445,40.105836 108.82482,40.1151132 L108.70951,40.1182961 C108.288403,40.10784 107.8919,39.8563953 107.716589,39.4433888 C107.477529,38.880198 107.740282,38.2298601 108.303473,37.9907998 C108.453657,37.9270504 108.610041,37.8989864 108.763171,37.9027886 Z M11.2027593,37.0513918 L11.317996,37.0565867 C11.4334409,37.0678804 11.5490644,37.0976419 11.6608509,37.1474124 C12.2197837,37.3962653 12.4711473,38.0510899 12.2222944,38.6100227 C12.0563924,38.9826445 11.7100452,39.2185741 11.3319709,39.2607239 L11.2177455,39.2674984 C11.0645725,39.2686275 10.9087026,39.2378385 10.7596539,39.1714778 C10.2007211,38.9226249 9.94935749,38.2678003 10.1982104,37.7088675 C10.3807025,37.2989835 10.7815335,37.0544971 11.2027593,37.0513918 Z M104.791084,29.4330634 C105.133214,29.9402919 104.999378,30.628817 104.49215,30.970947 C103.984921,31.3130769 103.296365,31.179235 102.954235,30.6720065 C102.612105,30.164778 102.74594,29.4762529 103.253169,29.1341229 C103.760397,28.791993 104.448954,28.9258349 104.791084,29.4330634 Z M16.8649563,28.3802244 C17.3661366,28.7311546 17.4879355,29.4219106 17.1370053,29.9230909 C16.7860751,30.4242711 16.0952872,30.5460757 15.5941069,30.1951455 C15.0929267,29.8442153 14.9711278,29.1534593 15.322058,28.652279 C15.6729881,28.1510988 16.3637761,28.0292943 16.8649563,28.3802244 Z M97.3890693,21.0793408 L97.5103811,21.0859627 C97.752221,21.1124501 97.9870074,21.2183997 98.1724193,21.4038117 C98.6050471,21.8364395 98.6050471,22.5378515 98.1724193,22.9704793 C97.9870074,23.1558912 97.752221,23.2618409 97.5103811,23.2883283 L97.3890693,23.2949502 C97.1055512,23.2949502 96.8220332,23.1867932 96.6057193,22.9704793 C96.1730915,22.5378515 96.1730915,21.8364395 96.6057193,21.4038117 C96.8220332,21.1874978 97.1055512,21.0793408 97.3890693,21.0793408 Z M22.1874665,21.0793408 L22.3087784,21.0859627 C22.5506183,21.1124501 22.7854047,21.2183997 22.9708166,21.4038117 C23.4034444,21.8364395 23.4034444,22.5378515 22.9708166,22.9704793 C22.7854047,23.1558912 22.5506183,23.2618409 22.3087784,23.2883283 L22.1874665,23.2949502 C21.9039485,23.2949502 21.6204304,23.1867932 21.4041165,22.9704793 C20.9714887,22.5378515 20.9714887,21.8364395 21.4041165,21.4038117 C21.6204304,21.1874978 21.9039485,21.0793408 22.1874665,21.0793408 Z M90.9240778,15.3216032 C91.425258,15.6725333 91.5470569,16.3632894 91.1961267,16.8644696 C90.8451966,17.3656498 90.1544086,17.4874544 89.6532284,17.1365242 C89.1520481,16.785594 89.0302492,16.094838 89.3811794,15.5936578 C89.7321096,15.0924775 90.4228975,14.970673 90.9240778,15.3216032 Z M30.9711467,15.0839211 C31.3132767,15.5911496 31.1794409,16.2796748 30.6722124,16.6218047 C30.164984,16.9639346 29.476427,16.8300927 29.1342971,16.3228642 C28.7921671,15.8156357 28.9260029,15.1271106 29.4332314,14.7849807 C29.9404598,14.4428507 30.6290168,14.5766927 30.9711467,15.0839211 Z M81.4095037,10.1015477 L81.5247404,10.1067425 C81.6401853,10.1180362 81.7558087,10.1477977 81.8675953,10.1975683 C82.4265281,10.4464212 82.6778917,11.1012457 82.4290388,11.6601785 C82.2631368,12.0328004 81.9167896,12.26873 81.5387153,12.3108797 L81.4244899,12.3176542 C81.2713169,12.3187834 81.115447,12.2879944 80.9663982,12.2216336 C80.4074655,11.9727807 80.1561019,11.3179561 80.4049548,10.7590233 C80.5874469,10.3491393 80.9882778,10.1046529 81.4095037,10.1015477 Z M39.0374589,9.73177242 L39.1515486,9.74053935 C39.5288298,9.78928101 39.8710067,10.0312193 40.0303802,10.4066798 C40.2694405,10.9698705 40.0066869,11.6202084 39.4434962,11.8592687 C39.330858,11.9070808 39.2147328,11.9348198 39.0991084,11.944097 L38.9837985,11.9472799 C38.5626911,11.9368237 38.1661881,11.6853791 37.9908772,11.2723725 C37.7518169,10.7091818 38.0145705,10.0588439 38.5777612,9.81978359 C38.7279454,9.75603418 38.8843289,9.72797018 39.0374589,9.73177242 Z M71.3747302,7.006181 C71.973194,6.87897358 72.5614704,7.26099682 72.6886754,7.85944936 C72.8158804,8.45790189 72.4338532,9.04615999 71.8353894,9.1733674 C71.2369255,9.30057482 70.6486492,8.91855158 70.5214441,8.32009905 C70.3942391,7.72164651 70.7762663,7.13338842 71.3747302,7.006181 Z M48.502117,6.69110218 C49.1005809,6.56389476 49.6888573,6.945918 49.8160623,7.54437054 C49.9432673,8.14282307 49.5612401,8.73108116 48.9627763,8.85828858 C48.3643124,8.985496 47.7760361,8.60347276 47.648831,8.00502023 C47.521626,7.40656769 47.9036532,6.8183096 48.502117,6.69110218 Z" id="Combined-Shape" fill="#C4C5D3" opacity="0.404017857"></path>
            </g>
        </g>
    </g>
</svg>