<?xml version="1.0" encoding="UTF-8"?>
<svg width="24px" height="24px" viewBox="0 0 24 24" version="1.1" xmlns="http://www.w3.org/2000/svg" xmlns:xlink="http://www.w3.org/1999/xlink">
    <!-- Generator: sketchtool 63.1 (101010) - https://sketch.com -->
    <title>FDDCC855-31AD-46B2-B2ED-F119FC11DA7C</title>
    <desc>Created with sketchtool.</desc>
    <g id="Page-1" stroke="none" stroke-width="1" fill="none" fill-rule="evenodd">
        <g id="Zentry-Widget-UI-elements" transform="translate(-219.000000, -481.000000)" fill="#FFFFFF" fill-rule="nonzero">
            <g id="poi" transform="translate(219.000000, 481.000000)">
                <path d="M12,22.3333333 C6.30204878,22.3333333 1.66666667,17.6979512 1.66666667,12 C1.66666667,6.30204878 6.30204878,1.66666667 12,1.66666667 C17.6979512,1.66666667 22.3333333,6.30204878 22.3333333,12 C22.3333333,17.6979512 17.6979512,22.3333333 12,22.3333333 Z M12,3.68292683 C7.41401626,3.68292683 3.68292683,7.41401626 3.68292683,12 C3.68292683,16.5859837 7.41401626,20.3170732 12,20.3170732 C16.5859837,20.3170732 20.3170732,16.5859837 20.3170732,12 C20.3170732,7.41401626 16.5859837,3.68292683 12,3.68292683 Z" id="Shape"></path>
                <path d="M12,5.66666667 C11.448,5.66666667 11,5.23224242 11,4.6969697 L11,1.3030303 C11,0.767757576 11.448,0.333333333 12,0.333333333 C12.552,0.333333333 13,0.767757576 13,1.3030303 L13,4.6969697 C13,5.23224242 12.552,5.66666667 12,5.66666667 Z" id="Path"></path>
                <path d="M22.6969697,13 L19.3030303,13 C18.7677576,13 18.3333333,12.552 18.3333333,12 C18.3333333,11.448 18.7677576,11 19.3030303,11 L22.6969697,11 C23.2322424,11 23.6666667,11.448 23.6666667,12 C23.6666667,12.552 23.2322424,13 22.6969697,13 Z" id="Path"></path>
                <path d="M12,23.6666667 C11.448,23.6666667 11,23.2322424 11,22.6969697 L11,19.3030303 C11,18.7677576 11.448,18.3333333 12,18.3333333 C12.552,18.3333333 13,18.7677576 13,19.3030303 L13,22.6969697 C13,23.2322424 12.552,23.6666667 12,23.6666667 Z" id="Path"></path>
                <path d="M4.6969697,13 L1.3030303,13 C0.767757576,13 0.333333333,12.552 0.333333333,12 C0.333333333,11.448 0.767757576,11 1.3030303,11 L4.6969697,11 C5.23224242,11 5.66666667,11.448 5.66666667,12 C5.66666667,12.552 5.23224242,13 4.6969697,13 Z" id="Path"></path>
                <path d="M12,15 C10.346,15 9,13.654 9,12 C9,10.346 10.346,9 12,9 C13.654,9 15,10.346 15,12 C15,13.654 13.654,15 12,15 Z M12,11 C11.449,11 11,11.449 11,12 C11,12.551 11.449,13 12,13 C12.551,13 13,12.551 13,12 C13,11.449 12.551,11 12,11 Z" id="Shape"></path>
            </g>
        </g>
    </g>
</svg>