<?xml version="1.0" encoding="UTF-8"?>
<svg width="27px" height="42px" viewBox="0 0 27 42" version="1.1" xmlns="http://www.w3.org/2000/svg" xmlns:xlink="http://www.w3.org/1999/xlink">
    <!-- Generator: Sketch 63.1 (92452) - https://sketch.com -->
    <title></title>
    <desc>Created with Sketch.</desc>
    <g id="Page-1" stroke="none" stroke-width="1" fill="none" fill-rule="evenodd" opacity="0.9">
        <g id="widget-zentry-new-copy-5" transform="translate(-137.000000, -611.000000)" fill="#FFFFFF" fill-rule="nonzero">
            <path d="M150.02,639.875 C154.334464,639.875 157.832,636.349258 157.832,632 L157.832,618.875 C157.832,614.525742 154.334464,611 150.02,611 C145.705536,611 142.208,614.525742 142.208,618.875 L142.208,632 C142.208,636.349258 145.705536,639.875 150.02,639.875 Z M150.02,637.25 C147.148273,637.25 144.812,634.894886 144.812,632 L144.812,618.875 C144.812,615.980114 147.148273,613.625 150.02,613.625 C152.891727,613.625 155.228,615.980114 155.228,618.875 L150.671,618.875 C150.311329,618.875 150.02,619.168678 150.02,619.53125 L150.02,620.84375 C150.02,621.206322 150.311329,621.5 150.671,621.5 L155.228,621.5 L155.228,624.125 L150.671,624.125 C150.311329,624.125 150.02,624.418678 150.02,624.78125 L150.02,626.09375 C150.02,626.456322 150.311329,626.75 150.671,626.75 L155.228,626.75 L155.228,629.375 L150.671,629.375 C150.311329,629.375 150.02,629.668678 150.02,630.03125 L150.02,631.34375 C150.02,631.706322 150.311329,632 150.671,632 L155.228,632 C155.228,634.894886 152.891727,637.25 150.02,637.25 Z M157.181,653 C157.540671,653 157.832,652.706322 157.832,652.34375 L157.832,651.03125 C157.832,650.668678 157.540671,650.375 157.181,650.375 L151.322,650.375 L151.322,645.042168 C157.889773,644.378548 163.04,638.792171 163.04,632 L163.04,627.40625 C163.04,627.043678 162.748671,626.75 162.389,626.75 L161.087,626.75 C160.727329,626.75 160.436,627.043678 160.436,627.40625 L160.436,632 C160.436,638.026012 155.374459,642.883881 149.309558,642.476208 C143.778522,642.104584 139.604,637.218037 139.604,631.630058 L139.604,627.40625 C139.604,627.043678 139.312671,626.75 138.953,626.75 L137.651,626.75 C137.291329,626.75 137,627.043678 137,627.40625 L137,631.53569 C137,638.376328 142.015926,644.342419 148.718,645.024063 L148.718,650.375 L142.859,650.375 C142.499329,650.375 142.208,650.668678 142.208,651.03125 L142.208,652.34375 C142.208,652.706322 142.499329,653 142.859,653 L157.181,653 Z" id=""></path>
        </g>
    </g>
</svg>