<?xml version="1.0" encoding="UTF-8"?>
<svg width="78px" height="78px" viewBox="0 0 78 78" version="1.1" xmlns="http://www.w3.org/2000/svg" xmlns:xlink="http://www.w3.org/1999/xlink">
    <!-- Generator: sketchtool 63.1 (101010) - https://sketch.com -->
    <title>2CA1045E-8F4D-446A-83A8-037CBA08A6E5</title>
    <desc>Created with sketchtool.</desc>
    <g id="Page-1" stroke="none" stroke-width="1" fill="none" fill-rule="evenodd">
        <g id="popups" transform="translate(-989.000000, -600.000000)" fill="#FD989E" fill-rule="nonzero">
            <path d="M1028,600 C1038.41727,600 1048.21099,604.056762 1055.57711,611.422734 C1062.94324,618.789012 1067,628.582734 1067,639 C1067,649.417266 1062.94324,659.210988 1055.57711,666.577113 C1048.21099,673.943238 1038.41727,678 1028,678 C1017.58258,678 1007.78886,673.943238 1000.42273,666.577113 C993.056609,659.210988 989,649.417266 989,639 C989,628.582734 993.056609,618.788859 1000.42273,611.422734 C1007.78871,604.056762 1017.58258,600 1028,600 Z M1028,604.570312 C1009.01538,604.570312 993.570312,620.015379 993.570312,639 C993.570312,657.984621 1009.01538,673.429688 1028,673.429688 C1046.98462,673.429688 1062.42969,657.984621 1062.42969,639 C1062.42969,620.015379 1046.98462,604.570312 1028,604.570312 Z M1020.72183,627.186292 L1028.50071,634.963759 L1036.27817,627.186292 C1037.05922,626.405243 1038.32555,626.405243 1039.1066,627.186292 L1039.81371,627.893398 C1040.59476,628.674447 1040.59476,629.940777 1039.81371,630.721825 L1032.03624,638.499293 L1039.81371,646.278175 C1040.59476,647.059223 1040.59476,648.325553 1039.81371,649.106602 L1039.1066,649.813708 C1038.32555,650.594757 1037.05922,650.594757 1036.27817,649.813708 L1028.50071,642.034827 L1020.72183,649.813708 C1019.94078,650.594757 1018.67445,650.594757 1017.8934,649.813708 L1017.18629,649.106602 C1016.40524,648.325553 1016.40524,647.059223 1017.18629,646.278175 L1024.96517,638.499293 L1017.18629,630.721825 C1016.40524,629.940777 1016.40524,628.674447 1017.18629,627.893398 L1017.8934,627.186292 C1018.67445,626.405243 1019.94078,626.405243 1020.72183,627.186292 Z" id="error"></path>
        </g>
    </g>
</svg>