<?xml version="1.0" encoding="UTF-8"?>
<svg width="65px" height="74px" viewBox="0 0 65 74" version="1.1" xmlns="http://www.w3.org/2000/svg" xmlns:xlink="http://www.w3.org/1999/xlink">
    <!-- Generator: sketchtool 63.1 (101010) - https://sketch.com -->
    <title>B495D3A2-08B9-4D93-AC30-7338A4EA6130</title>
    <desc>Created with sketchtool.</desc>
    <g id="Page-1" stroke="none" stroke-width="1" fill="none" fill-rule="evenodd">
        <g id="popups" transform="translate(-996.000000, -132.000000)" fill="#FD989E" fill-rule="nonzero">
            <g id="delete" transform="translate(996.000000, 132.000000)">
                <path d="M39,5.51381163e-13 C42.5841,5.51381163e-13 45.5,2.904685 45.5,6.475 L45.5,6.475 L45.5,8.63333333 L58.5,8.63333333 C62.0841,8.63333333 65,11.5380183 65,15.1083333 L65,15.1083333 L65,19.425 C65,20.6169756 64.0299111,21.5833333 62.8333333,21.5833333 L62.8333333,21.5833333 L60.4957889,21.5833333 L56.6841889,67.7637528 C56.6837556,67.76994 56.6831778,67.7761272 56.6826,67.7823144 C56.3760889,71.13953 53.5932222,73.6711111 50.2093222,73.6711111 L50.2093222,73.6711111 L14.7905333,73.6711111 C11.4067778,73.6711111 8.62376667,71.13953 8.31725556,67.7823144 C8.31667778,67.7761272 8.3161,67.76994 8.31566667,67.7637528 L8.31566667,67.7637528 L4.50421111,21.5833333 L2.16666667,21.5833333 C0.970088889,21.5833333 0,20.6169756 0,19.425 L0,19.425 L0,15.1083333 C0,11.5380183 2.9159,8.63333333 6.5,8.63333333 L6.5,8.63333333 L19.5,8.63333333 L19.5,6.475 C19.5,2.904685 22.4159,5.51381163e-13 26,5.51381163e-13 L26,5.51381163e-13 Z M56.1478667,21.5833333 L8.85213333,21.5833333 L12.6334,67.3987067 C12.7388444,68.5142772 13.6650222,69.3544444 14.7905333,69.3544444 L14.7905333,69.3544444 L50.2093222,69.3544444 C51.3348333,69.3544444 52.2611556,68.5142772 52.3664556,67.3987067 L52.3664556,67.3987067 L56.1478667,21.5833333 Z M32.5,25.9 C33.6965778,25.9 34.6666667,26.8663578 34.6666667,28.0583333 L34.6666667,28.0583333 L34.6666667,58.5627778 C34.6666667,59.7547533 33.6965778,60.7211111 32.5,60.7211111 C31.3034222,60.7211111 30.3333333,59.7547533 30.3333333,58.5627778 L30.3333333,58.5627778 L30.3333333,28.0583333 C30.3333333,26.8663578 31.3034222,25.9 32.5,25.9 Z M45.5,25.9 C46.6965778,25.9 47.6666667,26.8663578 47.6666667,28.0583333 L47.6666667,28.0583333 L47.6666667,58.5627778 C47.6666667,59.7547533 46.6965778,60.7211111 45.5,60.7211111 C44.3034222,60.7211111 43.3333333,59.7547533 43.3333333,58.5627778 L43.3333333,58.5627778 L43.3333333,28.0583333 C43.3333333,26.8663578 44.3034222,25.9 45.5,25.9 Z M19.5,25.9 C20.6965778,25.9 21.6666667,26.8663578 21.6666667,28.0583333 L21.6666667,28.0583333 L21.6666667,58.5627778 C21.6666667,59.7547533 20.6965778,60.7211111 19.5,60.7211111 C18.3034222,60.7211111 17.3333333,59.7547533 17.3333333,58.5627778 L17.3333333,58.5627778 L17.3333333,28.0583333 C17.3333333,26.8663578 18.3034222,25.9 19.5,25.9 Z M58.5,12.95 L6.5,12.95 C5.3053,12.95 4.33333333,13.9182283 4.33333333,15.1083333 L4.33333333,15.1083333 L4.33333333,17.2666667 L60.6666667,17.2666667 L60.6666667,15.1083333 C60.6666667,13.9182283 59.6947,12.95 58.5,12.95 L58.5,12.95 Z M39,4.31666667 L26,4.31666667 C24.8053,4.31666667 23.8333333,5.284895 23.8333333,6.475 L23.8333333,6.475 L23.8333333,8.63333333 L41.1666667,8.63333333 L41.1666667,6.475 C41.1666667,5.284895 40.1947,4.31666667 39,4.31666667 L39,4.31666667 Z" id="Combined-Shape"></path>
            </g>
        </g>
    </g>
</svg>