<?xml version="1.0" encoding="UTF-8"?>
<svg width="78px" height="78px" viewBox="0 0 78 78" version="1.1" xmlns="http://www.w3.org/2000/svg" xmlns:xlink="http://www.w3.org/1999/xlink">
    <!-- Generator: sketchtool 63.1 (101010) - https://sketch.com -->
    <title>B559CDD4-EE10-4BC7-BDF1-51563343BCF1</title>
    <desc>Created with sketchtool.</desc>
    <g id="Page-1" stroke="none" stroke-width="1" fill="none" fill-rule="evenodd">
        <g id="popups" transform="translate(-326.000000, -600.000000)" fill="#36DAA9" fill-rule="nonzero">
            <path d="M365,600 C375.417266,600 385.210988,604.056762 392.577113,611.422734 C399.943238,618.789012 404,628.582734 404,639 C404,649.417266 399.943238,659.210988 392.577113,666.577113 C385.210988,673.943238 375.417266,678 365,678 C354.582582,678 344.788859,673.943238 337.422734,666.577113 C330.056609,659.210988 326,649.417266 326,639 C326,628.582734 330.056609,618.788859 337.422734,611.422734 C344.788707,604.056762 354.582582,600 365,600 Z M365,604.570312 C346.015379,604.570312 330.570312,620.015379 330.570312,639 C330.570312,657.984621 346.015379,673.429688 365,673.429688 C383.984621,673.429688 399.429688,657.984621 399.429688,639 C399.429688,620.015379 383.984621,604.570312 365,604.570312 Z M380.160155,626.68534 C381.038481,625.771579 382.462817,625.771579 383.341143,626.685184 C384.219619,627.599101 384.219619,629.080901 383.341143,629.994662 L383.341143,629.994662 L361.88672,652.31464 C361.447632,652.771443 360.871779,653 360.296226,653 C359.720673,653 359.14497,652.771599 358.705732,652.31464 L358.705732,652.31464 L346.658857,639.781747 C345.780381,638.867831 345.780381,637.386031 346.658857,636.47227 C347.537333,635.558509 348.961669,635.558509 349.839995,636.47227 L349.839995,636.47227 L360.296376,647.350502 Z" id="check"></path>
        </g>
    </g>
</svg>