<?xml version="1.0" encoding="UTF-8"?>
<svg width="22px" height="36px" viewBox="0 0 22 36" version="1.1" xmlns="http://www.w3.org/2000/svg" xmlns:xlink="http://www.w3.org/1999/xlink">
    <!-- Generator: sketchtool 63.1 (101010) - https://sketch.com -->
    <title>6C901BFE-3A72-4A74-9734-EF0CE2C9D0A8</title>
    <desc>Created with sketchtool.</desc>
    <g id="Page-1" stroke="none" stroke-width="1" fill="none" fill-rule="evenodd">
        <g id="UI-elements" transform="translate(-258.000000, -825.000000)" fill="#DCDEE2" fill-rule="nonzero">
            <path d="M279.9041,838.862365 C279.77314,838.626287 279.528022,838.480374 279.262382,838.480367 L269.599717,838.480367 L271.219689,825.836935 C271.255468,825.488633 271.052927,825.160659 270.729784,825.043632 C270.406642,824.926606 270.047086,825.051017 269.860093,825.344556 L258.109261,846.373682 C257.96934,846.606149 257.963411,846.897728 258.093762,847.135929 C258.224113,847.37413 258.470366,847.521716 258.737518,847.521749 L268.255796,847.521749 L266.971989,860.184206 C266.946032,860.531179 267.154703,860.851634 267.478012,860.961302 C267.801321,861.07097 268.156202,860.941676 268.338592,860.647765 L279.895249,839.620899 C280.031681,839.388123 280.035062,839.098397 279.9041,838.862365 L279.9041,838.862365 Z" id="clip-big"></path>
        </g>
    </g>
</svg>